<svg width="905" height="273" viewBox="0 0 905 273" fill="none" xmlns="http://www.w3.org/2000/svg">
<path d="M522.18 34.7706C541.388 34.7706 556.95 50.3326 556.95 69.541L556.95 0.000105292C556.95 19.2085 541.388 34.7706 522.18 34.7706Z" fill="#898949"/>
<path d="M522.18 34.7706C502.971 34.7706 487.409 19.2085 487.409 0.000106812L487.409 69.541C487.409 50.3326 502.971 34.7706 522.18 34.7706Z" fill="#8C7544"/>
<path d="M522.18 34.7705C522.18 15.5621 537.742 4.35763e-05 556.95 4.27366e-05L487.409 4.57764e-05C506.618 4.49367e-05 522.18 15.5621 522.18 34.7705Z" fill="#513F1E"/>
<path d="M556.95 4.42565e-05C537.742 4.50961e-05 522.18 15.5621 522.18 34.7705C541.388 34.7705 556.95 19.2084 556.95 4.42565e-05Z" fill="#8C7544"/>
<path d="M522.18 34.7705C522.18 15.5621 506.618 4.49367e-05 487.409 4.57764e-05C487.409 19.2084 502.971 34.7705 522.18 34.7705Z" fill="#DDD0BC"/>
<path d="M522.18 34.7706C522.18 53.979 506.618 69.541 487.409 69.541L556.95 69.541C537.742 69.541 522.18 53.979 522.18 34.7706Z" fill="#898949"/>
<path d="M522.18 34.7706C522.18 53.979 537.742 69.541 556.95 69.541C556.95 50.3326 541.388 34.7706 522.18 34.7706Z" fill="#8C7544"/>
<path d="M522.18 34.7706C502.971 34.7706 487.409 50.3326 487.409 69.541C506.618 69.541 522.18 53.979 522.18 34.7706Z" fill="#555B1F"/>
<path d="M452.639 34.7706C471.847 34.7706 487.409 50.3326 487.409 69.541L487.409 0.000105292C487.409 19.2085 471.847 34.7706 452.639 34.7706Z" fill="#DDD0BC"/>
<path d="M452.639 34.7706C433.43 34.7706 417.868 19.2085 417.868 0.000106812L417.868 69.541C417.868 50.3326 433.43 34.7706 452.639 34.7706Z" fill="#A3A274"/>
<path d="M452.639 34.7705C452.639 15.5621 468.201 4.35763e-05 487.409 4.27366e-05L417.868 4.57764e-05C437.077 4.49367e-05 452.639 15.5621 452.639 34.7705Z" fill="#555B1F"/>
<path d="M487.409 4.42565e-05C468.201 4.50961e-05 452.639 15.5621 452.639 34.7705C471.847 34.7705 487.409 19.2084 487.409 4.42565e-05Z" fill="#8C7544"/>
<path d="M452.639 34.7705C452.639 15.5621 437.077 4.49367e-05 417.868 4.57764e-05C417.868 19.2084 433.43 34.7705 452.639 34.7705Z" fill="#513F1E"/>
<path d="M452.639 34.7706C452.639 53.979 437.077 69.541 417.868 69.541L487.409 69.541C468.201 69.541 452.639 53.979 452.639 34.7706Z" fill="#A3A274"/>
<path d="M452.639 34.7706C452.639 53.979 468.201 69.541 487.409 69.541C487.409 50.3326 471.847 34.7706 452.639 34.7706Z" fill="#8C7544"/>
<path d="M452.639 34.7706C433.43 34.7706 417.868 50.3326 417.868 69.541C437.077 69.541 452.639 53.979 452.639 34.7706Z" fill="#DDD0BC"/>
<path d="M383.098 34.7706C402.306 34.7706 417.868 50.3326 417.868 69.541L417.868 0.000105292C417.868 19.2085 402.306 34.7706 383.098 34.7706Z" fill="#8C7544"/>
<path d="M383.098 34.7706C363.889 34.7706 348.327 19.2085 348.327 0.000106812L348.327 69.541C348.327 50.3326 363.889 34.7706 383.098 34.7706Z" fill="#A3A274"/>
<path d="M383.098 34.7705C383.098 15.5621 398.66 4.35763e-05 417.868 4.27366e-05L348.327 4.57764e-05C367.536 4.49367e-05 383.098 15.5621 383.098 34.7705Z" fill="#898949"/>
<path d="M417.868 4.42565e-05C398.66 4.50961e-05 383.098 15.5621 383.098 34.7705C402.306 34.7705 417.868 19.2084 417.868 4.42565e-05Z" fill="#A3A274"/>
<path d="M383.098 34.7705C383.098 15.5621 367.536 4.49367e-05 348.327 4.57764e-05C348.327 19.2084 363.889 34.7705 383.098 34.7705Z" fill="#DDD0BC"/>
<path d="M383.098 34.7706C383.098 53.979 367.536 69.541 348.327 69.541L417.868 69.541C398.66 69.541 383.098 53.979 383.098 34.7706Z" fill="#DDD0BC"/>
<path d="M383.098 34.7706C383.098 53.979 398.66 69.541 417.868 69.541C417.868 50.3326 402.306 34.7706 383.098 34.7706Z" fill="#555B1F"/>
<path d="M383.098 34.7706C363.889 34.7706 348.327 50.3326 348.327 69.541C367.536 69.541 383.098 53.979 383.098 34.7706Z" fill="#513F1E"/>
<path d="M661.261 34.7706C680.469 34.7706 696.031 50.3326 696.031 69.541L696.031 9.00329e-05C696.031 19.2085 680.469 34.7706 661.261 34.7706Z" fill="#A3A274"/>
<path d="M661.261 34.7706C642.052 34.7706 626.49 19.2085 626.49 9.15527e-05L626.49 69.541C626.49 50.3326 642.052 34.7706 661.261 34.7706Z" fill="#8C7544"/>
<path d="M661.261 34.7705C661.261 15.5621 676.823 3.59469e-05 696.031 3.51072e-05L626.49 3.8147e-05C645.699 3.73073e-05 661.261 15.5621 661.261 34.7705Z" fill="#8C7544"/>
<path d="M696.031 3.66271e-05C676.823 3.74667e-05 661.261 15.5621 661.261 34.7705C680.469 34.7705 696.031 19.2084 696.031 3.66271e-05Z" fill="#DDD0BC"/>
<path d="M661.261 34.7705C661.261 15.5621 645.699 3.73073e-05 626.49 3.8147e-05C626.49 19.2084 642.052 34.7705 661.261 34.7705Z" fill="#513F1E"/>
<path d="M661.261 34.7706C661.261 53.979 645.699 69.541 626.49 69.541L696.031 69.541C676.823 69.541 661.261 53.979 661.261 34.7706Z" fill="#DDD0BC"/>
<path d="M661.261 34.7706C661.261 53.979 676.823 69.541 696.031 69.541C696.031 50.3326 680.469 34.7706 661.261 34.7706Z" fill="#898949"/>
<path d="M661.261 34.7706C642.052 34.7706 626.49 50.3326 626.49 69.541C645.699 69.541 661.261 53.979 661.261 34.7706Z" fill="#555B1F"/>
<path d="M800.344 34.7706C819.552 34.7706 835.114 50.3326 835.114 69.541L835.114 9.00329e-05C835.114 19.2085 819.552 34.7706 800.344 34.7706Z" fill="#555B1F"/>
<path d="M800.344 34.7706C781.135 34.7706 765.573 19.2085 765.573 9.15527e-05L765.573 69.541C765.573 50.3326 781.135 34.7706 800.344 34.7706Z" fill="#DDD0BC"/>
<path d="M800.344 34.7705C800.344 15.5621 815.906 3.59469e-05 835.114 3.51072e-05L765.573 3.8147e-05C784.782 3.73073e-05 800.344 15.5621 800.344 34.7705Z" fill="#8C7544"/>
<path d="M835.114 3.66271e-05C815.906 3.74667e-05 800.344 15.5621 800.344 34.7705C819.552 34.7705 835.114 19.2084 835.114 3.66271e-05Z" fill="#DDD0BC"/>
<path d="M800.344 34.7705C800.344 15.5621 784.782 3.73073e-05 765.573 3.8147e-05C765.573 19.2084 781.135 34.7705 800.344 34.7705Z" fill="#555B1F"/>
<path d="M800.344 34.7706C800.344 53.979 784.782 69.541 765.573 69.541L835.114 69.541C815.906 69.541 800.344 53.979 800.344 34.7706Z" fill="#DDD0BC"/>
<path d="M800.344 34.7706C800.344 53.979 815.906 69.541 835.114 69.541C835.114 50.3326 819.552 34.7706 800.344 34.7706Z" fill="#8C7544"/>
<path d="M800.344 34.7706C781.135 34.7706 765.573 50.3326 765.573 69.541C784.782 69.541 800.344 53.979 800.344 34.7706Z" fill="#A3A274"/>
<path d="M730.802 34.7706C750.01 34.7706 765.572 50.3326 765.572 69.541L765.572 9.00329e-05C765.572 19.2085 750.01 34.7706 730.802 34.7706Z" fill="#555B1F"/>
<path d="M730.802 34.7706C711.593 34.7706 696.031 19.2085 696.031 9.15527e-05L696.031 69.541C696.031 50.3326 711.593 34.7706 730.802 34.7706Z" fill="#555B1F"/>
<path d="M730.802 34.7705C730.802 15.5621 746.364 3.59469e-05 765.572 3.51072e-05L696.031 3.8147e-05C715.24 3.73073e-05 730.802 15.5621 730.802 34.7705Z" fill="#898949"/>
<path d="M765.572 3.66271e-05C746.364 3.74667e-05 730.802 15.5621 730.802 34.7705C750.01 34.7705 765.572 19.2084 765.572 3.66271e-05Z" fill="#513F1E"/>
<path d="M730.802 34.7705C730.802 15.5621 715.24 3.73073e-05 696.031 3.8147e-05C696.031 19.2084 711.593 34.7705 730.802 34.7705Z" fill="#A3A274"/>
<path d="M730.802 34.7706C730.802 53.979 715.24 69.541 696.031 69.541L765.572 69.541C746.364 69.541 730.802 53.979 730.802 34.7706Z" fill="#DDD0BC"/>
<path d="M730.802 34.7706C730.802 53.979 746.364 69.541 765.572 69.541C765.572 50.3326 750.01 34.7706 730.802 34.7706Z" fill="#A3A274"/>
<path d="M730.802 34.7706C711.593 34.7706 696.031 50.3326 696.031 69.541C715.24 69.541 730.802 53.979 730.802 34.7706Z" fill="#898949"/>
<path d="M591.72 34.7706C610.928 34.7706 626.49 50.3326 626.49 69.541L626.49 0.000105292C626.49 19.2085 610.928 34.7706 591.72 34.7706Z" fill="#A3A274"/>
<path d="M591.72 34.7706C572.511 34.7706 556.949 19.2085 556.949 0.000106812L556.949 69.541C556.949 50.3326 572.511 34.7706 591.72 34.7706Z" fill="#8C7544"/>
<path d="M591.72 34.7705C591.72 15.5621 607.282 4.35763e-05 626.49 4.27366e-05L556.949 4.57764e-05C576.158 4.49367e-05 591.72 15.5621 591.72 34.7705Z" fill="#898949"/>
<path d="M626.49 4.42565e-05C607.282 4.50961e-05 591.72 15.5621 591.72 34.7705C610.928 34.7705 626.49 19.2084 626.49 4.42565e-05Z" fill="#8C7544"/>
<path d="M591.72 34.7705C591.72 15.5621 576.158 4.49367e-05 556.949 4.57764e-05C556.949 19.2084 572.511 34.7705 591.72 34.7705Z" fill="#DDD0BC"/>
<path d="M591.72 34.7706C591.72 53.979 576.158 69.541 556.949 69.541L626.49 69.541C607.282 69.541 591.72 53.979 591.72 34.7706Z" fill="#513F1E"/>
<path d="M591.72 34.7706C591.72 53.979 607.282 69.541 626.49 69.541C626.49 50.3326 610.928 34.7706 591.72 34.7706Z" fill="#DDD0BC"/>
<path d="M591.72 34.7706C572.511 34.7706 556.949 50.3326 556.949 69.541C576.158 69.541 591.72 53.979 591.72 34.7706Z" fill="#898949"/>
<path d="M869.884 34.7706C889.092 34.7706 904.654 50.3326 904.654 69.541L904.654 9.00329e-05C904.654 19.2085 889.092 34.7706 869.884 34.7706Z" fill="#A3A274"/>
<path d="M869.884 34.7706C850.675 34.7706 835.113 19.2085 835.113 9.15527e-05L835.113 69.541C835.113 50.3326 850.675 34.7706 869.884 34.7706Z" fill="#DDD0BC"/>
<path d="M869.884 34.7705C869.884 15.5621 885.446 3.59469e-05 904.654 3.51072e-05L835.113 3.8147e-05C854.322 3.73073e-05 869.884 15.5621 869.884 34.7705Z" fill="#513F1E"/>
<path d="M904.654 3.66271e-05C885.446 3.74667e-05 869.884 15.5621 869.884 34.7705C889.092 34.7705 904.654 19.2084 904.654 3.66271e-05Z" fill="#DDD0BC"/>
<path d="M869.884 34.7705C869.884 15.5621 854.322 3.73073e-05 835.113 3.8147e-05C835.113 19.2084 850.675 34.7705 869.884 34.7705Z" fill="#555B1F"/>
<path d="M869.884 34.7706C869.884 53.979 854.322 69.541 835.113 69.541L904.654 69.541C885.446 69.541 869.884 53.979 869.884 34.7706Z" fill="#513F1E"/>
<path d="M869.884 34.7706C869.884 53.979 885.446 69.541 904.654 69.541C904.654 50.3326 889.092 34.7706 869.884 34.7706Z" fill="#555B1F"/>
<path d="M869.884 34.7706C850.675 34.7706 835.113 50.3326 835.113 69.541C854.322 69.541 869.884 53.979 869.884 34.7706Z" fill="#898949"/>
<path d="M104.934 34.7706C124.142 34.7706 139.704 50.3326 139.704 69.541L139.704 9.00329e-05C139.704 19.2085 124.142 34.7706 104.934 34.7706Z" fill="#A3A274"/>
<path d="M104.934 34.7706C85.7251 34.7706 70.1631 19.2085 70.1631 9.15527e-05L70.1631 69.541C70.1631 50.3326 85.7251 34.7706 104.934 34.7706Z" fill="#8C7544"/>
<path d="M104.934 34.7705C104.934 15.5621 120.496 3.59469e-05 139.704 3.51072e-05L70.1631 3.8147e-05C89.3715 3.73073e-05 104.934 15.5621 104.934 34.7705Z" fill="#8C7544"/>
<path d="M139.704 3.66271e-05C120.496 3.74667e-05 104.934 15.5621 104.934 34.7705C124.142 34.7705 139.704 19.2084 139.704 3.66271e-05Z" fill="#DDD0BC"/>
<path d="M104.934 34.7705C104.934 15.5621 89.3715 3.73073e-05 70.1631 3.8147e-05C70.1631 19.2084 85.7251 34.7705 104.934 34.7705Z" fill="#513F1E"/>
<path d="M104.934 34.7706C104.934 53.979 89.3715 69.541 70.1631 69.541L139.704 69.541C120.496 69.541 104.934 53.979 104.934 34.7706Z" fill="#DDD0BC"/>
<path d="M104.934 34.7706C104.934 53.979 120.496 69.541 139.704 69.541C139.704 50.3326 124.142 34.7706 104.934 34.7706Z" fill="#898949"/>
<path d="M104.934 34.7706C85.7251 34.7706 70.1631 50.3326 70.1631 69.541C89.3715 69.541 104.934 53.979 104.934 34.7706Z" fill="#555B1F"/>
<path d="M244.016 34.7706C263.224 34.7706 278.786 50.3326 278.786 69.541L278.786 9.00329e-05C278.786 19.2085 263.224 34.7706 244.016 34.7706Z" fill="#555B1F"/>
<path d="M244.016 34.7706C224.807 34.7706 209.245 19.2085 209.245 9.15527e-05L209.245 69.541C209.245 50.3326 224.807 34.7706 244.016 34.7706Z" fill="#DDD0BC"/>
<path d="M244.016 34.7705C244.016 15.5621 259.578 3.59469e-05 278.786 3.51072e-05L209.245 3.8147e-05C228.454 3.73073e-05 244.016 15.5621 244.016 34.7705Z" fill="#8C7544"/>
<path d="M278.786 3.66271e-05C259.578 3.74667e-05 244.016 15.5621 244.016 34.7705C263.224 34.7705 278.786 19.2084 278.786 3.66271e-05Z" fill="#DDD0BC"/>
<path d="M244.016 34.7705C244.016 15.5621 228.454 3.73073e-05 209.245 3.8147e-05C209.245 19.2084 224.807 34.7705 244.016 34.7705Z" fill="#555B1F"/>
<path d="M244.016 34.7706C244.016 53.979 228.454 69.541 209.245 69.541L278.786 69.541C259.578 69.541 244.016 53.979 244.016 34.7706Z" fill="#DDD0BC"/>
<path d="M244.016 34.7706C244.016 53.979 259.578 69.541 278.786 69.541C278.786 50.3326 263.224 34.7706 244.016 34.7706Z" fill="#8C7544"/>
<path d="M244.016 34.7706C224.807 34.7706 209.245 50.3326 209.245 69.541C228.454 69.541 244.016 53.979 244.016 34.7706Z" fill="#A3A274"/>
<path d="M174.476 34.7706C193.684 34.7706 209.246 50.3326 209.246 69.541L209.246 9.00329e-05C209.246 19.2085 193.684 34.7706 174.476 34.7706Z" fill="#555B1F"/>
<path d="M174.476 34.7706C155.267 34.7706 139.705 19.2085 139.705 9.15527e-05L139.705 69.541C139.705 50.3326 155.267 34.7706 174.476 34.7706Z" fill="#555B1F"/>
<path d="M174.476 34.7705C174.476 15.5621 190.038 3.59469e-05 209.246 3.51072e-05L139.705 3.8147e-05C158.913 3.73073e-05 174.476 15.5621 174.476 34.7705Z" fill="#898949"/>
<path d="M209.246 3.66271e-05C190.038 3.74667e-05 174.476 15.5621 174.476 34.7705C193.684 34.7705 209.246 19.2084 209.246 3.66271e-05Z" fill="#513F1E"/>
<path d="M174.476 34.7705C174.476 15.5621 158.913 3.73073e-05 139.705 3.8147e-05C139.705 19.2084 155.267 34.7705 174.476 34.7705Z" fill="#A3A274"/>
<path d="M174.476 34.7706C174.476 53.979 158.913 69.541 139.705 69.541L209.246 69.541C190.038 69.541 174.476 53.979 174.476 34.7706Z" fill="#DDD0BC"/>
<path d="M174.476 34.7706C174.476 53.979 190.038 69.541 209.246 69.541C209.246 50.3326 193.684 34.7706 174.476 34.7706Z" fill="#A3A274"/>
<path d="M174.476 34.7706C155.267 34.7706 139.705 50.3326 139.705 69.541C158.913 69.541 174.476 53.979 174.476 34.7706Z" fill="#898949"/>
<path d="M35.3926 34.7706C54.601 34.7706 70.163 50.3326 70.163 69.541L70.163 0.000105292C70.163 19.2085 54.601 34.7706 35.3926 34.7706Z" fill="#A3A274"/>
<path d="M35.3925 34.7706C16.1841 34.7706 0.622068 19.2085 0.622067 0.000106812L0.62207 69.541C0.622069 50.3326 16.1841 34.7706 35.3925 34.7706Z" fill="#8C7544"/>
<path d="M35.3925 34.7705C35.3925 15.5621 50.9546 4.35763e-05 70.163 4.27366e-05L0.622069 4.57764e-05C19.8305 4.49367e-05 35.3925 15.5621 35.3925 34.7705Z" fill="#898949"/>
<path d="M70.163 4.42565e-05C50.9547 4.50961e-05 35.3926 15.5621 35.3926 34.7705C54.601 34.7705 70.163 19.2084 70.163 4.42565e-05Z" fill="#8C7544"/>
<path d="M35.3925 34.7705C35.3925 15.5621 19.8305 4.49367e-05 0.622069 4.57764e-05C0.62207 19.2084 16.1841 34.7705 35.3925 34.7705Z" fill="#DDD0BC"/>
<path d="M35.3925 34.7706C35.3925 53.979 19.8305 69.541 0.62207 69.541L70.163 69.541C50.9546 69.541 35.3925 53.979 35.3925 34.7706Z" fill="#513F1E"/>
<path d="M35.3926 34.7706C35.3926 53.979 50.9547 69.541 70.163 69.541C70.163 50.3326 54.601 34.7706 35.3926 34.7706Z" fill="#DDD0BC"/>
<path d="M35.3925 34.7706C16.1841 34.7706 0.622069 50.3326 0.62207 69.541C19.8305 69.541 35.3925 53.979 35.3925 34.7706Z" fill="#898949"/>
<path d="M313.557 34.7706C332.765 34.7706 348.327 50.3326 348.327 69.541L348.327 9.00329e-05C348.327 19.2085 332.765 34.7706 313.557 34.7706Z" fill="#A3A274"/>
<path d="M313.557 34.7706C294.348 34.7706 278.786 19.2085 278.786 9.15527e-05L278.786 69.541C278.786 50.3326 294.348 34.7706 313.557 34.7706Z" fill="#DDD0BC"/>
<path d="M313.557 34.7705C313.557 15.5621 329.119 3.59469e-05 348.327 3.51072e-05L278.786 3.8147e-05C297.995 3.73073e-05 313.557 15.5621 313.557 34.7705Z" fill="#513F1E"/>
<path d="M348.327 3.66271e-05C329.119 3.74667e-05 313.557 15.5621 313.557 34.7705C332.765 34.7705 348.327 19.2084 348.327 3.66271e-05Z" fill="#DDD0BC"/>
<path d="M313.557 34.7705C313.557 15.5621 297.995 3.73073e-05 278.786 3.8147e-05C278.786 19.2084 294.348 34.7705 313.557 34.7705Z" fill="#555B1F"/>
<path d="M313.557 34.7706C313.557 53.979 297.995 69.541 278.786 69.541L348.327 69.541C329.119 69.541 313.557 53.979 313.557 34.7706Z" fill="#513F1E"/>
<path d="M313.557 34.7706C313.557 53.979 329.119 69.541 348.327 69.541C348.327 50.3326 332.765 34.7706 313.557 34.7706Z" fill="#555B1F"/>
<path d="M313.557 34.7706C294.348 34.7706 278.786 50.3326 278.786 69.541C297.995 69.541 313.557 53.979 313.557 34.7706Z" fill="#898949"/>
<path d="M175.82 104.731C156.612 104.731 141.05 89.1693 141.05 69.9609L141.05 139.502C141.05 120.293 156.612 104.731 175.82 104.731Z" fill="#898949"/>
<path d="M175.82 104.731C195.029 104.731 210.591 120.293 210.591 139.502L210.591 69.9609C210.591 89.1693 195.029 104.731 175.82 104.731Z" fill="#8C7544"/>
<path d="M175.82 104.731C175.82 123.94 160.258 139.502 141.05 139.502L210.591 139.502C191.382 139.502 175.82 123.94 175.82 104.731Z" fill="#513F1E"/>
<path d="M141.05 139.502C160.258 139.502 175.82 123.94 175.82 104.731C156.612 104.731 141.05 120.294 141.05 139.502Z" fill="#8C7544"/>
<path d="M175.82 104.731C175.82 123.94 191.382 139.502 210.591 139.502C210.591 120.294 195.029 104.731 175.82 104.731Z" fill="#DDD0BC"/>
<path d="M175.82 104.731C175.82 85.523 191.382 69.9609 210.591 69.9609L141.05 69.9609C160.258 69.9609 175.82 85.523 175.82 104.731Z" fill="#898949"/>
<path d="M175.82 104.731C175.82 85.523 160.258 69.9609 141.05 69.9609C141.05 89.1693 156.612 104.731 175.82 104.731Z" fill="#8C7544"/>
<path d="M175.82 104.731C195.029 104.731 210.591 89.1693 210.591 69.9609C191.382 69.9609 175.82 85.523 175.82 104.731Z" fill="#555B1F"/>
<path d="M245.361 104.731C226.153 104.731 210.591 89.1693 210.591 69.9609L210.591 139.502C210.591 120.293 226.153 104.731 245.361 104.731Z" fill="#DDD0BC"/>
<path d="M245.361 104.731C264.57 104.731 280.132 120.293 280.132 139.502L280.132 69.9609C280.132 89.1693 264.57 104.731 245.361 104.731Z" fill="#A3A274"/>
<path d="M245.361 104.731C245.361 123.94 229.799 139.502 210.591 139.502L280.132 139.502C260.923 139.502 245.361 123.94 245.361 104.731Z" fill="#555B1F"/>
<path d="M210.591 139.502C229.799 139.502 245.361 123.94 245.361 104.731C226.153 104.731 210.591 120.294 210.591 139.502Z" fill="#8C7544"/>
<path d="M245.361 104.731C245.361 123.94 260.923 139.502 280.132 139.502C280.132 120.294 264.57 104.731 245.361 104.731Z" fill="#513F1E"/>
<path d="M245.361 104.731C245.361 85.523 260.923 69.9609 280.132 69.9609L210.591 69.9609C229.799 69.9609 245.361 85.523 245.361 104.731Z" fill="#A3A274"/>
<path d="M245.361 104.731C245.361 85.523 229.799 69.9609 210.591 69.9609C210.591 89.1693 226.153 104.731 245.361 104.731Z" fill="#8C7544"/>
<path d="M245.361 104.731C264.57 104.731 280.132 89.1693 280.132 69.9609C260.923 69.9609 245.361 85.523 245.361 104.731Z" fill="#DDD0BC"/>
<path d="M314.902 104.731C295.694 104.731 280.132 89.1693 280.132 69.9609L280.132 139.502C280.132 120.293 295.694 104.731 314.902 104.731Z" fill="#8C7544"/>
<path d="M314.902 104.731C334.111 104.731 349.673 120.293 349.673 139.502L349.673 69.9609C349.673 89.1693 334.111 104.731 314.902 104.731Z" fill="#A3A274"/>
<path d="M314.902 104.731C314.902 123.94 299.34 139.502 280.132 139.502L349.673 139.502C330.464 139.502 314.902 123.94 314.902 104.731Z" fill="#898949"/>
<path d="M280.132 139.502C299.34 139.502 314.902 123.94 314.902 104.731C295.694 104.731 280.132 120.294 280.132 139.502Z" fill="#A3A274"/>
<path d="M314.902 104.731C314.902 123.94 330.464 139.502 349.673 139.502C349.673 120.294 334.111 104.731 314.902 104.731Z" fill="#DDD0BC"/>
<path d="M314.902 104.731C314.902 85.523 330.464 69.9609 349.673 69.9609L280.132 69.9609C299.34 69.9609 314.902 85.523 314.902 104.731Z" fill="#DDD0BC"/>
<path d="M314.902 104.731C314.902 85.523 299.34 69.9609 280.132 69.9609C280.132 89.1693 295.694 104.731 314.902 104.731Z" fill="#555B1F"/>
<path d="M314.902 104.731C334.111 104.731 349.673 89.1693 349.673 69.9609C330.464 69.9609 314.902 85.523 314.902 104.731Z" fill="#513F1E"/>
<path d="M36.7393 104.731C17.5309 104.731 1.96881 89.1693 1.9688 69.9609L1.96881 139.502C1.96881 120.293 17.5309 104.731 36.7393 104.731Z" fill="#A3A274"/>
<path d="M36.7393 104.731C55.9477 104.731 71.5098 120.293 71.5098 139.502L71.5098 69.9609C71.5098 89.1693 55.9477 104.731 36.7393 104.731Z" fill="#8C7544"/>
<path d="M36.7393 104.731C36.7393 123.94 21.1773 139.502 1.96886 139.502L71.5098 139.502C52.3014 139.502 36.7393 123.94 36.7393 104.731Z" fill="#8C7544"/>
<path d="M1.96881 139.502C21.1772 139.502 36.7393 123.94 36.7393 104.731C17.5309 104.731 1.96881 120.294 1.96881 139.502Z" fill="#DDD0BC"/>
<path d="M36.7393 104.731C36.7393 123.94 52.3014 139.502 71.5098 139.502C71.5098 120.294 55.9477 104.731 36.7393 104.731Z" fill="#513F1E"/>
<path d="M36.7393 104.731C36.7393 85.523 52.3014 69.9609 71.5098 69.9609L1.96886 69.9609C21.1772 69.9609 36.7393 85.523 36.7393 104.731Z" fill="#DDD0BC"/>
<path d="M36.7393 104.731C36.7393 85.523 21.1772 69.9609 1.9688 69.9609C1.96881 89.1693 17.5309 104.731 36.7393 104.731Z" fill="#898949"/>
<path d="M36.7393 104.731C55.9477 104.731 71.5098 89.1693 71.5098 69.9609C52.3014 69.9609 36.7393 85.523 36.7393 104.731Z" fill="#555B1F"/>
<path d="M106.279 104.731C87.0709 104.731 71.5088 89.1693 71.5088 69.9609L71.5088 139.502C71.5088 120.293 87.0709 104.731 106.279 104.731Z" fill="#A3A274"/>
<path d="M106.279 104.731C125.488 104.731 141.05 120.293 141.05 139.502L141.05 69.9609C141.05 89.1693 125.488 104.731 106.279 104.731Z" fill="#8C7544"/>
<path d="M106.279 104.731C106.279 123.94 90.7173 139.502 71.5089 139.502L141.05 139.502C121.841 139.502 106.279 123.94 106.279 104.731Z" fill="#898949"/>
<path d="M71.5088 139.502C90.7172 139.502 106.279 123.94 106.279 104.731C87.0709 104.731 71.5088 120.294 71.5088 139.502Z" fill="#8C7544"/>
<path d="M106.279 104.731C106.279 123.94 121.841 139.502 141.05 139.502C141.05 120.294 125.488 104.731 106.279 104.731Z" fill="#DDD0BC"/>
<path d="M106.279 104.731C106.279 85.523 121.841 69.9609 141.05 69.9609L71.5089 69.9609C90.7173 69.9609 106.279 85.523 106.279 104.731Z" fill="#513F1E"/>
<path d="M106.279 104.731C106.279 85.523 90.7172 69.9609 71.5088 69.9609C71.5088 89.1693 87.0709 104.731 106.279 104.731Z" fill="#DDD0BC"/>
<path d="M106.279 104.731C125.488 104.731 141.05 89.1693 141.05 69.9609C121.841 69.9609 106.279 85.523 106.279 104.731Z" fill="#898949"/>
<path d="M732.147 104.731C712.939 104.731 697.377 89.1693 697.377 69.9609L697.377 139.502C697.377 120.293 712.939 104.731 732.147 104.731Z" fill="#898949"/>
<path d="M732.148 104.731C751.356 104.731 766.918 120.293 766.918 139.502L766.918 69.9609C766.918 89.1693 751.356 104.731 732.148 104.731Z" fill="#8C7544"/>
<path d="M732.148 104.731C732.148 123.94 716.585 139.502 697.377 139.502L766.918 139.502C747.71 139.502 732.148 123.94 732.148 104.731Z" fill="#513F1E"/>
<path d="M697.377 139.502C716.585 139.502 732.147 123.94 732.147 104.731C712.939 104.731 697.377 120.294 697.377 139.502Z" fill="#8C7544"/>
<path d="M732.148 104.731C732.148 123.94 747.71 139.502 766.918 139.502C766.918 120.294 751.356 104.731 732.148 104.731Z" fill="#DDD0BC"/>
<path d="M732.148 104.731C732.148 85.523 747.71 69.9609 766.918 69.9609L697.377 69.9609C716.585 69.9609 732.148 85.523 732.148 104.731Z" fill="#898949"/>
<path d="M732.147 104.731C732.147 85.523 716.585 69.9609 697.377 69.9609C697.377 89.1693 712.939 104.731 732.147 104.731Z" fill="#8C7544"/>
<path d="M732.148 104.731C751.356 104.731 766.918 89.1693 766.918 69.9609C747.71 69.9609 732.148 85.523 732.148 104.731Z" fill="#555B1F"/>
<path d="M801.688 104.731C782.48 104.731 766.918 89.1693 766.918 69.9609L766.918 139.502C766.918 120.293 782.48 104.731 801.688 104.731Z" fill="#DDD0BC"/>
<path d="M801.689 104.731C820.897 104.731 836.459 120.293 836.459 139.502L836.459 69.9609C836.459 89.1693 820.897 104.731 801.689 104.731Z" fill="#A3A274"/>
<path d="M801.689 104.731C801.689 123.94 786.126 139.502 766.918 139.502L836.459 139.502C817.251 139.502 801.689 123.94 801.689 104.731Z" fill="#555B1F"/>
<path d="M766.918 139.502C786.126 139.502 801.688 123.94 801.688 104.731C782.48 104.731 766.918 120.294 766.918 139.502Z" fill="#8C7544"/>
<path d="M801.689 104.731C801.689 123.94 817.251 139.502 836.459 139.502C836.459 120.294 820.897 104.731 801.689 104.731Z" fill="#513F1E"/>
<path d="M801.689 104.731C801.689 85.523 817.251 69.9609 836.459 69.9609L766.918 69.9609C786.126 69.9609 801.689 85.523 801.689 104.731Z" fill="#A3A274"/>
<path d="M801.688 104.731C801.688 85.523 786.126 69.9609 766.918 69.9609C766.918 89.1693 782.48 104.731 801.688 104.731Z" fill="#8C7544"/>
<path d="M801.689 104.731C820.897 104.731 836.459 89.1693 836.459 69.9609C817.251 69.9609 801.689 85.523 801.689 104.731Z" fill="#DDD0BC"/>
<path d="M871.229 104.731C852.021 104.731 836.459 89.1693 836.459 69.9609L836.459 139.502C836.459 120.293 852.021 104.731 871.229 104.731Z" fill="#8C7544"/>
<path d="M871.23 104.731C890.438 104.731 906 120.293 906 139.502L906 69.9609C906 89.1693 890.438 104.731 871.23 104.731Z" fill="#A3A274"/>
<path d="M871.23 104.731C871.23 123.94 855.667 139.502 836.459 139.502L906 139.502C886.792 139.502 871.23 123.94 871.23 104.731Z" fill="#898949"/>
<path d="M836.459 139.502C855.667 139.502 871.229 123.94 871.229 104.731C852.021 104.731 836.459 120.294 836.459 139.502Z" fill="#A3A274"/>
<path d="M871.23 104.731C871.23 123.94 886.792 139.502 906 139.502C906 120.294 890.438 104.731 871.23 104.731Z" fill="#DDD0BC"/>
<path d="M871.23 104.731C871.23 85.523 886.792 69.9609 906 69.9609L836.459 69.9609C855.667 69.9609 871.23 85.523 871.23 104.731Z" fill="#DDD0BC"/>
<path d="M871.229 104.731C871.229 85.523 855.667 69.9609 836.459 69.9609C836.459 89.1693 852.021 104.731 871.229 104.731Z" fill="#555B1F"/>
<path d="M871.23 104.731C890.438 104.731 906 89.1693 906 69.9609C886.792 69.9609 871.23 85.523 871.23 104.731Z" fill="#513F1E"/>
<path d="M593.066 104.731C573.858 104.731 558.296 89.1693 558.296 69.9609L558.296 139.502C558.296 120.293 573.858 104.731 593.066 104.731Z" fill="#A3A274"/>
<path d="M593.066 104.731C612.275 104.731 627.837 120.293 627.837 139.502L627.837 69.9609C627.837 89.1693 612.275 104.731 593.066 104.731Z" fill="#8C7544"/>
<path d="M593.066 104.731C593.066 123.94 577.504 139.502 558.296 139.502L627.837 139.502C608.629 139.502 593.066 123.94 593.066 104.731Z" fill="#8C7544"/>
<path d="M558.296 139.502C577.504 139.502 593.066 123.94 593.066 104.731C573.858 104.731 558.296 120.294 558.296 139.502Z" fill="#DDD0BC"/>
<path d="M593.066 104.731C593.066 123.94 608.629 139.502 627.837 139.502C627.837 120.294 612.275 104.731 593.066 104.731Z" fill="#513F1E"/>
<path d="M593.066 104.731C593.066 85.523 608.629 69.9609 627.837 69.9609L558.296 69.9609C577.504 69.9609 593.066 85.523 593.066 104.731Z" fill="#DDD0BC"/>
<path d="M593.066 104.731C593.066 85.523 577.504 69.9609 558.296 69.9609C558.296 89.1693 573.858 104.731 593.066 104.731Z" fill="#898949"/>
<path d="M593.066 104.731C612.275 104.731 627.837 89.1693 627.837 69.9609C608.629 69.9609 593.066 85.523 593.066 104.731Z" fill="#555B1F"/>
<path d="M453.983 104.731C434.775 104.731 419.213 89.1693 419.213 69.9609L419.213 139.502C419.213 120.293 434.775 104.731 453.983 104.731Z" fill="#555B1F"/>
<path d="M453.983 104.731C473.192 104.731 488.754 120.293 488.754 139.502L488.754 69.9609C488.754 89.1693 473.192 104.731 453.983 104.731Z" fill="#DDD0BC"/>
<path d="M453.983 104.731C453.983 123.94 438.421 139.502 419.213 139.502L488.754 139.502C469.546 139.502 453.983 123.94 453.983 104.731Z" fill="#8C7544"/>
<path d="M419.213 139.502C438.421 139.502 453.983 123.94 453.983 104.731C434.775 104.731 419.213 120.294 419.213 139.502Z" fill="#DDD0BC"/>
<path d="M453.983 104.731C453.983 123.94 469.546 139.502 488.754 139.502C488.754 120.294 473.192 104.731 453.983 104.731Z" fill="#555B1F"/>
<path d="M453.983 104.731C453.983 85.523 469.546 69.9609 488.754 69.9609L419.213 69.9609C438.421 69.9609 453.983 85.523 453.983 104.731Z" fill="#DDD0BC"/>
<path d="M453.983 104.731C453.983 85.523 438.421 69.9609 419.213 69.9609C419.213 89.1693 434.775 104.731 453.983 104.731Z" fill="#8C7544"/>
<path d="M453.983 104.731C473.192 104.731 488.754 89.1693 488.754 69.9609C469.546 69.9609 453.983 85.523 453.983 104.731Z" fill="#A3A274"/>
<path d="M523.524 104.731C504.316 104.731 488.754 89.1693 488.754 69.9609L488.754 139.502C488.754 120.293 504.316 104.731 523.524 104.731Z" fill="#555B1F"/>
<path d="M523.524 104.731C542.733 104.731 558.295 120.293 558.295 139.502L558.295 69.9609C558.295 89.1693 542.733 104.731 523.524 104.731Z" fill="#555B1F"/>
<path d="M523.524 104.731C523.524 123.94 507.962 139.502 488.754 139.502L558.295 139.502C539.087 139.502 523.524 123.94 523.524 104.731Z" fill="#898949"/>
<path d="M488.754 139.502C507.962 139.502 523.524 123.94 523.524 104.731C504.316 104.731 488.754 120.294 488.754 139.502Z" fill="#513F1E"/>
<path d="M523.524 104.731C523.524 123.94 539.087 139.502 558.295 139.502C558.295 120.294 542.733 104.731 523.524 104.731Z" fill="#A3A274"/>
<path d="M523.524 104.731C523.524 85.523 539.087 69.9609 558.295 69.9609L488.754 69.9609C507.962 69.9609 523.524 85.523 523.524 104.731Z" fill="#DDD0BC"/>
<path d="M523.524 104.731C523.524 85.523 507.962 69.9609 488.754 69.9609C488.754 89.1693 504.316 104.731 523.524 104.731Z" fill="#A3A274"/>
<path d="M523.524 104.731C542.733 104.731 558.295 89.1693 558.295 69.9609C539.087 69.9609 523.524 85.523 523.524 104.731Z" fill="#898949"/>
<path d="M662.607 104.731C643.399 104.731 627.837 89.1693 627.837 69.9609L627.837 139.502C627.837 120.293 643.399 104.731 662.607 104.731Z" fill="#A3A274"/>
<path d="M662.607 104.731C681.816 104.731 697.378 120.293 697.378 139.502L697.378 69.9609C697.378 89.1693 681.816 104.731 662.607 104.731Z" fill="#8C7544"/>
<path d="M662.607 104.731C662.607 123.94 647.045 139.502 627.837 139.502L697.378 139.502C678.17 139.502 662.607 123.94 662.607 104.731Z" fill="#898949"/>
<path d="M627.837 139.502C647.045 139.502 662.607 123.94 662.607 104.731C643.399 104.731 627.837 120.294 627.837 139.502Z" fill="#8C7544"/>
<path d="M662.607 104.731C662.607 123.94 678.17 139.502 697.378 139.502C697.378 120.294 681.816 104.731 662.607 104.731Z" fill="#DDD0BC"/>
<path d="M662.607 104.731C662.607 85.523 678.17 69.9609 697.378 69.9609L627.837 69.9609C647.045 69.9609 662.607 85.523 662.607 104.731Z" fill="#513F1E"/>
<path d="M662.607 104.731C662.607 85.523 647.045 69.9609 627.837 69.9609C627.837 89.1693 643.399 104.731 662.607 104.731Z" fill="#DDD0BC"/>
<path d="M662.607 104.731C681.816 104.731 697.378 89.1693 697.378 69.9609C678.17 69.9609 662.607 85.523 662.607 104.731Z" fill="#898949"/>
<path d="M384.442 104.731C365.234 104.731 349.672 89.1693 349.672 69.9609L349.672 139.502C349.672 120.293 365.234 104.731 384.442 104.731Z" fill="#A3A274"/>
<path d="M384.442 104.731C403.651 104.731 419.213 120.293 419.213 139.502L419.213 69.9609C419.213 89.1693 403.651 104.731 384.442 104.731Z" fill="#DDD0BC"/>
<path d="M384.442 104.731C384.442 123.94 368.88 139.502 349.672 139.502L419.213 139.502C400.004 139.502 384.442 123.94 384.442 104.731Z" fill="#513F1E"/>
<path d="M349.672 139.502C368.88 139.502 384.442 123.94 384.442 104.731C365.234 104.731 349.672 120.294 349.672 139.502Z" fill="#DDD0BC"/>
<path d="M384.442 104.731C384.442 123.94 400.004 139.502 419.213 139.502C419.213 120.294 403.651 104.731 384.442 104.731Z" fill="#555B1F"/>
<path d="M384.442 104.731C384.442 85.523 400.004 69.9609 419.213 69.9609L349.672 69.9609C368.88 69.9609 384.442 85.523 384.442 104.731Z" fill="#513F1E"/>
<path d="M384.442 104.731C384.442 85.523 368.88 69.9609 349.672 69.9609C349.672 89.1693 365.234 104.731 384.442 104.731Z" fill="#555B1F"/>
<path d="M384.442 104.731C403.651 104.731 419.213 89.1693 419.213 69.9609C400.004 69.9609 384.442 85.523 384.442 104.731Z" fill="#898949"/>
<rect x="208" y="54" width="697" height="219" fill="#555D28"/>
<path d="M305.161 184L311.034 170.532H335.62L341.492 184H348.148L323.405 127.467L298.74 184H305.161ZM323.327 141.718L333.192 164.895H313.461L323.327 141.718ZM364.213 184V162.389H376.506H376.584L388.877 184H395.846L382.692 161.215C388.956 158.787 393.105 152.915 393.105 145.711C393.105 141.092 391.539 137.177 388.329 134.123C385.119 130.991 381.282 129.425 376.741 129.425H358.105V184H364.213ZM364.213 135.063H376.506C382.535 135.063 386.998 139.682 386.998 145.711C386.998 148.922 385.98 151.506 383.866 153.62C381.83 155.734 379.246 156.752 376.114 156.752H364.213V135.063ZM458.912 156.752C458.912 148.687 456.172 141.953 450.613 136.55C445.132 131.148 438.398 128.407 430.489 128.407C422.581 128.407 415.847 131.148 410.288 136.55C404.807 141.953 402.067 148.687 402.067 156.752C402.067 164.817 404.807 171.629 410.288 177.031C415.847 182.434 422.581 185.096 430.489 185.096C436.205 185.096 441.373 183.608 446.071 180.633L448.812 184H456.094L450.456 177.188C456.094 171.785 458.912 164.973 458.912 156.752ZM430.489 179.459C424.069 179.459 418.744 177.345 414.438 173.038C410.21 168.732 408.096 163.25 408.096 156.752C408.096 150.253 410.21 144.85 414.438 140.544C418.744 136.237 424.069 134.045 430.489 134.045C436.91 134.045 442.234 136.237 446.463 140.544C450.691 144.85 452.805 150.253 452.805 156.752C452.805 163.094 450.769 168.418 446.698 172.725L436.519 160.51H429.315L442.391 176.248C438.868 178.362 434.874 179.459 430.489 179.459ZM469.429 164.895C469.429 171.315 471.308 176.248 475.067 179.772C478.825 183.217 483.758 184.94 489.865 184.94C495.973 184.94 500.906 183.217 504.664 179.772C508.422 176.248 510.302 171.315 510.302 164.895V129.425H504.194V164.268C504.194 174.056 498.713 179.302 489.865 179.302C481.017 179.302 475.536 174.056 475.536 164.268V129.425H469.429V164.895ZM530.761 184V129.425H524.653V184H530.761ZM561.574 184V135.063H576.451V129.425H540.59V135.063H555.467V184H561.574ZM617.369 184V178.362H592.078V158.004H615.333V152.367H592.078V135.063H616.821V129.425H585.971V184H617.369ZM645.074 184V135.063H659.951V129.425H624.089V135.063H638.966V184H645.074ZM669.079 164.895C669.079 171.315 670.958 176.248 674.716 179.772C678.475 183.217 683.408 184.94 689.515 184.94C695.622 184.94 700.555 183.217 704.314 179.772C708.072 176.248 709.951 171.315 709.951 164.895V129.425H703.844V164.268C703.844 174.056 698.363 179.302 689.515 179.302C680.667 179.302 675.186 174.056 675.186 164.268V129.425H669.079V164.895ZM730.097 184V162.389H742.39H742.468L754.762 184H761.73L748.576 161.215C754.84 158.787 758.99 152.915 758.99 145.711C758.99 141.092 757.424 137.177 754.213 134.123C751.003 130.991 747.166 129.425 742.625 129.425H723.99V184H730.097ZM730.097 135.063H742.39C748.419 135.063 752.882 139.682 752.882 145.711C752.882 148.922 751.864 151.506 749.75 153.62C747.715 155.734 745.131 156.752 741.999 156.752H730.097V135.063ZM771.902 184L777.775 170.532H802.361L808.234 184H814.889L790.146 127.467L765.482 184H771.902ZM790.068 141.718L799.934 164.895H780.202L790.068 141.718Z" fill="#BDC694"/>
</svg>
