<svg width="827" height="52" viewBox="0 0 827 52" fill="none" xmlns="http://www.w3.org/2000/svg">
<path d="M542.719 25.8438C556.996 25.8438 568.562 37.4105 568.562 51.6875L568.562 -1.12967e-06C568.562 14.277 556.996 25.8438 542.719 25.8438Z" fill="#898949"/>
<path d="M542.719 25.8438C528.442 25.8438 516.875 14.277 516.875 0L516.875 51.6875C516.875 37.4105 528.442 25.8438 542.719 25.8438Z" fill="#8C7544"/>
<path d="M542.719 25.8437C542.719 11.5668 554.286 -7.35731e-06 568.562 -7.98138e-06L516.875 -5.72205e-06C531.152 -6.34611e-06 542.719 11.5668 542.719 25.8437Z" fill="#513F1E"/>
<path d="M568.562 -6.85171e-06C554.286 -6.22765e-06 542.719 11.5668 542.719 25.8438C556.996 25.8437 568.562 14.277 568.562 -6.85171e-06Z" fill="#8C7544"/>
<path d="M542.719 25.8437C542.719 11.5668 531.152 -6.34611e-06 516.875 -5.72205e-06C516.875 14.277 528.442 25.8437 542.719 25.8437Z" fill="#DDD0BC"/>
<path d="M542.719 25.8438C542.719 40.1207 531.152 51.6875 516.875 51.6875L568.562 51.6875C554.286 51.6875 542.719 40.1207 542.719 25.8438Z" fill="#898949"/>
<path d="M542.719 25.8438C542.719 40.1207 554.286 51.6875 568.562 51.6875C568.562 37.4105 556.996 25.8438 542.719 25.8438Z" fill="#8C7544"/>
<path d="M542.719 25.8438C528.442 25.8438 516.875 37.4105 516.875 51.6875C531.152 51.6875 542.719 40.1207 542.719 25.8438Z" fill="#555B1F"/>
<path d="M491.031 25.8438C505.308 25.8438 516.875 37.4105 516.875 51.6875L516.875 -1.12967e-06C516.875 14.277 505.308 25.8438 491.031 25.8438Z" fill="#DDD0BC"/>
<path d="M491.031 25.8438C476.754 25.8438 465.187 14.277 465.187 0L465.188 51.6875C465.187 37.4105 476.754 25.8438 491.031 25.8438Z" fill="#A3A274"/>
<path d="M491.031 25.8437C491.031 11.5668 502.598 -7.35731e-06 516.875 -7.98138e-06L465.187 -5.72205e-06C479.464 -6.34611e-06 491.031 11.5668 491.031 25.8437Z" fill="#555B1F"/>
<path d="M516.875 -6.85171e-06C502.598 -6.22765e-06 491.031 11.5668 491.031 25.8438C505.308 25.8437 516.875 14.277 516.875 -6.85171e-06Z" fill="#8C7544"/>
<path d="M491.031 25.8437C491.031 11.5668 479.464 -6.34611e-06 465.187 -5.72205e-06C465.187 14.277 476.754 25.8437 491.031 25.8437Z" fill="#513F1E"/>
<path d="M491.031 25.8438C491.031 40.1207 479.464 51.6875 465.188 51.6875L516.875 51.6875C502.598 51.6875 491.031 40.1207 491.031 25.8438Z" fill="#A3A274"/>
<path d="M491.031 25.8438C491.031 40.1207 502.598 51.6875 516.875 51.6875C516.875 37.4105 505.308 25.8438 491.031 25.8438Z" fill="#8C7544"/>
<path d="M491.031 25.8438C476.754 25.8438 465.187 37.4105 465.188 51.6875C479.464 51.6875 491.031 40.1207 491.031 25.8438Z" fill="#DDD0BC"/>
<path d="M439.344 25.8438C453.621 25.8438 465.187 37.4105 465.188 51.6875L465.187 -1.12967e-06C465.187 14.277 453.621 25.8438 439.344 25.8438Z" fill="#8C7544"/>
<path d="M439.344 25.8438C425.067 25.8438 413.5 14.277 413.5 0L413.5 51.6875C413.5 37.4105 425.067 25.8438 439.344 25.8438Z" fill="#A3A274"/>
<path d="M439.344 25.8437C439.344 11.5668 450.911 -7.35731e-06 465.187 -7.98138e-06L413.5 -5.72205e-06C427.777 -6.34611e-06 439.344 11.5668 439.344 25.8437Z" fill="#898949"/>
<path d="M465.187 -6.85171e-06C450.911 -6.22765e-06 439.344 11.5668 439.344 25.8438C453.621 25.8437 465.187 14.277 465.187 -6.85171e-06Z" fill="#A3A274"/>
<path d="M439.344 25.8437C439.344 11.5668 427.777 -6.34611e-06 413.5 -5.72205e-06C413.5 14.277 425.067 25.8437 439.344 25.8437Z" fill="#DDD0BC"/>
<path d="M439.344 25.8438C439.344 40.1207 427.777 51.6875 413.5 51.6875L465.188 51.6875C450.911 51.6875 439.344 40.1207 439.344 25.8438Z" fill="#DDD0BC"/>
<path d="M439.344 25.8438C439.344 40.1207 450.911 51.6875 465.188 51.6875C465.187 37.4105 453.621 25.8438 439.344 25.8438Z" fill="#555B1F"/>
<path d="M439.344 25.8438C425.067 25.8438 413.5 37.4105 413.5 51.6875C427.777 51.6875 439.344 40.1207 439.344 25.8438Z" fill="#513F1E"/>
<path d="M646.094 25.8438C660.371 25.8438 671.937 37.4105 671.938 51.6875L671.937 -1.25738e-05C671.937 14.277 660.371 25.8438 646.094 25.8438Z" fill="#A3A274"/>
<path d="M646.094 25.8438C631.817 25.8438 620.25 14.277 620.25 -1.14441e-05L620.25 51.6875C620.25 37.4105 631.817 25.8438 646.094 25.8438Z" fill="#8C7544"/>
<path d="M646.094 25.8437C646.094 11.5668 657.661 -1.30794e-05 671.937 -1.37034e-05L620.25 -1.14441e-05C634.527 -1.20682e-05 646.094 11.5668 646.094 25.8437Z" fill="#8C7544"/>
<path d="M671.937 -1.25738e-05C657.661 -1.19497e-05 646.094 11.5668 646.094 25.8438C660.371 25.8437 671.937 14.277 671.937 -1.25738e-05Z" fill="#DDD0BC"/>
<path d="M646.094 25.8437C646.094 11.5668 634.527 -1.20682e-05 620.25 -1.14441e-05C620.25 14.277 631.817 25.8437 646.094 25.8437Z" fill="#513F1E"/>
<path d="M646.094 25.8437C646.094 40.1207 634.527 51.6875 620.25 51.6875L671.938 51.6875C657.661 51.6875 646.094 40.1207 646.094 25.8437Z" fill="#DDD0BC"/>
<path d="M646.094 25.8438C646.094 40.1207 657.661 51.6875 671.938 51.6875C671.937 37.4105 660.371 25.8437 646.094 25.8438Z" fill="#898949"/>
<path d="M646.094 25.8437C631.817 25.8437 620.25 37.4105 620.25 51.6875C634.527 51.6875 646.094 40.1207 646.094 25.8437Z" fill="#555B1F"/>
<path d="M749.469 25.8438C763.746 25.8438 775.312 37.4105 775.312 51.6875L775.312 -1.25738e-05C775.312 14.277 763.746 25.8438 749.469 25.8438Z" fill="#555B1F"/>
<path d="M749.469 25.8438C735.192 25.8438 723.625 14.277 723.625 -1.14441e-05L723.625 51.6875C723.625 37.4105 735.192 25.8438 749.469 25.8438Z" fill="#DDD0BC"/>
<path d="M749.469 25.8437C749.469 11.5668 761.036 -1.30794e-05 775.312 -1.37034e-05L723.625 -1.14441e-05C737.902 -1.20682e-05 749.469 11.5668 749.469 25.8437Z" fill="#8C7544"/>
<path d="M775.312 -1.25738e-05C761.036 -1.19497e-05 749.469 11.5668 749.469 25.8438C763.746 25.8437 775.312 14.277 775.312 -1.25738e-05Z" fill="#DDD0BC"/>
<path d="M749.469 25.8437C749.469 11.5668 737.902 -1.20682e-05 723.625 -1.14441e-05C723.625 14.277 735.192 25.8437 749.469 25.8437Z" fill="#555B1F"/>
<path d="M749.469 25.8437C749.469 40.1207 737.902 51.6875 723.625 51.6875L775.312 51.6875C761.036 51.6875 749.469 40.1207 749.469 25.8437Z" fill="#DDD0BC"/>
<path d="M749.469 25.8438C749.469 40.1207 761.036 51.6875 775.312 51.6875C775.312 37.4105 763.746 25.8437 749.469 25.8438Z" fill="#8C7544"/>
<path d="M749.469 25.8437C735.192 25.8437 723.625 37.4105 723.625 51.6875C737.902 51.6875 749.469 40.1207 749.469 25.8437Z" fill="#A3A274"/>
<path d="M697.781 25.8438C712.058 25.8438 723.625 37.4105 723.625 51.6875L723.625 -1.25738e-05C723.625 14.277 712.058 25.8438 697.781 25.8438Z" fill="#555B1F"/>
<path d="M697.781 25.8438C683.504 25.8438 671.937 14.277 671.937 -1.14441e-05L671.938 51.6875C671.937 37.4105 683.504 25.8438 697.781 25.8438Z" fill="#555B1F"/>
<path d="M697.781 25.8437C697.781 11.5668 709.348 -1.30794e-05 723.625 -1.37034e-05L671.937 -1.14441e-05C686.214 -1.20682e-05 697.781 11.5668 697.781 25.8437Z" fill="#898949"/>
<path d="M723.625 -1.25738e-05C709.348 -1.19497e-05 697.781 11.5668 697.781 25.8438C712.058 25.8437 723.625 14.277 723.625 -1.25738e-05Z" fill="#513F1E"/>
<path d="M697.781 25.8437C697.781 11.5668 686.214 -1.20682e-05 671.937 -1.14441e-05C671.937 14.277 683.504 25.8437 697.781 25.8437Z" fill="#A3A274"/>
<path d="M697.781 25.8437C697.781 40.1207 686.214 51.6875 671.938 51.6875L723.625 51.6875C709.348 51.6875 697.781 40.1207 697.781 25.8437Z" fill="#DDD0BC"/>
<path d="M697.781 25.8438C697.781 40.1207 709.348 51.6875 723.625 51.6875C723.625 37.4105 712.058 25.8437 697.781 25.8438Z" fill="#A3A274"/>
<path d="M697.781 25.8437C683.504 25.8437 671.937 37.4105 671.938 51.6875C686.214 51.6875 697.781 40.1207 697.781 25.8437Z" fill="#898949"/>
<path d="M594.406 25.8438C608.683 25.8438 620.25 37.4105 620.25 51.6875L620.25 -1.12967e-06C620.25 14.277 608.683 25.8438 594.406 25.8438Z" fill="#A3A274"/>
<path d="M594.406 25.8438C580.129 25.8438 568.562 14.277 568.562 0L568.562 51.6875C568.562 37.4105 580.129 25.8438 594.406 25.8438Z" fill="#8C7544"/>
<path d="M594.406 25.8437C594.406 11.5668 605.973 -7.35731e-06 620.25 -7.98138e-06L568.562 -5.72205e-06C582.839 -6.34611e-06 594.406 11.5668 594.406 25.8437Z" fill="#898949"/>
<path d="M620.25 -6.85171e-06C605.973 -6.22765e-06 594.406 11.5668 594.406 25.8438C608.683 25.8437 620.25 14.277 620.25 -6.85171e-06Z" fill="#8C7544"/>
<path d="M594.406 25.8437C594.406 11.5668 582.839 -6.34611e-06 568.562 -5.72205e-06C568.562 14.277 580.129 25.8437 594.406 25.8437Z" fill="#DDD0BC"/>
<path d="M594.406 25.8438C594.406 40.1207 582.839 51.6875 568.562 51.6875L620.25 51.6875C605.973 51.6875 594.406 40.1207 594.406 25.8438Z" fill="#513F1E"/>
<path d="M594.406 25.8438C594.406 40.1207 605.973 51.6875 620.25 51.6875C620.25 37.4105 608.683 25.8438 594.406 25.8438Z" fill="#DDD0BC"/>
<path d="M594.406 25.8438C580.129 25.8438 568.562 37.4105 568.562 51.6875C582.839 51.6875 594.406 40.1207 594.406 25.8438Z" fill="#898949"/>
<path d="M801.156 25.8438C815.433 25.8438 827 37.4105 827 51.6875L827 -1.25738e-05C827 14.277 815.433 25.8438 801.156 25.8438Z" fill="#A3A274"/>
<path d="M801.156 25.8438C786.879 25.8438 775.312 14.277 775.312 -1.14441e-05L775.312 51.6875C775.312 37.4105 786.879 25.8438 801.156 25.8438Z" fill="#DDD0BC"/>
<path d="M801.156 25.8437C801.156 11.5668 812.723 -1.30794e-05 827 -1.37034e-05L775.312 -1.14441e-05C789.589 -1.20682e-05 801.156 11.5668 801.156 25.8437Z" fill="#513F1E"/>
<path d="M827 -1.25738e-05C812.723 -1.19497e-05 801.156 11.5668 801.156 25.8438C815.433 25.8437 827 14.277 827 -1.25738e-05Z" fill="#DDD0BC"/>
<path d="M801.156 25.8437C801.156 11.5668 789.589 -1.20682e-05 775.312 -1.14441e-05C775.312 14.277 786.879 25.8437 801.156 25.8437Z" fill="#555B1F"/>
<path d="M801.156 25.8437C801.156 40.1207 789.589 51.6875 775.312 51.6875L827 51.6875C812.723 51.6875 801.156 40.1207 801.156 25.8437Z" fill="#513F1E"/>
<path d="M801.156 25.8438C801.156 40.1207 812.723 51.6875 827 51.6875C827 37.4105 815.433 25.8437 801.156 25.8438Z" fill="#555B1F"/>
<path d="M801.156 25.8437C786.879 25.8437 775.312 37.4105 775.312 51.6875C789.589 51.6875 801.156 40.1207 801.156 25.8437Z" fill="#898949"/>
<path d="M129.219 25.8438C143.496 25.8438 155.062 37.4105 155.062 51.6875L155.062 -1.12967e-06C155.062 14.277 143.496 25.8438 129.219 25.8438Z" fill="#898949"/>
<path d="M129.219 25.8438C114.942 25.8438 103.375 14.277 103.375 0L103.375 51.6875C103.375 37.4105 114.942 25.8438 129.219 25.8438Z" fill="#8C7544"/>
<path d="M129.219 25.8437C129.219 11.5668 140.786 -7.35731e-06 155.062 -7.98138e-06L103.375 -5.72205e-06C117.652 -6.34611e-06 129.219 11.5668 129.219 25.8437Z" fill="#513F1E"/>
<path d="M155.062 -6.85171e-06C140.786 -6.22765e-06 129.219 11.5668 129.219 25.8438C143.496 25.8437 155.062 14.277 155.062 -6.85171e-06Z" fill="#8C7544"/>
<path d="M129.219 25.8437C129.219 11.5668 117.652 -6.34611e-06 103.375 -5.72205e-06C103.375 14.277 114.942 25.8437 129.219 25.8437Z" fill="#DDD0BC"/>
<path d="M129.219 25.8438C129.219 40.1207 117.652 51.6875 103.375 51.6875L155.062 51.6875C140.786 51.6875 129.219 40.1207 129.219 25.8438Z" fill="#898949"/>
<path d="M129.219 25.8438C129.219 40.1207 140.786 51.6875 155.062 51.6875C155.062 37.4105 143.496 25.8438 129.219 25.8438Z" fill="#8C7544"/>
<path d="M129.219 25.8438C114.942 25.8438 103.375 37.4105 103.375 51.6875C117.652 51.6875 129.219 40.1207 129.219 25.8438Z" fill="#555B1F"/>
<path d="M77.5312 25.8438C91.8082 25.8438 103.375 37.4105 103.375 51.6875L103.375 -1.12967e-06C103.375 14.277 91.8082 25.8438 77.5312 25.8438Z" fill="#DDD0BC"/>
<path d="M77.5312 25.8438C63.2543 25.8438 51.6875 14.277 51.6875 0L51.6875 51.6875C51.6875 37.4105 63.2543 25.8438 77.5312 25.8438Z" fill="#A3A274"/>
<path d="M77.5312 25.8437C77.5312 11.5668 89.098 -7.35731e-06 103.375 -7.98138e-06L51.6875 -5.72205e-06C65.9645 -6.34611e-06 77.5312 11.5668 77.5312 25.8437Z" fill="#555B1F"/>
<path d="M103.375 -6.85171e-06C89.098 -6.22765e-06 77.5312 11.5668 77.5312 25.8438C91.8082 25.8437 103.375 14.277 103.375 -6.85171e-06Z" fill="#8C7544"/>
<path d="M77.5312 25.8437C77.5312 11.5668 65.9645 -6.34611e-06 51.6875 -5.72205e-06C51.6875 14.277 63.2543 25.8437 77.5312 25.8437Z" fill="#513F1E"/>
<path d="M77.5312 25.8438C77.5312 40.1207 65.9645 51.6875 51.6875 51.6875L103.375 51.6875C89.098 51.6875 77.5312 40.1207 77.5312 25.8438Z" fill="#A3A274"/>
<path d="M77.5312 25.8438C77.5312 40.1207 89.098 51.6875 103.375 51.6875C103.375 37.4105 91.8082 25.8438 77.5312 25.8438Z" fill="#8C7544"/>
<path d="M77.5312 25.8438C63.2543 25.8438 51.6875 37.4105 51.6875 51.6875C65.9645 51.6875 77.5312 40.1207 77.5312 25.8438Z" fill="#DDD0BC"/>
<path d="M25.8437 25.8438C40.1207 25.8438 51.6875 37.4105 51.6875 51.6875L51.6875 -1.12967e-06C51.6875 14.277 40.1207 25.8438 25.8437 25.8438Z" fill="#8C7544"/>
<path d="M25.8437 25.8438C11.5668 25.8438 -1.63527e-06 14.277 -2.25933e-06 0L0 51.6875C-6.24067e-07 37.4105 11.5668 25.8438 25.8437 25.8438Z" fill="#A3A274"/>
<path d="M25.8438 25.8437C25.8437 11.5668 37.4105 -7.35731e-06 51.6875 -7.98138e-06L-1.12967e-06 -5.72205e-06C14.277 -6.34611e-06 25.8437 11.5668 25.8438 25.8437Z" fill="#898949"/>
<path d="M51.6875 -6.85171e-06C37.4105 -6.22765e-06 25.8437 11.5668 25.8438 25.8438C40.1207 25.8437 51.6875 14.277 51.6875 -6.85171e-06Z" fill="#A3A274"/>
<path d="M25.8438 25.8437C25.8437 11.5668 14.277 -6.34611e-06 -1.12967e-06 -5.72205e-06C-5.056e-07 14.277 11.5668 25.8437 25.8438 25.8437Z" fill="#DDD0BC"/>
<path d="M25.8437 25.8438C25.8437 40.1207 14.277 51.6875 0 51.6875L51.6875 51.6875C37.4105 51.6875 25.8437 40.1207 25.8437 25.8438Z" fill="#DDD0BC"/>
<path d="M25.8437 25.8438C25.8437 40.1207 37.4105 51.6875 51.6875 51.6875C51.6875 37.4105 40.1207 25.8438 25.8437 25.8438Z" fill="#555B1F"/>
<path d="M25.8437 25.8438C11.5668 25.8438 -6.24066e-07 37.4105 0 51.6875C14.277 51.6875 25.8437 40.1207 25.8437 25.8438Z" fill="#513F1E"/>
<path d="M232.594 25.8438C246.871 25.8438 258.437 37.4105 258.438 51.6875L258.437 -1.25738e-05C258.437 14.277 246.871 25.8438 232.594 25.8438Z" fill="#A3A274"/>
<path d="M232.594 25.8438C218.317 25.8438 206.75 14.277 206.75 -1.14441e-05L206.75 51.6875C206.75 37.4105 218.317 25.8438 232.594 25.8438Z" fill="#8C7544"/>
<path d="M232.594 25.8437C232.594 11.5668 244.161 -1.30794e-05 258.437 -1.37034e-05L206.75 -1.14441e-05C221.027 -1.20682e-05 232.594 11.5668 232.594 25.8437Z" fill="#8C7544"/>
<path d="M258.437 -1.25738e-05C244.161 -1.19497e-05 232.594 11.5668 232.594 25.8438C246.871 25.8437 258.437 14.277 258.437 -1.25738e-05Z" fill="#DDD0BC"/>
<path d="M232.594 25.8437C232.594 11.5668 221.027 -1.20682e-05 206.75 -1.14441e-05C206.75 14.277 218.317 25.8437 232.594 25.8437Z" fill="#513F1E"/>
<path d="M232.594 25.8437C232.594 40.1207 221.027 51.6875 206.75 51.6875L258.438 51.6875C244.161 51.6875 232.594 40.1207 232.594 25.8437Z" fill="#DDD0BC"/>
<path d="M232.594 25.8438C232.594 40.1207 244.161 51.6875 258.438 51.6875C258.437 37.4105 246.871 25.8437 232.594 25.8438Z" fill="#898949"/>
<path d="M232.594 25.8437C218.317 25.8437 206.75 37.4105 206.75 51.6875C221.027 51.6875 232.594 40.1207 232.594 25.8437Z" fill="#555B1F"/>
<path d="M335.969 25.8438C350.246 25.8438 361.812 37.4105 361.812 51.6875L361.812 -1.25738e-05C361.812 14.277 350.246 25.8438 335.969 25.8438Z" fill="#555B1F"/>
<path d="M335.969 25.8438C321.692 25.8438 310.125 14.277 310.125 -1.14441e-05L310.125 51.6875C310.125 37.4105 321.692 25.8438 335.969 25.8438Z" fill="#DDD0BC"/>
<path d="M335.969 25.8437C335.969 11.5668 347.536 -1.30794e-05 361.812 -1.37034e-05L310.125 -1.14441e-05C324.402 -1.20682e-05 335.969 11.5668 335.969 25.8437Z" fill="#8C7544"/>
<path d="M361.812 -1.25738e-05C347.536 -1.19497e-05 335.969 11.5668 335.969 25.8438C350.246 25.8437 361.812 14.277 361.812 -1.25738e-05Z" fill="#DDD0BC"/>
<path d="M335.969 25.8437C335.969 11.5668 324.402 -1.20682e-05 310.125 -1.14441e-05C310.125 14.277 321.692 25.8437 335.969 25.8437Z" fill="#555B1F"/>
<path d="M335.969 25.8437C335.969 40.1207 324.402 51.6875 310.125 51.6875L361.812 51.6875C347.536 51.6875 335.969 40.1207 335.969 25.8437Z" fill="#DDD0BC"/>
<path d="M335.969 25.8438C335.969 40.1207 347.536 51.6875 361.812 51.6875C361.812 37.4105 350.246 25.8437 335.969 25.8438Z" fill="#8C7544"/>
<path d="M335.969 25.8437C321.692 25.8437 310.125 37.4105 310.125 51.6875C324.402 51.6875 335.969 40.1207 335.969 25.8437Z" fill="#A3A274"/>
<path d="M284.281 25.8438C298.558 25.8438 310.125 37.4105 310.125 51.6875L310.125 -1.25738e-05C310.125 14.277 298.558 25.8438 284.281 25.8438Z" fill="#555B1F"/>
<path d="M284.281 25.8438C270.004 25.8438 258.437 14.277 258.437 -1.14441e-05L258.438 51.6875C258.437 37.4105 270.004 25.8438 284.281 25.8438Z" fill="#555B1F"/>
<path d="M284.281 25.8437C284.281 11.5668 295.848 -1.30794e-05 310.125 -1.37034e-05L258.437 -1.14441e-05C272.714 -1.20682e-05 284.281 11.5668 284.281 25.8437Z" fill="#898949"/>
<path d="M310.125 -1.25738e-05C295.848 -1.19497e-05 284.281 11.5668 284.281 25.8438C298.558 25.8437 310.125 14.277 310.125 -1.25738e-05Z" fill="#513F1E"/>
<path d="M284.281 25.8437C284.281 11.5668 272.714 -1.20682e-05 258.437 -1.14441e-05C258.437 14.277 270.004 25.8437 284.281 25.8437Z" fill="#A3A274"/>
<path d="M284.281 25.8437C284.281 40.1207 272.714 51.6875 258.438 51.6875L310.125 51.6875C295.848 51.6875 284.281 40.1207 284.281 25.8437Z" fill="#DDD0BC"/>
<path d="M284.281 25.8438C284.281 40.1207 295.848 51.6875 310.125 51.6875C310.125 37.4105 298.558 25.8437 284.281 25.8438Z" fill="#A3A274"/>
<path d="M284.281 25.8437C270.004 25.8437 258.437 37.4105 258.438 51.6875C272.714 51.6875 284.281 40.1207 284.281 25.8437Z" fill="#898949"/>
<path d="M180.906 25.8438C195.183 25.8438 206.75 37.4105 206.75 51.6875L206.75 -1.12967e-06C206.75 14.277 195.183 25.8438 180.906 25.8438Z" fill="#A3A274"/>
<path d="M180.906 25.8438C166.629 25.8438 155.062 14.277 155.062 0L155.062 51.6875C155.062 37.4105 166.629 25.8438 180.906 25.8438Z" fill="#8C7544"/>
<path d="M180.906 25.8437C180.906 11.5668 192.473 -7.35731e-06 206.75 -7.98138e-06L155.062 -5.72205e-06C169.339 -6.34611e-06 180.906 11.5668 180.906 25.8437Z" fill="#898949"/>
<path d="M206.75 -6.85171e-06C192.473 -6.22765e-06 180.906 11.5668 180.906 25.8438C195.183 25.8437 206.75 14.277 206.75 -6.85171e-06Z" fill="#8C7544"/>
<path d="M180.906 25.8437C180.906 11.5668 169.339 -6.34611e-06 155.062 -5.72205e-06C155.062 14.277 166.629 25.8437 180.906 25.8437Z" fill="#DDD0BC"/>
<path d="M180.906 25.8438C180.906 40.1207 169.339 51.6875 155.062 51.6875L206.75 51.6875C192.473 51.6875 180.906 40.1207 180.906 25.8438Z" fill="#513F1E"/>
<path d="M180.906 25.8438C180.906 40.1207 192.473 51.6875 206.75 51.6875C206.75 37.4105 195.183 25.8438 180.906 25.8438Z" fill="#DDD0BC"/>
<path d="M180.906 25.8438C166.629 25.8438 155.062 37.4105 155.062 51.6875C169.339 51.6875 180.906 40.1207 180.906 25.8438Z" fill="#898949"/>
<path d="M387.656 25.8438C401.933 25.8438 413.5 37.4105 413.5 51.6875L413.5 -1.25738e-05C413.5 14.277 401.933 25.8438 387.656 25.8438Z" fill="#A3A274"/>
<path d="M387.656 25.8438C373.379 25.8438 361.812 14.277 361.812 -1.14441e-05L361.812 51.6875C361.812 37.4105 373.379 25.8438 387.656 25.8438Z" fill="#DDD0BC"/>
<path d="M387.656 25.8437C387.656 11.5668 399.223 -1.30794e-05 413.5 -1.37034e-05L361.812 -1.14441e-05C376.089 -1.20682e-05 387.656 11.5668 387.656 25.8437Z" fill="#513F1E"/>
<path d="M413.5 -1.25738e-05C399.223 -1.19497e-05 387.656 11.5668 387.656 25.8438C401.933 25.8437 413.5 14.277 413.5 -1.25738e-05Z" fill="#DDD0BC"/>
<path d="M387.656 25.8437C387.656 11.5668 376.089 -1.20682e-05 361.812 -1.14441e-05C361.812 14.277 373.379 25.8437 387.656 25.8437Z" fill="#555B1F"/>
<path d="M387.656 25.8437C387.656 40.1207 376.089 51.6875 361.812 51.6875L413.5 51.6875C399.223 51.6875 387.656 40.1207 387.656 25.8437Z" fill="#513F1E"/>
<path d="M387.656 25.8438C387.656 40.1207 399.223 51.6875 413.5 51.6875C413.5 37.4105 401.933 25.8437 387.656 25.8438Z" fill="#555B1F"/>
<path d="M387.656 25.8437C373.379 25.8437 361.812 37.4105 361.812 51.6875C376.089 51.6875 387.656 40.1207 387.656 25.8437Z" fill="#898949"/>
</svg>
