<svg width="905" height="273" viewBox="0 0 905 273" fill="none" xmlns="http://www.w3.org/2000/svg">
<path d="M522.178 34.7706C541.386 34.7706 556.948 50.3326 556.948 69.541L556.948 0.000105292C556.948 19.2085 541.386 34.7706 522.178 34.7706Z" fill="#898949"/>
<path d="M522.179 34.7706C502.97 34.7706 487.408 19.2085 487.408 0.000106812L487.408 69.541C487.408 50.3326 502.97 34.7706 522.179 34.7706Z" fill="#8C7544"/>
<path d="M522.179 34.7705C522.179 15.5621 537.741 4.35763e-05 556.949 4.27366e-05L487.408 4.57764e-05C506.617 4.49367e-05 522.179 15.5621 522.179 34.7705Z" fill="#513F1E"/>
<path d="M556.948 4.42565e-05C537.74 4.50961e-05 522.178 15.5621 522.178 34.7705C541.386 34.7705 556.948 19.2084 556.948 4.42565e-05Z" fill="#8C7544"/>
<path d="M522.179 34.7705C522.179 15.5621 506.617 4.49367e-05 487.408 4.57764e-05C487.408 19.2084 502.97 34.7705 522.179 34.7705Z" fill="#DDD0BC"/>
<path d="M522.179 34.7706C522.179 53.979 506.617 69.541 487.408 69.541L556.949 69.541C537.741 69.541 522.179 53.979 522.179 34.7706Z" fill="#898949"/>
<path d="M522.178 34.7706C522.178 53.979 537.74 69.541 556.948 69.541C556.948 50.3326 541.386 34.7706 522.178 34.7706Z" fill="#8C7544"/>
<path d="M522.179 34.7706C502.97 34.7706 487.408 50.3326 487.408 69.541C506.617 69.541 522.179 53.979 522.179 34.7706Z" fill="#555B1F"/>
<path d="M452.637 34.7706C471.845 34.7706 487.407 50.3326 487.407 69.541L487.407 0.000105292C487.407 19.2085 471.845 34.7706 452.637 34.7706Z" fill="#DDD0BC"/>
<path d="M452.638 34.7706C433.429 34.7706 417.867 19.2085 417.867 0.000106812L417.867 69.541C417.867 50.3326 433.429 34.7706 452.638 34.7706Z" fill="#A3A274"/>
<path d="M452.638 34.7705C452.638 15.5621 468.2 4.35763e-05 487.408 4.27366e-05L417.867 4.57764e-05C437.076 4.49367e-05 452.638 15.5621 452.638 34.7705Z" fill="#555B1F"/>
<path d="M487.407 4.42565e-05C468.199 4.50961e-05 452.637 15.5621 452.637 34.7705C471.845 34.7705 487.407 19.2084 487.407 4.42565e-05Z" fill="#8C7544"/>
<path d="M452.638 34.7705C452.638 15.5621 437.076 4.49367e-05 417.867 4.57764e-05C417.867 19.2084 433.429 34.7705 452.638 34.7705Z" fill="#513F1E"/>
<path d="M452.638 34.7706C452.638 53.979 437.076 69.541 417.867 69.541L487.408 69.541C468.2 69.541 452.638 53.979 452.638 34.7706Z" fill="#A3A274"/>
<path d="M452.637 34.7706C452.637 53.979 468.199 69.541 487.407 69.541C487.407 50.3326 471.845 34.7706 452.637 34.7706Z" fill="#8C7544"/>
<path d="M452.638 34.7706C433.429 34.7706 417.867 50.3326 417.867 69.541C437.076 69.541 452.638 53.979 452.638 34.7706Z" fill="#DDD0BC"/>
<path d="M383.096 34.7706C402.304 34.7706 417.866 50.3326 417.866 69.541L417.866 0.000105292C417.866 19.2085 402.304 34.7706 383.096 34.7706Z" fill="#8C7544"/>
<path d="M383.097 34.7706C363.888 34.7706 348.326 19.2085 348.326 0.000106812L348.326 69.541C348.326 50.3326 363.888 34.7706 383.097 34.7706Z" fill="#A3A274"/>
<path d="M383.097 34.7705C383.097 15.5621 398.659 4.35763e-05 417.867 4.27366e-05L348.326 4.57764e-05C367.535 4.49367e-05 383.097 15.5621 383.097 34.7705Z" fill="#898949"/>
<path d="M417.866 4.42565e-05C398.658 4.50961e-05 383.096 15.5621 383.096 34.7705C402.304 34.7705 417.866 19.2084 417.866 4.42565e-05Z" fill="#A3A274"/>
<path d="M383.097 34.7705C383.097 15.5621 367.535 4.49367e-05 348.326 4.57764e-05C348.326 19.2084 363.888 34.7705 383.097 34.7705Z" fill="#DDD0BC"/>
<path d="M383.097 34.7706C383.097 53.979 367.535 69.541 348.326 69.541L417.867 69.541C398.659 69.541 383.097 53.979 383.097 34.7706Z" fill="#DDD0BC"/>
<path d="M383.096 34.7706C383.096 53.979 398.658 69.541 417.866 69.541C417.866 50.3326 402.304 34.7706 383.096 34.7706Z" fill="#555B1F"/>
<path d="M383.097 34.7706C363.888 34.7706 348.326 50.3326 348.326 69.541C367.535 69.541 383.097 53.979 383.097 34.7706Z" fill="#513F1E"/>
<path d="M661.26 34.7706C680.468 34.7706 696.03 50.3326 696.03 69.541L696.03 9.00329e-05C696.03 19.2085 680.468 34.7706 661.26 34.7706Z" fill="#A3A274"/>
<path d="M661.261 34.7706C642.052 34.7706 626.49 19.2085 626.49 9.15527e-05L626.49 69.541C626.49 50.3326 642.052 34.7706 661.261 34.7706Z" fill="#8C7544"/>
<path d="M661.261 34.7705C661.261 15.5621 676.823 3.59469e-05 696.031 3.51072e-05L626.49 3.8147e-05C645.699 3.73073e-05 661.261 15.5621 661.261 34.7705Z" fill="#8C7544"/>
<path d="M696.03 3.66271e-05C676.822 3.74667e-05 661.26 15.5621 661.26 34.7705C680.468 34.7705 696.03 19.2084 696.03 3.66271e-05Z" fill="#DDD0BC"/>
<path d="M661.261 34.7705C661.261 15.5621 645.699 3.73073e-05 626.49 3.8147e-05C626.49 19.2084 642.052 34.7705 661.261 34.7705Z" fill="#513F1E"/>
<path d="M661.261 34.7706C661.261 53.979 645.699 69.541 626.49 69.541L696.031 69.541C676.823 69.541 661.261 53.979 661.261 34.7706Z" fill="#DDD0BC"/>
<path d="M661.26 34.7706C661.26 53.979 676.822 69.541 696.03 69.541C696.03 50.3326 680.468 34.7706 661.26 34.7706Z" fill="#898949"/>
<path d="M661.261 34.7706C642.052 34.7706 626.49 50.3326 626.49 69.541C645.699 69.541 661.261 53.979 661.261 34.7706Z" fill="#555B1F"/>
<path d="M800.342 34.7706C819.55 34.7706 835.112 50.3326 835.112 69.541L835.112 9.00329e-05C835.112 19.2085 819.55 34.7706 800.342 34.7706Z" fill="#555B1F"/>
<path d="M800.343 34.7706C781.134 34.7706 765.572 19.2085 765.572 9.15527e-05L765.572 69.541C765.572 50.3326 781.134 34.7706 800.343 34.7706Z" fill="#DDD0BC"/>
<path d="M800.343 34.7705C800.343 15.5621 815.905 3.59469e-05 835.113 3.51072e-05L765.572 3.8147e-05C784.781 3.73073e-05 800.343 15.5621 800.343 34.7705Z" fill="#8C7544"/>
<path d="M835.112 3.66271e-05C815.904 3.74667e-05 800.342 15.5621 800.342 34.7705C819.55 34.7705 835.112 19.2084 835.112 3.66271e-05Z" fill="#DDD0BC"/>
<path d="M800.343 34.7705C800.343 15.5621 784.781 3.73073e-05 765.572 3.8147e-05C765.572 19.2084 781.134 34.7705 800.343 34.7705Z" fill="#555B1F"/>
<path d="M800.343 34.7706C800.343 53.979 784.781 69.541 765.572 69.541L835.113 69.541C815.905 69.541 800.343 53.979 800.343 34.7706Z" fill="#DDD0BC"/>
<path d="M800.342 34.7706C800.342 53.979 815.904 69.541 835.112 69.541C835.112 50.3326 819.55 34.7706 800.342 34.7706Z" fill="#8C7544"/>
<path d="M800.343 34.7706C781.134 34.7706 765.572 50.3326 765.572 69.541C784.781 69.541 800.343 53.979 800.343 34.7706Z" fill="#A3A274"/>
<path d="M730.799 34.7706C750.007 34.7706 765.569 50.3326 765.569 69.541L765.569 9.00329e-05C765.569 19.2085 750.007 34.7706 730.799 34.7706Z" fill="#555B1F"/>
<path d="M730.8 34.7706C711.591 34.7706 696.029 19.2085 696.029 9.15527e-05L696.029 69.541C696.029 50.3326 711.591 34.7706 730.8 34.7706Z" fill="#555B1F"/>
<path d="M730.8 34.7705C730.8 15.5621 746.362 3.59469e-05 765.57 3.51072e-05L696.029 3.8147e-05C715.238 3.73073e-05 730.8 15.5621 730.8 34.7705Z" fill="#898949"/>
<path d="M765.569 3.66271e-05C746.361 3.74667e-05 730.799 15.5621 730.799 34.7705C750.007 34.7705 765.569 19.2084 765.569 3.66271e-05Z" fill="#513F1E"/>
<path d="M730.8 34.7705C730.8 15.5621 715.238 3.73073e-05 696.029 3.8147e-05C696.029 19.2084 711.591 34.7705 730.8 34.7705Z" fill="#A3A274"/>
<path d="M730.8 34.7706C730.8 53.979 715.238 69.541 696.029 69.541L765.57 69.541C746.362 69.541 730.8 53.979 730.8 34.7706Z" fill="#DDD0BC"/>
<path d="M730.799 34.7706C730.799 53.979 746.361 69.541 765.569 69.541C765.569 50.3326 750.007 34.7706 730.799 34.7706Z" fill="#A3A274"/>
<path d="M730.8 34.7706C711.591 34.7706 696.029 50.3326 696.029 69.541C715.238 69.541 730.8 53.979 730.8 34.7706Z" fill="#898949"/>
<path d="M591.719 34.7706C610.927 34.7706 626.489 50.3326 626.489 69.541L626.489 0.000105292C626.489 19.2085 610.927 34.7706 591.719 34.7706Z" fill="#A3A274"/>
<path d="M591.72 34.7706C572.511 34.7706 556.949 19.2085 556.949 0.000106812L556.949 69.541C556.949 50.3326 572.511 34.7706 591.72 34.7706Z" fill="#8C7544"/>
<path d="M591.72 34.7705C591.72 15.5621 607.282 4.35763e-05 626.49 4.27366e-05L556.949 4.57764e-05C576.158 4.49367e-05 591.72 15.5621 591.72 34.7705Z" fill="#898949"/>
<path d="M626.489 4.42565e-05C607.281 4.50961e-05 591.719 15.5621 591.719 34.7705C610.927 34.7705 626.489 19.2084 626.489 4.42565e-05Z" fill="#8C7544"/>
<path d="M591.72 34.7705C591.72 15.5621 576.158 4.49367e-05 556.949 4.57764e-05C556.949 19.2084 572.511 34.7705 591.72 34.7705Z" fill="#DDD0BC"/>
<path d="M591.72 34.7706C591.72 53.979 576.158 69.541 556.949 69.541L626.49 69.541C607.282 69.541 591.72 53.979 591.72 34.7706Z" fill="#513F1E"/>
<path d="M591.719 34.7706C591.719 53.979 607.281 69.541 626.489 69.541C626.489 50.3326 610.927 34.7706 591.719 34.7706Z" fill="#DDD0BC"/>
<path d="M591.72 34.7706C572.511 34.7706 556.949 50.3326 556.949 69.541C576.158 69.541 591.72 53.979 591.72 34.7706Z" fill="#898949"/>
<path d="M869.883 34.7706C889.091 34.7706 904.653 50.3326 904.653 69.541L904.653 9.00329e-05C904.653 19.2085 889.091 34.7706 869.883 34.7706Z" fill="#A3A274"/>
<path d="M869.884 34.7706C850.675 34.7706 835.113 19.2085 835.113 9.15527e-05L835.113 69.541C835.113 50.3326 850.675 34.7706 869.884 34.7706Z" fill="#DDD0BC"/>
<path d="M869.884 34.7705C869.884 15.5621 885.446 3.59469e-05 904.654 3.51072e-05L835.113 3.8147e-05C854.322 3.73073e-05 869.884 15.5621 869.884 34.7705Z" fill="#513F1E"/>
<path d="M904.653 3.66271e-05C885.445 3.74667e-05 869.883 15.5621 869.883 34.7705C889.091 34.7705 904.653 19.2084 904.653 3.66271e-05Z" fill="#DDD0BC"/>
<path d="M869.884 34.7705C869.884 15.5621 854.322 3.73073e-05 835.113 3.8147e-05C835.113 19.2084 850.675 34.7705 869.884 34.7705Z" fill="#555B1F"/>
<path d="M869.884 34.7706C869.884 53.979 854.322 69.541 835.113 69.541L904.654 69.541C885.446 69.541 869.884 53.979 869.884 34.7706Z" fill="#513F1E"/>
<path d="M869.883 34.7706C869.883 53.979 885.445 69.541 904.653 69.541C904.653 50.3326 889.091 34.7706 869.883 34.7706Z" fill="#555B1F"/>
<path d="M869.884 34.7706C850.675 34.7706 835.113 50.3326 835.113 69.541C854.322 69.541 869.884 53.979 869.884 34.7706Z" fill="#898949"/>
<path d="M104.932 34.7706C124.14 34.7706 139.702 50.3326 139.702 69.541L139.702 9.00329e-05C139.702 19.2085 124.14 34.7706 104.932 34.7706Z" fill="#A3A274"/>
<path d="M104.933 34.7706C85.7242 34.7706 70.1621 19.2085 70.1621 9.15527e-05L70.1621 69.541C70.1621 50.3326 85.7242 34.7706 104.933 34.7706Z" fill="#8C7544"/>
<path d="M104.933 34.7705C104.933 15.5621 120.495 3.59469e-05 139.703 3.51072e-05L70.1621 3.8147e-05C89.3705 3.73073e-05 104.933 15.5621 104.933 34.7705Z" fill="#8C7544"/>
<path d="M139.702 3.66271e-05C120.494 3.74667e-05 104.932 15.5621 104.932 34.7705C124.14 34.7705 139.702 19.2084 139.702 3.66271e-05Z" fill="#DDD0BC"/>
<path d="M104.933 34.7705C104.933 15.5621 89.3705 3.73073e-05 70.1621 3.8147e-05C70.1621 19.2084 85.7242 34.7705 104.933 34.7705Z" fill="#513F1E"/>
<path d="M104.933 34.7706C104.933 53.979 89.3705 69.541 70.1621 69.541L139.703 69.541C120.495 69.541 104.933 53.979 104.933 34.7706Z" fill="#DDD0BC"/>
<path d="M104.932 34.7706C104.932 53.979 120.494 69.541 139.702 69.541C139.702 50.3326 124.14 34.7706 104.932 34.7706Z" fill="#898949"/>
<path d="M104.933 34.7706C85.7242 34.7706 70.1621 50.3326 70.1621 69.541C89.3705 69.541 104.933 53.979 104.933 34.7706Z" fill="#555B1F"/>
<path d="M244.014 34.7706C263.222 34.7706 278.784 50.3326 278.784 69.541L278.784 9.00329e-05C278.784 19.2085 263.222 34.7706 244.014 34.7706Z" fill="#555B1F"/>
<path d="M244.015 34.7706C224.806 34.7706 209.244 19.2085 209.244 9.15527e-05L209.244 69.541C209.244 50.3326 224.806 34.7706 244.015 34.7706Z" fill="#DDD0BC"/>
<path d="M244.015 34.7705C244.015 15.5621 259.577 3.59469e-05 278.785 3.51072e-05L209.244 3.8147e-05C228.453 3.73073e-05 244.015 15.5621 244.015 34.7705Z" fill="#8C7544"/>
<path d="M278.784 3.66271e-05C259.576 3.74667e-05 244.014 15.5621 244.014 34.7705C263.222 34.7705 278.784 19.2084 278.784 3.66271e-05Z" fill="#DDD0BC"/>
<path d="M244.015 34.7705C244.015 15.5621 228.453 3.73073e-05 209.244 3.8147e-05C209.244 19.2084 224.806 34.7705 244.015 34.7705Z" fill="#555B1F"/>
<path d="M244.015 34.7706C244.015 53.979 228.453 69.541 209.244 69.541L278.785 69.541C259.577 69.541 244.015 53.979 244.015 34.7706Z" fill="#DDD0BC"/>
<path d="M244.014 34.7706C244.014 53.979 259.576 69.541 278.784 69.541C278.784 50.3326 263.222 34.7706 244.014 34.7706Z" fill="#8C7544"/>
<path d="M244.015 34.7706C224.806 34.7706 209.244 50.3326 209.244 69.541C228.453 69.541 244.015 53.979 244.015 34.7706Z" fill="#A3A274"/>
<path d="M174.473 34.7706C193.681 34.7706 209.243 50.3326 209.243 69.541L209.243 9.00329e-05C209.243 19.2085 193.681 34.7706 174.473 34.7706Z" fill="#555B1F"/>
<path d="M174.474 34.7706C155.265 34.7706 139.703 19.2085 139.703 9.15527e-05L139.703 69.541C139.703 50.3326 155.265 34.7706 174.474 34.7706Z" fill="#555B1F"/>
<path d="M174.474 34.7705C174.474 15.5621 190.036 3.59469e-05 209.244 3.51072e-05L139.703 3.8147e-05C158.912 3.73073e-05 174.474 15.5621 174.474 34.7705Z" fill="#898949"/>
<path d="M209.243 3.66271e-05C190.035 3.74667e-05 174.473 15.5621 174.473 34.7705C193.681 34.7705 209.243 19.2084 209.243 3.66271e-05Z" fill="#513F1E"/>
<path d="M174.474 34.7705C174.474 15.5621 158.912 3.73073e-05 139.703 3.8147e-05C139.703 19.2084 155.265 34.7705 174.474 34.7705Z" fill="#A3A274"/>
<path d="M174.474 34.7706C174.474 53.979 158.912 69.541 139.703 69.541L209.244 69.541C190.036 69.541 174.474 53.979 174.474 34.7706Z" fill="#DDD0BC"/>
<path d="M174.473 34.7706C174.473 53.979 190.035 69.541 209.243 69.541C209.243 50.3326 193.681 34.7706 174.473 34.7706Z" fill="#A3A274"/>
<path d="M174.474 34.7706C155.265 34.7706 139.703 50.3326 139.703 69.541C158.912 69.541 174.474 53.979 174.474 34.7706Z" fill="#898949"/>
<path d="M35.3906 34.7706C54.599 34.7706 70.1611 50.3326 70.1611 69.541L70.1611 0.000105292C70.1611 19.2085 54.599 34.7706 35.3906 34.7706Z" fill="#A3A274"/>
<path d="M35.3915 34.7706C16.1831 34.7706 0.621092 19.2085 0.621091 0.000106812L0.621094 69.541C0.621093 50.3326 16.1831 34.7706 35.3915 34.7706Z" fill="#8C7544"/>
<path d="M35.3915 34.7705C35.3915 15.5621 50.9536 4.35763e-05 70.162 4.27366e-05L0.621092 4.57764e-05C19.8295 4.49367e-05 35.3915 15.5621 35.3915 34.7705Z" fill="#898949"/>
<path d="M70.1611 4.42565e-05C50.9527 4.50961e-05 35.3906 15.5621 35.3906 34.7705C54.599 34.7705 70.1611 19.2084 70.1611 4.42565e-05Z" fill="#8C7544"/>
<path d="M35.3915 34.7705C35.3915 15.5621 19.8295 4.49367e-05 0.621092 4.57764e-05C0.621093 19.2084 16.1831 34.7705 35.3915 34.7705Z" fill="#DDD0BC"/>
<path d="M35.3915 34.7706C35.3915 53.979 19.8295 69.541 0.621094 69.541L70.162 69.541C50.9536 69.541 35.3915 53.979 35.3915 34.7706Z" fill="#513F1E"/>
<path d="M35.3906 34.7706C35.3906 53.979 50.9527 69.541 70.1611 69.541C70.1611 50.3326 54.599 34.7706 35.3906 34.7706Z" fill="#DDD0BC"/>
<path d="M35.3915 34.7706C16.1831 34.7706 0.621093 50.3326 0.621094 69.541C19.8295 69.541 35.3915 53.979 35.3915 34.7706Z" fill="#898949"/>
<path d="M313.555 34.7706C332.763 34.7706 348.325 50.3326 348.325 69.541L348.325 9.00329e-05C348.325 19.2085 332.763 34.7706 313.555 34.7706Z" fill="#A3A274"/>
<path d="M313.556 34.7706C294.347 34.7706 278.785 19.2085 278.785 9.15527e-05L278.785 69.541C278.785 50.3326 294.347 34.7706 313.556 34.7706Z" fill="#DDD0BC"/>
<path d="M313.556 34.7705C313.556 15.5621 329.118 3.59469e-05 348.326 3.51072e-05L278.785 3.8147e-05C297.994 3.73073e-05 313.556 15.5621 313.556 34.7705Z" fill="#513F1E"/>
<path d="M348.325 3.66271e-05C329.117 3.74667e-05 313.555 15.5621 313.555 34.7705C332.763 34.7705 348.325 19.2084 348.325 3.66271e-05Z" fill="#DDD0BC"/>
<path d="M313.556 34.7705C313.556 15.5621 297.994 3.73073e-05 278.785 3.8147e-05C278.785 19.2084 294.347 34.7705 313.556 34.7705Z" fill="#555B1F"/>
<path d="M313.556 34.7706C313.556 53.979 297.994 69.541 278.785 69.541L348.326 69.541C329.118 69.541 313.556 53.979 313.556 34.7706Z" fill="#513F1E"/>
<path d="M313.555 34.7706C313.555 53.979 329.117 69.541 348.325 69.541C348.325 50.3326 332.763 34.7706 313.555 34.7706Z" fill="#555B1F"/>
<path d="M313.556 34.7706C294.347 34.7706 278.785 50.3326 278.785 69.541C297.994 69.541 313.556 53.979 313.556 34.7706Z" fill="#898949"/>
<path d="M175.822 104.731C156.614 104.731 141.052 89.1693 141.052 69.9609L141.052 139.502C141.052 120.293 156.614 104.731 175.822 104.731Z" fill="#898949"/>
<path d="M175.821 104.731C195.03 104.731 210.592 120.293 210.592 139.502L210.592 69.9609C210.592 89.1693 195.03 104.731 175.821 104.731Z" fill="#8C7544"/>
<path d="M175.821 104.731C175.821 123.94 160.259 139.502 141.051 139.502L210.592 139.502C191.383 139.502 175.821 123.94 175.821 104.731Z" fill="#513F1E"/>
<path d="M141.052 139.502C160.26 139.502 175.822 123.94 175.822 104.731C156.614 104.731 141.052 120.294 141.052 139.502Z" fill="#8C7544"/>
<path d="M175.821 104.731C175.821 123.94 191.383 139.502 210.592 139.502C210.592 120.294 195.03 104.731 175.821 104.731Z" fill="#DDD0BC"/>
<path d="M175.821 104.731C175.821 85.523 191.383 69.9609 210.592 69.9609L141.051 69.9609C160.259 69.9609 175.821 85.523 175.821 104.731Z" fill="#898949"/>
<path d="M175.822 104.731C175.822 85.523 160.26 69.9609 141.052 69.9609C141.052 89.1693 156.614 104.731 175.822 104.731Z" fill="#8C7544"/>
<path d="M175.821 104.731C195.03 104.731 210.592 89.1693 210.592 69.9609C191.383 69.9609 175.821 85.523 175.821 104.731Z" fill="#555B1F"/>
<path d="M245.361 104.731C226.153 104.731 210.591 89.1693 210.591 69.9609L210.591 139.502C210.591 120.293 226.153 104.731 245.361 104.731Z" fill="#DDD0BC"/>
<path d="M245.36 104.731C264.569 104.731 280.131 120.293 280.131 139.502L280.131 69.9609C280.131 89.1693 264.569 104.731 245.36 104.731Z" fill="#A3A274"/>
<path d="M245.36 104.731C245.36 123.94 229.798 139.502 210.59 139.502L280.131 139.502C260.922 139.502 245.36 123.94 245.36 104.731Z" fill="#555B1F"/>
<path d="M210.591 139.502C229.799 139.502 245.361 123.94 245.361 104.731C226.153 104.731 210.591 120.294 210.591 139.502Z" fill="#8C7544"/>
<path d="M245.36 104.731C245.36 123.94 260.922 139.502 280.131 139.502C280.131 120.294 264.569 104.731 245.36 104.731Z" fill="#513F1E"/>
<path d="M245.36 104.731C245.36 85.523 260.922 69.9609 280.131 69.9609L210.59 69.9609C229.798 69.9609 245.36 85.523 245.36 104.731Z" fill="#A3A274"/>
<path d="M245.361 104.731C245.361 85.523 229.799 69.9609 210.591 69.9609C210.591 89.1693 226.153 104.731 245.361 104.731Z" fill="#8C7544"/>
<path d="M245.36 104.731C264.569 104.731 280.131 89.1693 280.131 69.9609C260.922 69.9609 245.36 85.523 245.36 104.731Z" fill="#DDD0BC"/>
<path d="M314.902 104.731C295.694 104.731 280.132 89.1693 280.132 69.9609L280.132 139.502C280.132 120.293 295.694 104.731 314.902 104.731Z" fill="#8C7544"/>
<path d="M314.901 104.731C334.11 104.731 349.672 120.293 349.672 139.502L349.672 69.9609C349.672 89.1693 334.11 104.731 314.901 104.731Z" fill="#A3A274"/>
<path d="M314.901 104.731C314.901 123.94 299.339 139.502 280.131 139.502L349.672 139.502C330.463 139.502 314.901 123.94 314.901 104.731Z" fill="#898949"/>
<path d="M280.132 139.502C299.34 139.502 314.902 123.94 314.902 104.731C295.694 104.731 280.132 120.294 280.132 139.502Z" fill="#A3A274"/>
<path d="M314.901 104.731C314.901 123.94 330.463 139.502 349.672 139.502C349.672 120.294 334.11 104.731 314.901 104.731Z" fill="#DDD0BC"/>
<path d="M314.901 104.731C314.901 85.523 330.463 69.9609 349.672 69.9609L280.131 69.9609C299.339 69.9609 314.901 85.523 314.901 104.731Z" fill="#DDD0BC"/>
<path d="M314.902 104.731C314.902 85.523 299.34 69.9609 280.132 69.9609C280.132 89.1693 295.694 104.731 314.902 104.731Z" fill="#555B1F"/>
<path d="M314.901 104.731C334.11 104.731 349.672 89.1693 349.672 69.9609C330.463 69.9609 314.901 85.523 314.901 104.731Z" fill="#513F1E"/>
<path d="M36.7402 104.731C17.5318 104.731 1.96978 89.1693 1.96978 69.9609L1.96979 139.502C1.96979 120.293 17.5318 104.731 36.7402 104.731Z" fill="#A3A274"/>
<path d="M36.7393 104.731C55.9477 104.731 71.5098 120.293 71.5098 139.502L71.5098 69.9609C71.5098 89.1693 55.9477 104.731 36.7393 104.731Z" fill="#8C7544"/>
<path d="M36.7393 104.731C36.7393 123.94 21.1773 139.502 1.96886 139.502L71.5098 139.502C52.3014 139.502 36.7393 123.94 36.7393 104.731Z" fill="#8C7544"/>
<path d="M1.96978 139.502C21.1782 139.502 36.7402 123.94 36.7402 104.731C17.5318 104.731 1.96978 120.294 1.96978 139.502Z" fill="#DDD0BC"/>
<path d="M36.7393 104.731C36.7393 123.94 52.3014 139.502 71.5098 139.502C71.5098 120.294 55.9477 104.731 36.7393 104.731Z" fill="#513F1E"/>
<path d="M36.7393 104.731C36.7393 85.523 52.3014 69.9609 71.5098 69.9609L1.96886 69.9609C21.1772 69.9609 36.7393 85.523 36.7393 104.731Z" fill="#DDD0BC"/>
<path d="M36.7402 104.731C36.7402 85.523 21.1782 69.9609 1.96978 69.9609C1.96978 89.1693 17.5318 104.731 36.7402 104.731Z" fill="#898949"/>
<path d="M36.7393 104.731C55.9477 104.731 71.5098 89.1693 71.5098 69.9609C52.3014 69.9609 36.7393 85.523 36.7393 104.731Z" fill="#555B1F"/>
<path d="M106.281 104.731C87.0729 104.731 71.5108 89.1693 71.5108 69.9609L71.5108 139.502C71.5108 120.293 87.0729 104.731 106.281 104.731Z" fill="#A3A274"/>
<path d="M106.28 104.731C125.489 104.731 141.051 120.293 141.051 139.502L141.051 69.9609C141.051 89.1693 125.489 104.731 106.28 104.731Z" fill="#8C7544"/>
<path d="M106.28 104.731C106.28 123.94 90.7183 139.502 71.5099 139.502L141.051 139.502C121.842 139.502 106.28 123.94 106.28 104.731Z" fill="#898949"/>
<path d="M71.5108 139.502C90.7192 139.502 106.281 123.94 106.281 104.731C87.0729 104.731 71.5108 120.294 71.5108 139.502Z" fill="#8C7544"/>
<path d="M106.28 104.731C106.28 123.94 121.842 139.502 141.051 139.502C141.051 120.294 125.489 104.731 106.28 104.731Z" fill="#DDD0BC"/>
<path d="M106.28 104.731C106.28 85.523 121.842 69.9609 141.051 69.9609L71.5099 69.9609C90.7183 69.9609 106.28 85.523 106.28 104.731Z" fill="#513F1E"/>
<path d="M106.281 104.731C106.281 85.523 90.7192 69.9609 71.5108 69.9609C71.5108 89.1693 87.0729 104.731 106.281 104.731Z" fill="#DDD0BC"/>
<path d="M106.28 104.731C125.489 104.731 141.051 89.1693 141.051 69.9609C121.842 69.9609 106.28 85.523 106.28 104.731Z" fill="#898949"/>
<path d="M732.148 104.731C712.94 104.731 697.378 89.1693 697.378 69.9609L697.378 139.502C697.378 120.293 712.94 104.731 732.148 104.731Z" fill="#898949"/>
<path d="M732.148 104.731C751.356 104.731 766.918 120.293 766.918 139.502L766.918 69.9609C766.918 89.1693 751.356 104.731 732.148 104.731Z" fill="#8C7544"/>
<path d="M732.148 104.731C732.148 123.94 716.585 139.502 697.377 139.502L766.918 139.502C747.71 139.502 732.148 123.94 732.148 104.731Z" fill="#513F1E"/>
<path d="M697.378 139.502C716.586 139.502 732.148 123.94 732.148 104.731C712.94 104.731 697.378 120.294 697.378 139.502Z" fill="#8C7544"/>
<path d="M732.148 104.731C732.148 123.94 747.71 139.502 766.918 139.502C766.918 120.294 751.356 104.731 732.148 104.731Z" fill="#DDD0BC"/>
<path d="M732.148 104.731C732.148 85.523 747.71 69.9609 766.918 69.9609L697.377 69.9609C716.585 69.9609 732.148 85.523 732.148 104.731Z" fill="#898949"/>
<path d="M732.148 104.731C732.148 85.523 716.586 69.9609 697.378 69.9609C697.378 89.1693 712.94 104.731 732.148 104.731Z" fill="#8C7544"/>
<path d="M732.148 104.731C751.356 104.731 766.918 89.1693 766.918 69.9609C747.71 69.9609 732.148 85.523 732.148 104.731Z" fill="#555B1F"/>
<path d="M801.689 104.731C782.481 104.731 766.919 89.1693 766.919 69.9609L766.919 139.502C766.919 120.293 782.481 104.731 801.689 104.731Z" fill="#DDD0BC"/>
<path d="M801.689 104.731C820.897 104.731 836.459 120.293 836.459 139.502L836.459 69.9609C836.459 89.1693 820.897 104.731 801.689 104.731Z" fill="#A3A274"/>
<path d="M801.689 104.731C801.689 123.94 786.126 139.502 766.918 139.502L836.459 139.502C817.251 139.502 801.689 123.94 801.689 104.731Z" fill="#555B1F"/>
<path d="M766.919 139.502C786.127 139.502 801.689 123.94 801.689 104.731C782.481 104.731 766.919 120.294 766.919 139.502Z" fill="#8C7544"/>
<path d="M801.689 104.731C801.689 123.94 817.251 139.502 836.459 139.502C836.459 120.294 820.897 104.731 801.689 104.731Z" fill="#513F1E"/>
<path d="M801.689 104.731C801.689 85.523 817.251 69.9609 836.459 69.9609L766.918 69.9609C786.126 69.9609 801.689 85.523 801.689 104.731Z" fill="#A3A274"/>
<path d="M801.689 104.731C801.689 85.523 786.127 69.9609 766.919 69.9609C766.919 89.1693 782.481 104.731 801.689 104.731Z" fill="#8C7544"/>
<path d="M801.689 104.731C820.897 104.731 836.459 89.1693 836.459 69.9609C817.251 69.9609 801.689 85.523 801.689 104.731Z" fill="#DDD0BC"/>
<path d="M871.23 104.731C852.022 104.731 836.46 89.1693 836.46 69.9609L836.46 139.502C836.46 120.293 852.022 104.731 871.23 104.731Z" fill="#8C7544"/>
<path d="M871.23 104.731C890.438 104.731 906 120.293 906 139.502L906 69.9609C906 89.1693 890.438 104.731 871.23 104.731Z" fill="#A3A274"/>
<path d="M871.23 104.731C871.23 123.94 855.667 139.502 836.459 139.502L906 139.502C886.792 139.502 871.23 123.94 871.23 104.731Z" fill="#898949"/>
<path d="M836.46 139.502C855.668 139.502 871.23 123.94 871.23 104.731C852.022 104.731 836.46 120.294 836.46 139.502Z" fill="#A3A274"/>
<path d="M871.23 104.731C871.23 123.94 886.792 139.502 906 139.502C906 120.294 890.438 104.731 871.23 104.731Z" fill="#DDD0BC"/>
<path d="M871.23 104.731C871.23 85.523 886.792 69.9609 906 69.9609L836.459 69.9609C855.667 69.9609 871.23 85.523 871.23 104.731Z" fill="#DDD0BC"/>
<path d="M871.23 104.731C871.23 85.523 855.668 69.9609 836.46 69.9609C836.46 89.1693 852.022 104.731 871.23 104.731Z" fill="#555B1F"/>
<path d="M871.23 104.731C890.438 104.731 906 89.1693 906 69.9609C886.792 69.9609 871.23 85.523 871.23 104.731Z" fill="#513F1E"/>
<path d="M593.066 104.731C573.858 104.731 558.296 89.1693 558.296 69.9609L558.296 139.502C558.296 120.293 573.858 104.731 593.066 104.731Z" fill="#A3A274"/>
<path d="M593.065 104.731C612.274 104.731 627.836 120.293 627.836 139.502L627.836 69.9609C627.836 89.1693 612.274 104.731 593.065 104.731Z" fill="#8C7544"/>
<path d="M593.065 104.731C593.065 123.94 577.503 139.502 558.295 139.502L627.836 139.502C608.628 139.502 593.065 123.94 593.065 104.731Z" fill="#8C7544"/>
<path d="M558.296 139.502C577.504 139.502 593.066 123.94 593.066 104.731C573.858 104.731 558.296 120.294 558.296 139.502Z" fill="#DDD0BC"/>
<path d="M593.065 104.731C593.065 123.94 608.628 139.502 627.836 139.502C627.836 120.294 612.274 104.731 593.065 104.731Z" fill="#513F1E"/>
<path d="M593.065 104.731C593.065 85.523 608.628 69.9609 627.836 69.9609L558.295 69.9609C577.503 69.9609 593.065 85.523 593.065 104.731Z" fill="#DDD0BC"/>
<path d="M593.066 104.731C593.066 85.523 577.504 69.9609 558.296 69.9609C558.296 89.1693 573.858 104.731 593.066 104.731Z" fill="#898949"/>
<path d="M593.065 104.731C612.274 104.731 627.836 89.1693 627.836 69.9609C608.628 69.9609 593.065 85.523 593.065 104.731Z" fill="#555B1F"/>
<path d="M453.984 104.731C434.776 104.731 419.214 89.1693 419.214 69.9609L419.214 139.502C419.214 120.293 434.776 104.731 453.984 104.731Z" fill="#555B1F"/>
<path d="M453.983 104.731C473.192 104.731 488.754 120.293 488.754 139.502L488.754 69.9609C488.754 89.1693 473.192 104.731 453.983 104.731Z" fill="#DDD0BC"/>
<path d="M453.983 104.731C453.983 123.94 438.421 139.502 419.213 139.502L488.754 139.502C469.546 139.502 453.983 123.94 453.983 104.731Z" fill="#8C7544"/>
<path d="M419.214 139.502C438.422 139.502 453.984 123.94 453.984 104.731C434.776 104.731 419.214 120.294 419.214 139.502Z" fill="#DDD0BC"/>
<path d="M453.983 104.731C453.983 123.94 469.546 139.502 488.754 139.502C488.754 120.294 473.192 104.731 453.983 104.731Z" fill="#555B1F"/>
<path d="M453.983 104.731C453.983 85.523 469.546 69.9609 488.754 69.9609L419.213 69.9609C438.421 69.9609 453.983 85.523 453.983 104.731Z" fill="#DDD0BC"/>
<path d="M453.984 104.731C453.984 85.523 438.422 69.9609 419.214 69.9609C419.214 89.1693 434.776 104.731 453.984 104.731Z" fill="#8C7544"/>
<path d="M453.983 104.731C473.192 104.731 488.754 89.1693 488.754 69.9609C469.546 69.9609 453.983 85.523 453.983 104.731Z" fill="#A3A274"/>
<path d="M523.525 104.731C504.317 104.731 488.755 89.1693 488.755 69.9609L488.755 139.502C488.755 120.293 504.317 104.731 523.525 104.731Z" fill="#555B1F"/>
<path d="M523.524 104.731C542.733 104.731 558.295 120.293 558.295 139.502L558.295 69.9609C558.295 89.1693 542.733 104.731 523.524 104.731Z" fill="#555B1F"/>
<path d="M523.524 104.731C523.524 123.94 507.962 139.502 488.754 139.502L558.295 139.502C539.087 139.502 523.524 123.94 523.524 104.731Z" fill="#898949"/>
<path d="M488.755 139.502C507.963 139.502 523.525 123.94 523.525 104.731C504.317 104.731 488.755 120.294 488.755 139.502Z" fill="#513F1E"/>
<path d="M523.524 104.731C523.524 123.94 539.087 139.502 558.295 139.502C558.295 120.294 542.733 104.731 523.524 104.731Z" fill="#A3A274"/>
<path d="M523.524 104.731C523.524 85.523 539.087 69.9609 558.295 69.9609L488.754 69.9609C507.962 69.9609 523.524 85.523 523.524 104.731Z" fill="#DDD0BC"/>
<path d="M523.525 104.731C523.525 85.523 507.963 69.9609 488.755 69.9609C488.755 89.1693 504.317 104.731 523.525 104.731Z" fill="#A3A274"/>
<path d="M523.524 104.731C542.733 104.731 558.295 89.1693 558.295 69.9609C539.087 69.9609 523.524 85.523 523.524 104.731Z" fill="#898949"/>
<path d="M662.607 104.731C643.399 104.731 627.837 89.1693 627.837 69.9609L627.837 139.502C627.837 120.293 643.399 104.731 662.607 104.731Z" fill="#A3A274"/>
<path d="M662.607 104.731C681.815 104.731 697.377 120.293 697.377 139.502L697.377 69.9609C697.377 89.1693 681.815 104.731 662.607 104.731Z" fill="#8C7544"/>
<path d="M662.607 104.731C662.607 123.94 647.044 139.502 627.836 139.502L697.377 139.502C678.169 139.502 662.607 123.94 662.607 104.731Z" fill="#898949"/>
<path d="M627.837 139.502C647.045 139.502 662.607 123.94 662.607 104.731C643.399 104.731 627.837 120.294 627.837 139.502Z" fill="#8C7544"/>
<path d="M662.606 104.731C662.607 123.94 678.169 139.502 697.377 139.502C697.377 120.294 681.815 104.731 662.606 104.731Z" fill="#DDD0BC"/>
<path d="M662.607 104.731C662.607 85.523 678.169 69.9609 697.377 69.9609L627.836 69.9609C647.044 69.9609 662.607 85.523 662.607 104.731Z" fill="#513F1E"/>
<path d="M662.607 104.731C662.607 85.523 647.045 69.9609 627.837 69.9609C627.837 89.1693 643.399 104.731 662.607 104.731Z" fill="#DDD0BC"/>
<path d="M662.607 104.731C681.815 104.731 697.377 89.1693 697.377 69.9609C678.169 69.9609 662.607 85.523 662.607 104.731Z" fill="#898949"/>
<path d="M384.443 104.731C365.235 104.731 349.673 89.1693 349.673 69.9609L349.673 139.502C349.673 120.293 365.235 104.731 384.443 104.731Z" fill="#A3A274"/>
<path d="M384.442 104.731C403.651 104.731 419.213 120.293 419.213 139.502L419.213 69.9609C419.213 89.1693 403.651 104.731 384.442 104.731Z" fill="#DDD0BC"/>
<path d="M384.442 104.731C384.442 123.94 368.88 139.502 349.672 139.502L419.213 139.502C400.004 139.502 384.442 123.94 384.442 104.731Z" fill="#513F1E"/>
<path d="M349.673 139.502C368.881 139.502 384.443 123.94 384.443 104.731C365.235 104.731 349.673 120.294 349.673 139.502Z" fill="#DDD0BC"/>
<path d="M384.442 104.731C384.442 123.94 400.004 139.502 419.213 139.502C419.213 120.294 403.651 104.731 384.442 104.731Z" fill="#555B1F"/>
<path d="M384.442 104.731C384.442 85.523 400.004 69.9609 419.213 69.9609L349.672 69.9609C368.88 69.9609 384.442 85.523 384.442 104.731Z" fill="#513F1E"/>
<path d="M384.443 104.731C384.443 85.523 368.881 69.9609 349.673 69.9609C349.673 89.1693 365.235 104.731 384.443 104.731Z" fill="#555B1F"/>
<path d="M384.442 104.731C403.651 104.731 419.213 89.1693 419.213 69.9609C400.004 69.9609 384.442 85.523 384.442 104.731Z" fill="#898949"/>
<rect x="208" y="54" width="697" height="219" fill="#BDC694"/>
<path d="M398.624 184V129.425H392.517V184H398.624ZM419.415 184V145.711L439.695 174.839L460.053 145.711V184H466.16V127.781L439.695 165.286L413.308 127.781V184H419.415ZM482.554 184L488.427 170.532H513.013L518.886 184H525.541L500.798 127.467L476.134 184H482.554ZM500.72 141.718L510.586 164.895H490.854L500.72 141.718ZM558.028 128.407C550.119 128.407 543.386 131.148 537.826 136.55C532.345 141.953 529.605 148.687 529.605 156.752C529.605 164.817 532.345 171.629 537.826 177.031C543.386 182.434 550.119 185.096 558.028 185.096C566.562 185.096 573.609 182.121 579.09 176.092V154.246H556.305V159.884H572.983V173.899C568.833 177.579 563.9 179.459 558.028 179.459C551.607 179.459 546.283 177.345 542.054 173.038C537.826 168.732 535.712 163.25 535.712 156.752C535.712 150.253 537.826 144.85 542.054 140.544C546.283 136.237 551.607 134.045 558.028 134.045C564.37 134.045 569.851 136.159 574.392 140.465V133.575C569.851 130.13 564.37 128.407 558.028 128.407ZM622.487 184V178.362H597.196V158.004H620.451V152.367H597.196V135.063H621.939V129.425H591.089V184H622.487ZM640.169 184V142.736L678.458 185.957V129.425H672.351V170.689L634.062 127.467V184H640.169ZM689.262 178.597C693.725 182.904 699.441 185.096 706.331 185.096C711.577 185.096 715.727 183.687 718.937 180.868C722.148 177.971 723.792 174.682 723.792 170.846C723.792 166.226 722.382 162.624 719.25 159.727C716.197 156.673 713.456 154.951 708.21 152.367C704.373 150.409 701.633 148.687 699.989 147.277C698.423 145.868 697.64 144.067 697.64 141.796C697.64 137.098 701.476 134.045 707.819 134.045C711.89 134.045 715.57 135.689 718.937 139.056V132.165C716.04 129.66 712.36 128.407 707.897 128.407C697.875 128.407 691.532 133.888 691.532 141.796C691.532 145.79 692.785 148.765 695.682 151.349C697.17 152.602 698.579 153.62 699.91 154.481C701.241 155.342 703.121 156.36 705.548 157.613C710.246 160.04 713.456 162.154 715.101 163.799C716.823 165.443 717.684 167.792 717.684 170.846C717.684 175.23 713.456 179.459 705.861 179.459C699.519 179.459 693.96 176.64 689.262 171.081V178.597Z" fill="#555D28"/>
</svg>
