<svg width="900" height="184" viewBox="0 0 900 184" fill="none" xmlns="http://www.w3.org/2000/svg">
<path d="M186.455 0H0V183.299H186.455V0Z" fill="#555D28"/>
<path d="M900 0H186.455V183.299H900V0Z" fill="#8A8A49"/>
<path d="M220.74 87.3336L233.402 61.6431L245.908 87.3336H240.197L238.261 83.4617H228.116L226.18 87.3336H220.74ZM230.227 78.9508H236.383L233.285 72.5621L230.227 78.9508ZM254.988 88.6307L242.52 63.1532H248.328L255.085 77.402L261.88 63.1532H267.688L254.988 88.6307ZM266.604 82.9389C267.137 82.4104 267.857 82.1139 268.607 82.1139C269.358 82.1139 270.078 82.4104 270.611 82.9389C270.882 83.1958 271.097 83.505 271.245 83.8478C271.392 84.1906 271.468 84.5599 271.468 84.933C271.468 85.3061 271.392 85.6753 271.245 86.0181C271.097 86.3609 270.882 86.6702 270.611 86.927C270.078 87.4555 269.358 87.752 268.607 87.752C267.857 87.752 267.137 87.4555 266.604 86.927C266.326 86.6593 266.106 86.3367 265.96 85.9798C265.813 85.6229 265.742 85.2394 265.751 84.8536C265.76 84.4678 265.849 84.0881 266.013 83.7385C266.176 83.3889 266.41 83.0771 266.7 82.8228L266.604 82.9389ZM286.564 82.726C287.248 82.8917 287.951 82.9633 288.655 82.9389C291.036 82.9389 291.617 81.6611 291.617 79.4154V63.1532H296.999V78.9508C297.092 80.6168 296.869 82.2854 296.34 83.8681C295.566 86.2494 293.572 87.5272 289.351 87.7401C288.417 87.7534 287.483 87.6756 286.564 87.5078V82.726ZM302.052 87.4498V63.0371H307.414V73.9365L316.087 63.0371H322.573L312.893 74.9433L323.038 87.3336H316.475L307.492 76.2404V87.3336L302.052 87.4498ZM325.922 83.5778H331.091L326.697 91.9025H322.825L325.922 83.5778ZM350.064 87.4498V63.0371H366.655V67.9157H355.427V72.4846H365.939V77.2471H355.446V82.4355H366.926V87.3336L350.064 87.4498ZM370.837 80.0543C373.104 82.0213 376.026 83.0648 379.026 82.9777C381.717 82.9777 383.285 82.0097 383.285 80.5771C383.301 80.1811 383.204 79.7889 383.005 79.4461C382.806 79.1034 382.514 78.8242 382.162 78.6411C380.785 77.8673 379.34 77.2194 377.845 76.7051C373.683 75.2144 371.282 73.0847 371.282 69.4644C371.243 68.4908 371.45 67.5231 371.883 66.6503C372.316 65.7774 372.961 65.0275 373.76 64.4697C375.579 63.2026 377.759 62.5574 379.975 62.6305C382.248 62.5931 384.491 63.1538 386.48 64.2566V69.6C384.683 68.1936 382.448 67.4668 380.168 67.5478C377.942 67.5478 376.684 68.3029 376.684 69.4838C376.684 70.1808 377.013 70.7036 377.942 71.265L379.123 71.8458L380.73 72.4846L382.259 73.0654C384.108 73.6927 385.789 74.7321 387.177 76.105C388.212 77.3273 388.739 78.9003 388.648 80.4996C388.648 84.7781 385.376 87.7401 379.278 87.7401C376.318 87.789 373.401 87.0328 370.837 85.5524V80.0543ZM413.642 66.5024C414.883 67.6222 415.87 68.9944 416.538 70.5269C417.206 72.0595 417.539 73.717 417.514 75.3885C417.547 78.4551 416.396 81.4164 414.3 83.6552L417.746 87.5272H411.938L410.776 86.1913C408.901 87.3375 406.74 87.9282 404.542 87.895C401.119 87.9533 397.812 86.6514 395.347 84.2747C394.146 83.127 393.19 81.7478 392.538 80.2206C391.885 78.6933 391.548 77.0495 391.548 75.3885C391.548 73.7276 391.885 72.0839 392.538 70.5566C393.19 69.0293 394.146 67.6502 395.347 66.5024C397.821 64.1548 401.102 62.8461 404.513 62.8461C407.924 62.8461 411.206 64.1548 413.68 66.5024H413.642ZM399.064 80.8674C399.811 81.5615 400.694 82.0936 401.657 82.4301C402.62 82.7666 403.642 82.9003 404.659 82.8228C405.585 82.8271 406.502 82.6358 407.35 82.2614L402.355 76.6276H408.163L410.854 79.7252C411.663 78.575 412.143 77.2262 412.243 75.8237C412.343 74.4212 412.06 73.0179 411.423 71.7642C410.786 70.5106 409.82 69.4539 408.629 68.7077C407.437 67.9615 406.064 67.5538 404.659 67.5284C403.654 67.5087 402.655 67.6963 401.726 68.0793C400.797 68.4624 399.956 69.0327 399.257 69.7549C397.851 71.2248 397.067 73.1804 397.067 75.2144C397.067 77.2483 397.851 79.2039 399.257 80.6738L399.064 80.8674ZM421.463 63.2306H426.845V77.0148C426.845 80.8868 428.51 82.8228 431.82 82.8228C435.131 82.8228 436.777 80.8868 436.777 77.0148V63.1145H442.139V77.5762C442.229 78.9743 442.014 80.3753 441.509 81.6822C441.004 82.9892 440.222 84.1709 439.216 85.146C437.176 86.9335 434.531 87.8751 431.82 87.7789C429.101 87.8787 426.445 86.9449 424.386 85.1653C423.378 84.1881 422.594 83.0031 422.089 81.6926C421.584 80.3822 421.371 78.9775 421.463 77.5762V63.2306ZM447.463 87.5272V63.0371H452.826V87.3336L447.463 87.5272ZM458.44 87.5272V62.3594L474.761 77.1116V63.308H480.162V88.4758L463.861 73.7624V87.5466L458.44 87.5272ZM483.492 87.5272L496.153 61.8366L508.795 87.5272H502.987L501.051 83.6552H490.907L488.971 87.5272H483.492ZM493.056 79.0863H499.212L496.114 72.6976L493.056 79.0863ZM542.849 65.3408V70.9552C541.879 69.9332 540.711 69.1195 539.416 68.5637C538.122 68.0078 536.727 67.7215 535.318 67.7221C534.305 67.7026 533.298 67.886 532.357 68.2618C531.416 68.6375 530.56 69.1979 529.839 69.9098C528.417 71.3793 527.623 73.3438 527.623 75.3885C527.623 77.4332 528.417 79.3979 529.839 80.8674C531.316 82.2816 533.293 83.054 535.337 83.0163C536.746 83.0169 538.141 82.7306 539.436 82.1747C540.73 81.6189 541.898 80.8052 542.868 79.7832V85.3976C540.718 87.0681 538.06 87.9496 535.337 87.895C531.902 87.9736 528.572 86.7015 526.064 84.3521C524.864 83.1881 523.91 81.7949 523.258 80.2552C522.607 78.7154 522.271 77.0605 522.271 75.3885C522.271 73.7166 522.607 72.0617 523.258 70.522C523.91 68.9822 524.864 67.5891 526.064 66.425C528.558 64.0489 531.894 62.7605 535.337 62.8434C538.063 62.7154 540.749 63.5289 542.946 65.1472L542.849 65.3408ZM545.288 90.3344L556.711 60.404H561.473L550.032 90.3344H545.288ZM574.328 87.5272L586.989 61.8366L599.631 87.5272H593.824L591.888 83.6552H581.743L579.807 87.5272H574.328ZM583.873 79.0863H590.048L586.951 72.6976L583.873 79.0863ZM608.653 88.7662L596.321 63.0371H602.032L608.789 77.2859L615.584 63.0371H621.392L608.653 88.7662ZM620.366 83.0744C620.899 82.546 621.619 82.2494 622.37 82.2494C623.12 82.2494 623.84 82.546 624.373 83.0744C624.644 83.3313 624.859 83.6405 625.007 83.9834C625.154 84.3262 625.23 84.6953 625.23 85.0684C625.23 85.4416 625.154 85.8108 625.007 86.1537C624.859 86.4965 624.644 86.8057 624.373 87.0626C623.84 87.591 623.12 87.8876 622.37 87.8876C621.619 87.8876 620.899 87.591 620.366 87.0626C620.064 86.7953 619.824 86.4658 619.662 86.0967C619.5 85.7276 619.42 85.3278 619.427 84.9248C619.434 84.5217 619.529 84.1252 619.704 83.7623C619.88 83.3994 620.132 83.0788 620.443 82.8228L620.366 83.0744ZM643.946 87.5853V62.4175L656.782 76.3953L669.617 62.4175V87.5853H664.448V75.0788L656.704 83.694L648.96 75.0788V87.4304L643.946 87.5853ZM672.986 87.5853L685.647 61.8948L698.309 87.5853H692.501L690.565 83.7134H680.42L678.484 87.5853H672.986ZM682.55 79.1443H688.706L685.608 72.7556L682.55 79.1443ZM701.735 87.5853V63.0371H711.918C712.993 63.0163 714.06 63.2111 715.058 63.6102C716.055 64.0092 716.963 64.6042 717.726 65.3602C718.518 66.0778 719.146 66.9578 719.567 67.94C719.988 68.9222 720.192 69.9836 720.166 71.0519C720.206 72.4984 719.817 73.9246 719.049 75.1509C718.281 76.3772 717.167 77.349 715.848 77.944L721.773 87.3336H715.694L710.641 79.2412H707.059V87.3336L701.735 87.5853ZM707.078 74.7497H711.338C711.796 74.7862 712.257 74.7243 712.69 74.5682C713.123 74.4122 713.517 74.1655 713.847 73.8448C714.177 73.5242 714.435 73.1368 714.603 72.7086C714.771 72.2804 714.846 71.8212 714.822 71.3618C714.841 70.9504 714.776 70.5396 714.631 70.154C714.487 69.7684 714.266 69.4159 713.983 69.1176C713.699 68.8193 713.358 68.5814 712.98 68.4181C712.602 68.2548 712.195 68.1696 711.783 68.1674H707.078V74.7497ZM722.373 87.5853L735.034 61.8948L747.676 87.5853H741.868L739.932 83.7134H729.787L727.851 87.5853H722.373ZM731.917 79.1443H738.093L734.995 72.7556L731.917 79.1443ZM751.122 87.5853V62.4175L767.442 77.1697V63.3662H772.728V88.5339L756.427 73.8204V87.6046L751.122 87.5853ZM778.226 87.5853V63.0371H783.589V72.0587H794.12V63.0371H799.599V87.3336H794.236V77.0148H783.705V87.411L778.226 87.5853ZM802.968 87.5853L815.61 61.8948L828.271 87.5853H822.56L820.624 83.7134H810.479L808.543 87.5853H802.968ZM808.505 61.0429C808.548 59.8552 809.039 58.7279 809.88 57.8875C810.72 57.0471 811.847 56.5559 813.035 56.5127C814.018 56.5595 814.98 56.8101 815.861 57.2484C816.596 57.6385 817.397 57.888 818.223 57.9841C819.036 57.9841 819.559 57.5 819.772 56.5127L822.657 56.9774C822.25 60.1524 820.721 61.7205 818.049 61.7205C817.06 61.6758 816.09 61.4252 815.203 60.9848C814.462 60.594 813.654 60.3447 812.822 60.2492C812.649 60.2361 812.475 60.2572 812.31 60.3114C812.145 60.3656 811.993 60.4519 811.862 60.5652C811.73 60.6786 811.623 60.8167 811.545 60.9718C811.467 61.1269 811.421 61.2958 811.409 61.4688L808.505 61.0429ZM812.512 79.1443H818.688L815.59 72.7556L812.512 79.1443ZM832.588 66.5605C835.069 64.2103 838.357 62.9005 841.775 62.9005C845.192 62.9005 848.48 64.2103 850.961 66.5605C852.199 67.6909 853.184 69.0705 853.852 70.6087C854.519 72.1469 854.853 73.8089 854.833 75.4854C854.861 77.1552 854.542 78.8126 853.895 80.3524C853.249 81.8922 852.289 83.2807 851.077 84.4297C848.572 86.7482 845.284 88.0361 841.871 88.0361C838.458 88.0361 835.17 86.7482 832.666 84.4297C831.472 83.2679 830.523 81.8787 829.876 80.3442C829.228 78.8096 828.894 77.1608 828.894 75.4951C828.894 73.8294 829.228 72.1806 829.876 70.6461C830.523 69.1115 831.472 67.7222 832.666 66.5605H832.588ZM836.46 80.9835C837.162 81.7013 838.003 82.2674 838.932 82.647C839.861 83.0267 840.858 83.2117 841.862 83.1906C842.866 83.2134 843.864 83.0254 844.791 82.6385C845.718 82.2517 846.553 81.6748 847.244 80.9449C848.68 79.4948 849.486 77.5362 849.486 75.4951C849.486 73.454 848.68 71.4954 847.244 70.0453C846.539 69.3277 845.698 68.7576 844.771 68.3685C843.844 67.9793 842.848 67.7789 841.842 67.7789C840.836 67.7789 839.841 67.9793 838.913 68.3685C837.986 68.7576 837.146 69.3277 836.441 70.0453C835.038 71.5207 834.256 73.4786 834.256 75.5144C834.256 77.5502 835.038 79.5081 836.441 80.9835H836.46Z" fill="#DED1BD"/>
<path d="M223.49 129.15V104.853H230.924C232.639 104.805 234.303 105.439 235.551 106.615C236.174 107.171 236.669 107.855 237.003 108.62C237.337 109.385 237.502 110.214 237.487 111.048C237.546 112.083 237.279 113.111 236.723 113.986C236.168 114.861 235.352 115.54 234.39 115.927C235.805 116.154 237.086 116.897 237.987 118.012C238.887 119.127 239.344 120.536 239.269 121.967C239.296 122.927 239.121 123.882 238.754 124.77C238.387 125.657 237.837 126.457 237.139 127.117C236.435 127.775 235.606 128.285 234.702 128.617C233.797 128.95 232.836 129.098 231.873 129.053L223.49 129.15ZM226.201 114.978H230.75C231.307 115.076 231.878 115.05 232.424 114.904C232.969 114.757 233.476 114.493 233.909 114.129C234.341 113.766 234.689 113.312 234.928 112.8C235.167 112.288 235.29 111.729 235.29 111.164C235.29 110.599 235.167 110.041 234.928 109.529C234.689 109.017 234.341 108.563 233.909 108.2C233.476 107.836 232.969 107.572 232.424 107.425C231.878 107.278 231.307 107.253 230.75 107.35H226.181L226.201 114.978ZM226.201 126.594H231.641C232.27 126.623 232.899 126.524 233.489 126.302C234.079 126.08 234.617 125.741 235.072 125.304C235.526 124.868 235.887 124.344 236.133 123.763C236.378 123.183 236.503 122.559 236.5 121.928C236.513 121.318 236.395 120.712 236.155 120.151C235.915 119.59 235.557 119.087 235.106 118.676C234.639 118.243 234.09 117.908 233.492 117.688C232.894 117.469 232.258 117.37 231.621 117.398H226.201V126.594Z" fill="#DED1BD"/>
<path d="M242.309 129.149L253.286 103.981L264.301 129.149H261.397L258.784 123.148H247.845L245.232 129.149H242.309ZM248.872 120.631H257.642L253.247 110.312L248.872 120.631Z" fill="#DED1BD"/>
<path d="M269.566 129.149V104.853H272.277V129.149H269.566Z" fill="#DED1BD"/>
<path d="M279.518 129.148V104.852H287.823C288.778 104.834 289.727 105.01 290.612 105.37C291.497 105.729 292.3 106.264 292.973 106.943C293.67 107.603 294.221 108.402 294.588 109.29C294.955 110.177 295.13 111.132 295.102 112.092C295.135 113.58 294.708 115.042 293.88 116.279C293.052 117.515 291.863 118.467 290.475 119.004L296.283 129.148H293.186L287.707 119.468H282.209V129.148H279.518ZM282.247 117.01H287.552C288.192 117.034 288.83 116.923 289.424 116.683C290.019 116.442 290.555 116.079 290.998 115.616C291.458 115.155 291.819 114.604 292.059 113.998C292.299 113.392 292.412 112.744 292.392 112.092C292.41 111.469 292.302 110.849 292.074 110.269C291.846 109.689 291.502 109.162 291.064 108.718C290.626 108.275 290.103 107.925 289.526 107.69C288.949 107.454 288.33 107.338 287.707 107.349H282.247V117.01Z" fill="#DED1BD"/>
<path d="M301.334 129.15V104.853H309.639C310.594 104.838 311.542 105.015 312.427 105.374C313.312 105.734 314.115 106.268 314.789 106.944C315.487 107.604 316.037 108.404 316.404 109.292C316.771 110.179 316.947 111.134 316.919 112.094C316.951 113.582 316.525 115.044 315.697 116.28C314.869 117.517 313.68 118.469 312.292 119.005L318.1 129.15H315.002L309.523 119.47H303.986V129.15H301.334ZM304.064 117.011H309.349C309.992 117.035 310.633 116.923 311.23 116.683C311.827 116.443 312.367 116.08 312.814 115.618C313.274 115.156 313.636 114.606 313.875 114C314.115 113.394 314.228 112.745 314.208 112.094C314.227 111.471 314.119 110.851 313.89 110.271C313.662 109.691 313.319 109.163 312.881 108.72C312.443 108.276 311.919 107.927 311.342 107.691C310.765 107.456 310.146 107.34 309.523 107.351H303.986L304.064 117.011Z" fill="#DED1BD"/>
<path d="M321.587 117.01C321.549 115.333 321.857 113.666 322.494 112.113C323.13 110.561 324.08 109.156 325.285 107.988C326.468 106.815 327.874 105.89 329.42 105.268C330.966 104.646 332.621 104.34 334.287 104.368C335.945 104.338 337.592 104.644 339.129 105.266C340.666 105.888 342.061 106.814 343.231 107.988C345.6 110.39 346.927 113.628 346.927 117.001C346.927 120.373 345.6 123.611 343.231 126.012C342.06 127.184 340.664 128.108 339.127 128.726C337.59 129.345 335.944 129.647 334.287 129.613C332.622 129.645 330.968 129.342 329.422 128.724C327.875 128.105 326.469 127.183 325.285 126.012C324.084 124.846 323.135 123.445 322.499 121.896C321.863 120.347 321.553 118.684 321.587 117.01ZM324.278 117.01C324.237 118.344 324.464 119.672 324.946 120.916C325.429 122.16 326.156 123.294 327.085 124.251C328.019 125.194 329.137 125.935 330.369 126.428C331.601 126.921 332.922 127.155 334.248 127.116C335.566 127.155 336.878 126.921 338.101 126.428C339.324 125.934 340.431 125.193 341.353 124.251C343.17 122.281 344.178 119.699 344.178 117.02C344.178 114.34 343.17 111.759 341.353 109.789C340.432 108.844 339.325 108.1 338.103 107.603C336.88 107.107 335.568 106.869 334.248 106.904C332.92 106.868 331.599 107.105 330.367 107.601C329.134 108.098 328.017 108.842 327.085 109.789C326.155 110.741 325.426 111.872 324.944 113.113C324.461 114.354 324.235 115.679 324.278 117.01Z" fill="#DED1BD"/>
<path d="M361.873 126.729C362.485 126.986 363.146 127.105 363.809 127.078C366.113 126.942 366.558 125.142 366.539 122.547V104.853H369.249V122.451C369.318 123.814 369.167 125.18 368.804 126.497C368.242 128.433 366.868 129.478 363.983 129.633C363.327 129.621 362.675 129.516 362.047 129.323L361.873 126.729Z" fill="#DED1BD"/>
<path d="M375.871 104.853H378.6V120.34C378.6 124.696 381.04 127.039 384.97 127.039C388.9 127.039 391.359 124.696 391.359 120.34V104.853H394.069V120.631C394.144 121.848 393.96 123.068 393.53 124.209C393.099 125.35 392.432 126.387 391.571 127.252C389.698 128.742 387.374 129.554 384.98 129.554C382.585 129.554 380.261 128.742 378.387 127.252C377.524 126.389 376.853 125.353 376.419 124.211C375.985 123.07 375.798 121.85 375.871 120.631V104.853Z" fill="#DED1BD"/>
<path d="M401 129.149V103.981L418.056 123.206V104.853H420.766V130.02L403.73 110.777V129.149H401Z" fill="#DED1BD"/>
<path d="M427.893 129.15V104.853H435.637C437.312 104.76 438.988 105.007 440.565 105.579C442.143 106.152 443.587 107.037 444.813 108.183C446.971 110.613 448.163 113.751 448.163 117.001C448.163 120.252 446.971 123.389 444.813 125.82C443.584 126.961 442.139 127.844 440.562 128.416C438.986 128.988 437.311 129.237 435.637 129.15H427.893ZM430.603 126.633H435.52C442.083 126.633 445.529 122.761 445.529 116.953C445.529 111.145 442.083 107.273 435.482 107.273H430.603V126.633Z" fill="#DED1BD"/>
<path d="M454.008 129.149V104.853H456.718V129.149H454.008Z" fill="#DED1BD"/>
<path d="M461.982 129.149L472.96 103.981L483.975 129.149H481.013L478.4 123.148H467.461L464.848 129.149H461.982ZM468.545 120.631H477.315L472.921 110.312L468.545 120.631Z" fill="#DED1BD"/>
<path d="M489.242 129.15V104.853H491.953V129.15H489.242ZM489.513 103.169L491.352 98.1162H494.818L491.565 103.169H489.513Z" fill="#DED1BD"/>
<path d="M93.2173 143.631C93.2173 143.631 130.001 103.924 130.001 83.6157C130.001 73.8601 126.125 64.5041 119.227 57.6058C112.329 50.7075 102.973 46.832 93.2173 46.832C83.4616 46.832 74.1055 50.7075 67.2072 57.6058C60.3089 64.5041 56.4336 73.8601 56.4336 83.6157C56.453 103.924 93.2173 143.631 93.2173 143.631Z" stroke="#DED1BD" stroke-width="1.49981"/>
<path d="M93.2194 95.6956C95.8231 95.6956 98.3684 94.9234 100.533 93.4769C102.698 92.0303 104.385 89.9744 105.382 87.5688C106.378 85.1633 106.639 82.5163 106.131 79.9626C105.623 77.4089 104.369 75.0632 102.528 73.2221C100.687 71.381 98.3413 70.1271 95.7876 69.6192C93.2339 69.1112 90.587 69.3719 88.1815 70.3683C85.7759 71.3647 83.7199 73.0521 82.2733 75.217C80.8268 77.3819 80.0547 79.9271 80.0547 82.5308C80.0522 84.2604 80.3908 85.9734 81.0515 87.5718C81.7122 89.1702 82.6818 90.6224 83.9048 91.8454C85.1278 93.0684 86.58 94.038 88.1784 94.6987C89.7768 95.3594 91.4898 95.6982 93.2194 95.6956V95.6956Z" stroke="#DED1BD" stroke-width="1.49981"/>
</svg>
