<svg width="1464" height="623" viewBox="0 0 1464 623" fill="none" xmlns="http://www.w3.org/2000/svg">
<path d="M704.074 526.336V560.94H708.038V544.359H727.495V560.94H731.099V526.336H727.495V540.754H708.038V526.336H704.074Z" fill="#898949"/>
<path d="M804.605 525.615C799.561 525.615 795.237 527.417 791.633 530.661C788.03 534.266 786.229 538.231 786.229 543.638C786.229 549.045 788.03 553.01 791.633 556.614C795.237 560.219 799.561 561.661 804.605 561.661C809.65 561.661 813.974 559.859 817.577 556.614C821.18 553.01 822.982 548.684 822.982 543.638C822.982 538.591 821.18 534.266 817.577 530.661C813.974 527.417 809.65 525.615 804.605 525.615ZM814.694 554.091C812.172 556.975 808.569 558.056 804.605 558.056C800.642 558.056 797.038 556.614 794.516 554.091C791.994 551.207 790.552 547.963 790.552 543.638C790.552 539.673 791.994 536.068 794.516 533.184C797.399 530.301 800.642 529.219 804.605 529.219C808.569 529.219 812.172 530.661 814.694 533.184C817.216 536.068 818.658 539.312 818.658 543.638C818.658 547.963 817.216 551.207 814.694 554.091Z" fill="#898949"/>
<path d="M873.066 525.254V560.94H876.67V536.789L889.641 555.173L902.613 536.789V560.94H906.577V525.254L889.641 549.045L873.066 525.254Z" fill="#898949"/>
<path d="M986.21 529.94V526.336H966.752V560.94H986.57V557.335H970.355V544.359H985.129V540.754H970.355V529.94H986.21Z" fill="#898949"/>
<path d="M730.019 597.707C730.019 594.823 728.938 592.3 727.136 590.498C724.974 588.335 722.812 587.614 719.93 587.614H708.039V622.218H712.003V608.521H719.93L727.857 622.218H732.181L723.893 607.8C727.497 605.998 730.019 602.393 730.019 597.707ZM719.209 604.916H711.642V591.219H719.569C723.533 591.219 726.416 594.102 726.416 598.068C726.416 600.23 725.695 601.672 724.254 603.114C722.812 604.195 721.371 604.916 719.209 604.916Z" fill="#898949"/>
<path d="M798.479 605.637H813.253V602.033H798.479V591.219H814.334V587.614H794.516V622.218H814.694V618.614H798.479V605.637Z" fill="#898949"/>
<path d="M891.084 602.032C888.562 600.951 886.76 599.87 885.679 598.788C884.598 598.067 884.238 596.626 884.238 595.184C884.238 592.3 886.76 590.137 890.724 590.137C893.246 590.137 895.768 591.219 897.93 593.381V589.056C896.129 587.614 893.606 586.533 891.084 586.533C884.598 586.533 880.635 590.137 880.635 595.184C880.635 597.707 881.355 599.509 883.157 601.312C884.238 602.033 884.959 602.753 885.679 603.474C886.4 604.195 887.841 604.556 889.282 605.637C892.165 607.079 894.327 608.521 895.408 609.602C896.489 610.684 897.21 612.125 897.21 613.928C897.21 616.811 894.687 619.335 889.643 619.335C885.679 619.335 882.076 617.532 879.193 613.928V618.614C882.076 621.497 885.679 622.579 890.003 622.579C893.246 622.579 896.129 621.858 897.93 620.055C900.092 618.253 901.173 616.09 901.173 613.567C901.173 610.684 900.453 608.16 898.291 606.358C896.129 604.916 894.327 603.835 891.084 602.032Z" fill="#898949"/>
<path d="M976.48 586.893C971.436 586.893 967.112 588.695 963.508 591.94C959.905 595.544 958.104 599.509 958.104 604.916C958.104 610.323 959.905 614.288 963.508 617.893C967.112 621.497 971.436 622.939 976.48 622.939C981.525 622.939 985.849 621.137 989.452 617.893C993.055 614.288 994.857 609.962 994.857 604.916C994.857 599.87 993.055 595.544 989.452 591.94C985.849 588.695 981.525 586.893 976.48 586.893ZM986.569 615.369C984.047 618.253 980.444 619.334 976.48 619.334C972.517 619.334 968.913 617.893 966.391 615.369C963.869 612.486 962.427 609.242 962.427 604.916C962.427 600.951 963.869 597.346 966.391 594.463C969.274 591.579 972.517 590.498 976.48 590.498C980.444 590.498 984.047 591.94 986.569 594.463C989.091 597.346 990.533 600.591 990.533 604.916C990.533 608.881 989.452 612.486 986.569 615.369Z" fill="#898949"/>
<path d="M1073.77 597.707C1073.77 594.823 1072.69 592.3 1070.89 590.498C1068.72 588.335 1066.56 587.614 1063.68 587.614H1051.79V622.218H1055.75V608.521H1063.68L1071.61 622.218H1075.93L1067.64 607.8C1071.25 605.998 1073.77 602.393 1073.77 597.707ZM1062.96 604.916H1055.39V591.219H1063.32C1067.28 591.219 1070.17 594.102 1070.17 598.068C1070.17 600.23 1069.45 601.672 1068 603.114C1066.92 604.195 1065.12 604.916 1062.96 604.916Z" fill="#898949"/>
<path d="M1138.27 591.219H1147.63V622.218H1151.6V591.219H1160.97V587.614H1138.27V591.219Z" fill="#898949"/>
<path d="M168.632 358.362C163.588 358.362 159.264 360.164 155.3 363.769C151.697 367.373 149.895 371.699 149.895 377.106C149.895 392.606 144.49 405.582 133.32 416.756C122.51 427.57 109.178 433.338 93.3242 433.338C77.8302 433.338 64.8585 427.931 53.6884 416.756C42.8787 405.943 37.1135 392.606 37.1135 377.106V227.155C37.1135 211.655 42.5183 198.318 53.6884 187.144C64.4982 176.33 77.8302 170.562 93.3242 170.562C108.818 170.562 122.15 175.969 133.32 187.144C144.13 197.957 149.895 211.294 149.895 227.155C149.895 232.201 151.697 236.527 155.3 240.492C158.903 244.096 163.227 245.898 168.632 245.898C173.677 245.898 178.001 244.096 181.964 240.492C185.567 236.887 187.369 232.561 187.369 227.155C187.369 209.853 183.045 193.992 174.758 179.934C166.47 165.876 154.94 154.342 140.887 146.051C126.834 137.761 110.98 133.435 93.6845 133.435C76.3889 133.435 60.8949 137.761 46.8422 146.051C32.7896 154.342 21.2592 165.876 12.9717 179.934C4.3239 193.992 0 209.853 0 227.155V377.106C0 394.408 4.3239 409.908 12.6114 423.966C21.2592 438.023 32.4292 449.558 46.4819 457.849C60.5346 466.5 76.3889 470.465 93.3242 470.465C110.62 470.465 126.474 466.139 140.527 457.849C154.579 449.198 166.11 438.023 174.397 423.966C182.685 409.908 187.009 394.047 187.009 377.106C187.009 372.059 185.207 367.734 181.604 363.769C178.361 360.164 173.677 358.362 168.632 358.362Z" fill="#898949"/>
<path d="M594.896 146.051C580.843 137.76 564.989 133.435 547.693 133.435H472.746C467.701 133.435 463.377 135.237 459.414 138.842C455.811 142.446 454.009 146.772 454.009 152.179V357.28C445.001 356.199 435.993 353.676 427.345 350.071C422.661 348.269 417.616 345.746 412.932 343.583V227.875C412.932 210.573 408.608 194.713 400.32 180.655C392.033 166.237 380.863 155.062 366.81 146.411C352.758 137.76 337.264 133.435 319.608 133.074C301.952 133.074 286.098 137.4 272.045 145.69C257.992 153.981 246.822 165.155 238.174 179.574C229.526 193.992 225.563 209.492 225.563 226.794V252.747C223.041 253.107 220.518 253.828 217.996 254.549C201.781 259.235 185.927 268.607 171.154 283.386C167.551 286.991 165.749 291.316 165.389 296.363C165.389 301.409 166.83 305.735 170.433 309.7C174.397 313.304 178.721 315.467 183.765 315.467C188.81 315.467 193.134 313.665 197.097 310.06C206.466 300.688 215.834 294.56 225.203 291.316V451C225.203 456.046 227.004 460.732 230.607 464.337C234.211 467.941 238.895 470.104 243.939 470.104C249.344 469.744 253.668 467.941 257.272 464.337C260.875 460.732 262.676 456.407 262.676 451.36V293.479C267.361 295.281 271.685 297.084 276.369 299.607C291.142 307.537 308.077 318.711 327.175 333.13C341.948 344.304 358.162 355.118 374.737 365.21V444.151C374.737 471.546 381.223 496.418 394.555 518.766C407.887 541.115 425.904 559.138 448.244 572.475C470.584 585.812 495.446 592.3 522.831 592.3H542.289C547.693 592.3 552.017 590.498 555.981 586.893C559.584 583.288 561.746 578.602 561.746 573.196C561.746 568.149 559.584 563.824 555.981 560.219C552.378 556.614 548.054 554.812 543.009 554.812H522.831C502.292 554.812 483.916 549.766 466.981 539.673C450.045 529.58 436.713 516.243 426.624 499.301C416.535 482.36 411.851 463.976 411.851 443.43V383.233C422.661 387.198 434.191 390.443 445.721 392.605C448.244 392.966 450.766 394.047 452.928 395.129V450.279C452.928 455.325 454.73 459.651 458.333 463.255C461.936 466.86 466.26 468.662 471.665 469.023C477.07 469.023 481.394 467.22 485.357 463.255C488.96 459.651 491.122 454.965 491.122 449.558V408.826C491.122 404.501 492.564 401.256 495.446 398.373C498.329 395.489 501.932 394.047 506.256 394.047H547.693C563.187 394.047 576.159 399.454 586.969 409.907C597.779 420.721 603.183 433.698 603.904 449.918C603.904 455.325 606.066 459.651 609.669 463.255C613.273 466.86 617.596 468.662 623.001 469.023C628.406 469.023 632.73 467.22 636.333 463.616C639.937 460.011 641.738 455.686 641.738 450.279C641.738 437.663 639.576 426.128 634.892 414.954C630.208 403.78 624.082 394.047 615.795 385.757C612.912 382.512 611.471 378.908 611.471 375.303C611.471 371.699 612.912 368.094 615.795 365.21C623.722 356.559 630.208 346.827 634.892 335.653C639.576 324.478 641.738 312.944 641.738 300.328V226.794C641.738 209.492 637.414 193.992 629.127 179.934C620.119 165.876 608.949 154.341 594.896 146.051ZM375.458 321.234C366.81 315.467 358.162 309.339 349.515 303.211C335.462 292.758 321.77 283.386 308.077 274.735C294.385 266.084 280.332 259.956 266.28 255.631C265.199 255.27 264.118 255.27 263.037 254.91V227.875C263.037 212.375 268.442 199.038 278.891 188.225C289.34 177.411 302.672 171.644 318.527 170.923C334.741 171.283 348.073 176.69 358.883 187.504C369.693 198.318 375.098 211.655 375.098 227.154V321.234H375.458ZM603.544 302.13C603.544 317.63 598.139 330.967 587.329 341.781C576.519 352.594 563.187 358.001 547.693 358.001H506.616C502.292 358.001 498.689 356.559 495.807 353.676C492.924 350.792 491.483 347.187 491.483 342.862V170.923H547.693C563.187 170.923 576.519 176.33 587.329 187.504C598.139 198.318 603.544 211.655 603.544 227.154V302.13Z" fill="#898949"/>
<path d="M1073.77 437.302C1070.52 434.419 1065.84 432.977 1061.52 432.977H958.824C950.897 432.977 944.411 430.454 939.006 425.047C933.601 419.64 931.079 413.152 931.079 405.222V341.06H1016.48C1021.52 341.06 1025.84 339.257 1029.81 335.653C1033.41 332.048 1035.21 327.362 1035.21 322.316C1035.21 317.269 1033.41 312.944 1029.81 308.979C1026.2 305.374 1021.88 303.572 1016.48 303.572H931.079C931.079 285.909 931.079 143.888 931.079 143.888C933.601 143.528 936.484 143.167 939.366 142.807C962.067 139.563 982.965 130.912 1002.78 119.377C1022.6 107.842 1040.98 95.5867 1058.27 82.2497C1077.73 67.8313 1094.67 56.657 1109.08 48.7269C1123.85 40.7968 1137.18 37.1922 1149.8 38.2736C1162.41 39.355 1175.02 46.2037 1187.99 59.1802C1191.95 62.7848 1196.28 64.5871 1201.32 64.5871C1206.37 64.5871 1210.69 62.4244 1214.65 58.8198C1218.26 54.8547 1220.06 50.5292 1219.7 45.4828C1219.7 40.4363 1217.54 36.1108 1213.93 32.5062C1199.16 17.7274 1183.67 7.99496 1167.09 3.66944C1159.88 1.50669 1152.68 0.785767 1144.75 0.785767C1136.46 0.785767 1127.82 1.86715 1119.17 4.39036C1105.12 8.71588 1091.06 14.8437 1077.37 23.4947C1063.68 32.1458 1049.63 41.5177 1035.93 51.971C1023.32 61.343 1010.71 69.994 997.739 78.2846C984.767 86.5752 971.795 93.4239 958.103 98.8308C944.771 104.238 930.718 107.121 916.666 107.121C908.739 107.121 902.613 106.4 897.569 105.319C892.524 104.238 888.56 102.796 886.038 101.354C883.155 99.9122 881.354 98.4704 879.913 97.389C878.832 96.3076 878.111 95.2262 877.751 94.8658C876.309 90.1798 873.427 86.5752 869.463 84.052C865.5 81.5287 860.815 80.8078 855.771 81.8892C850.726 82.9706 846.763 85.8543 844.24 90.1798C841.718 94.5053 840.637 99.1913 841.718 104.598C841.718 105.68 843.159 108.563 844.961 112.889C847.123 117.214 850.726 122.261 856.491 126.947C864.058 133.074 875.949 139.563 892.884 142.807V452.081C892.884 456.407 894.326 460.732 897.208 463.977C901.172 468.663 905.856 470.825 911.621 470.825H1061.52C1066.56 470.825 1070.88 469.023 1074.49 465.418C1078.09 461.814 1079.89 457.488 1080.25 452.081C1080.97 446.314 1078.45 441.268 1073.77 437.302Z" fill="#898949"/>
<path d="M1458.23 534.627C1454.27 531.022 1449.95 528.859 1444.9 528.859C1439.86 528.859 1435.53 530.662 1431.57 534.266C1418.6 547.243 1405.99 554.092 1393.38 555.173C1380.76 556.254 1367.07 552.65 1352.66 544.72C1337.89 536.789 1320.95 525.615 1301.85 511.197C1284.56 498.22 1266.18 485.604 1246.36 474.069C1226.55 462.535 1205.65 454.605 1182.95 450.64C1177.54 449.558 1172.86 447.035 1169.25 443.07C1165.65 439.105 1163.85 434.058 1163.85 428.652V81.5289C1163.85 76.122 1162.05 71.7965 1158.44 67.8314C1154.84 64.2268 1150.16 62.064 1145.11 62.064C1139.71 62.064 1135.38 64.2268 1131.78 67.8314C1128.18 71.436 1126.38 75.7615 1126.38 80.8079V451.361V451.721C1126.38 452.802 1126.02 453.163 1124.93 453.523C1114.48 457.128 1106.2 461.453 1100.79 466.5C1095.03 471.546 1091.42 476.232 1089.26 480.558C1087.1 484.883 1086.02 487.767 1086.02 488.848C1084.94 494.255 1086.02 498.941 1088.54 503.267C1091.06 507.592 1095.03 510.115 1100.07 511.557C1105.12 512.639 1109.44 511.918 1113.76 509.395C1117.73 506.871 1120.61 503.267 1122.05 498.581C1122.05 498.22 1122.77 497.139 1124.21 496.058C1125.29 494.976 1127.46 493.534 1130.34 492.092C1133.22 490.651 1137.19 489.209 1141.87 488.127C1146.91 487.046 1153.4 486.325 1160.97 486.325C1175.02 486.325 1189.07 489.209 1202.4 494.616C1215.74 500.023 1229.07 506.871 1242.04 515.162C1255.01 523.453 1267.62 532.104 1280.23 541.475C1294.29 551.929 1307.98 561.301 1321.67 569.952C1335.36 578.603 1349.42 584.731 1363.47 589.056C1372.12 591.579 1380.76 592.661 1389.05 592.661C1396.62 592.661 1404.19 591.579 1411.39 589.777C1427.61 585.091 1443.46 575.719 1458.23 560.94C1461.84 557.336 1463.64 553.01 1464 547.964C1463.64 542.917 1461.84 538.592 1458.23 534.627Z" fill="#898949"/>
<path d="M853.428 133.89C849.104 132.808 845.14 133.529 841.177 135.332C837.213 137.134 834.33 140.017 832.529 143.983L777.759 324.573C776.678 326.015 775.597 326.736 774.156 326.736C772.715 326.736 771.634 326.015 770.553 324.573L716.144 143.983C713.982 140.017 711.099 137.134 707.496 135.332C703.532 133.529 699.569 133.169 695.245 133.89C690.921 134.971 687.318 137.134 684.796 140.378C682.273 143.622 680.832 147.587 680.832 151.913L680.111 451.455C680.111 456.862 682.273 461.187 685.516 464.792C689.119 468.396 693.443 470.199 698.848 470.559C703.893 470.559 708.217 468.757 711.82 465.152C715.423 461.548 717.225 457.222 717.585 451.815L717.945 288.527C717.945 287.085 718.666 286.004 719.747 285.283C720.828 284.562 721.909 284.201 722.99 284.562C724.071 284.922 725.152 285.643 725.873 286.725L757.941 386.572C762.265 394.142 768.751 397.386 777.759 396.665C783.885 395.583 788.569 391.979 791.452 386.211L823.16 287.085C823.881 286.004 824.602 284.922 825.683 284.922C826.764 284.562 827.845 284.922 828.926 285.643C830.007 286.364 830.367 287.445 830.367 288.887V451.455C830.367 456.501 832.168 460.827 835.772 464.431C839.375 468.036 843.699 469.838 848.743 470.199C854.148 470.199 858.832 468.396 862.436 464.431C866.039 460.827 867.841 456.141 867.841 450.734V151.552C867.841 147.227 866.399 143.262 863.877 140.017C861.355 137.134 857.752 134.971 853.428 133.89Z" fill="#898949"/>
</svg>
