<svg width="905" height="273" viewBox="0 0 905 273" fill="none" xmlns="http://www.w3.org/2000/svg">
<path d="M522.178 34.7706C541.386 34.7706 556.948 50.3326 556.948 69.541L556.948 0.000105292C556.948 19.2085 541.386 34.7706 522.178 34.7706Z" fill="#898949"/>
<path d="M522.179 34.7706C502.97 34.7706 487.408 19.2085 487.408 0.000106812L487.408 69.541C487.408 50.3326 502.97 34.7706 522.179 34.7706Z" fill="#8C7544"/>
<path d="M522.179 34.7705C522.179 15.5621 537.741 4.35763e-05 556.949 4.27366e-05L487.408 4.57764e-05C506.617 4.49367e-05 522.179 15.5621 522.179 34.7705Z" fill="#513F1E"/>
<path d="M556.948 4.42565e-05C537.74 4.50961e-05 522.178 15.5621 522.178 34.7705C541.386 34.7705 556.948 19.2084 556.948 4.42565e-05Z" fill="#8C7544"/>
<path d="M522.179 34.7705C522.179 15.5621 506.617 4.49367e-05 487.408 4.57764e-05C487.408 19.2084 502.97 34.7705 522.179 34.7705Z" fill="#DDD0BC"/>
<path d="M522.179 34.7706C522.179 53.979 506.617 69.541 487.408 69.541L556.949 69.541C537.741 69.541 522.179 53.979 522.179 34.7706Z" fill="#898949"/>
<path d="M522.178 34.7706C522.178 53.979 537.74 69.541 556.948 69.541C556.948 50.3326 541.386 34.7706 522.178 34.7706Z" fill="#8C7544"/>
<path d="M522.179 34.7706C502.97 34.7706 487.408 50.3326 487.408 69.541C506.617 69.541 522.179 53.979 522.179 34.7706Z" fill="#555B1F"/>
<path d="M452.637 34.7706C471.845 34.7706 487.407 50.3326 487.407 69.541L487.407 0.000105292C487.407 19.2085 471.845 34.7706 452.637 34.7706Z" fill="#DDD0BC"/>
<path d="M452.638 34.7706C433.429 34.7706 417.867 19.2085 417.867 0.000106812L417.867 69.541C417.867 50.3326 433.429 34.7706 452.638 34.7706Z" fill="#A3A274"/>
<path d="M452.638 34.7705C452.638 15.5621 468.2 4.35763e-05 487.408 4.27366e-05L417.867 4.57764e-05C437.076 4.49367e-05 452.638 15.5621 452.638 34.7705Z" fill="#555B1F"/>
<path d="M487.407 4.42565e-05C468.199 4.50961e-05 452.637 15.5621 452.637 34.7705C471.845 34.7705 487.407 19.2084 487.407 4.42565e-05Z" fill="#8C7544"/>
<path d="M452.638 34.7705C452.638 15.5621 437.076 4.49367e-05 417.867 4.57764e-05C417.867 19.2084 433.429 34.7705 452.638 34.7705Z" fill="#513F1E"/>
<path d="M452.638 34.7706C452.638 53.979 437.076 69.541 417.867 69.541L487.408 69.541C468.2 69.541 452.638 53.979 452.638 34.7706Z" fill="#A3A274"/>
<path d="M452.637 34.7706C452.637 53.979 468.199 69.541 487.407 69.541C487.407 50.3326 471.845 34.7706 452.637 34.7706Z" fill="#8C7544"/>
<path d="M452.638 34.7706C433.429 34.7706 417.867 50.3326 417.867 69.541C437.076 69.541 452.638 53.979 452.638 34.7706Z" fill="#DDD0BC"/>
<path d="M383.096 34.7706C402.304 34.7706 417.866 50.3326 417.866 69.541L417.866 0.000105292C417.866 19.2085 402.304 34.7706 383.096 34.7706Z" fill="#8C7544"/>
<path d="M383.097 34.7706C363.888 34.7706 348.326 19.2085 348.326 0.000106812L348.326 69.541C348.326 50.3326 363.888 34.7706 383.097 34.7706Z" fill="#A3A274"/>
<path d="M383.097 34.7705C383.097 15.5621 398.659 4.35763e-05 417.867 4.27366e-05L348.326 4.57764e-05C367.535 4.49367e-05 383.097 15.5621 383.097 34.7705Z" fill="#898949"/>
<path d="M417.866 4.42565e-05C398.658 4.50961e-05 383.096 15.5621 383.096 34.7705C402.304 34.7705 417.866 19.2084 417.866 4.42565e-05Z" fill="#A3A274"/>
<path d="M383.097 34.7705C383.097 15.5621 367.535 4.49367e-05 348.326 4.57764e-05C348.326 19.2084 363.888 34.7705 383.097 34.7705Z" fill="#DDD0BC"/>
<path d="M383.097 34.7706C383.097 53.979 367.535 69.541 348.326 69.541L417.867 69.541C398.659 69.541 383.097 53.979 383.097 34.7706Z" fill="#DDD0BC"/>
<path d="M383.096 34.7706C383.096 53.979 398.658 69.541 417.866 69.541C417.866 50.3326 402.304 34.7706 383.096 34.7706Z" fill="#555B1F"/>
<path d="M383.097 34.7706C363.888 34.7706 348.326 50.3326 348.326 69.541C367.535 69.541 383.097 53.979 383.097 34.7706Z" fill="#513F1E"/>
<path d="M661.26 34.7706C680.468 34.7706 696.03 50.3326 696.03 69.541L696.03 9.00329e-05C696.03 19.2085 680.468 34.7706 661.26 34.7706Z" fill="#A3A274"/>
<path d="M661.26 34.7706C642.051 34.7706 626.489 19.2085 626.489 9.15527e-05L626.489 69.541C626.489 50.3326 642.051 34.7706 661.26 34.7706Z" fill="#8C7544"/>
<path d="M661.26 34.7705C661.26 15.5621 676.822 3.59469e-05 696.03 3.51072e-05L626.489 3.8147e-05C645.698 3.73073e-05 661.26 15.5621 661.26 34.7705Z" fill="#8C7544"/>
<path d="M696.03 3.66271e-05C676.822 3.74667e-05 661.26 15.5621 661.26 34.7705C680.468 34.7705 696.03 19.2084 696.03 3.66271e-05Z" fill="#DDD0BC"/>
<path d="M661.26 34.7705C661.26 15.5621 645.698 3.73073e-05 626.489 3.8147e-05C626.489 19.2084 642.051 34.7705 661.26 34.7705Z" fill="#513F1E"/>
<path d="M661.26 34.7706C661.26 53.979 645.698 69.541 626.489 69.541L696.03 69.541C676.822 69.541 661.26 53.979 661.26 34.7706Z" fill="#DDD0BC"/>
<path d="M661.26 34.7706C661.26 53.979 676.822 69.541 696.03 69.541C696.03 50.3326 680.468 34.7706 661.26 34.7706Z" fill="#898949"/>
<path d="M661.26 34.7706C642.051 34.7706 626.489 50.3326 626.489 69.541C645.698 69.541 661.26 53.979 661.26 34.7706Z" fill="#555B1F"/>
<path d="M800.343 34.7706C819.551 34.7706 835.113 50.3326 835.113 69.541L835.113 9.00329e-05C835.113 19.2085 819.551 34.7706 800.343 34.7706Z" fill="#555B1F"/>
<path d="M800.343 34.7706C781.134 34.7706 765.572 19.2085 765.572 9.15527e-05L765.572 69.541C765.572 50.3326 781.134 34.7706 800.343 34.7706Z" fill="#DDD0BC"/>
<path d="M800.343 34.7705C800.343 15.5621 815.905 3.59469e-05 835.113 3.51072e-05L765.572 3.8147e-05C784.781 3.73073e-05 800.343 15.5621 800.343 34.7705Z" fill="#8C7544"/>
<path d="M835.113 3.66271e-05C815.905 3.74667e-05 800.343 15.5621 800.343 34.7705C819.551 34.7705 835.113 19.2084 835.113 3.66271e-05Z" fill="#DDD0BC"/>
<path d="M800.343 34.7705C800.343 15.5621 784.781 3.73073e-05 765.572 3.8147e-05C765.572 19.2084 781.134 34.7705 800.343 34.7705Z" fill="#555B1F"/>
<path d="M800.343 34.7706C800.343 53.979 784.781 69.541 765.572 69.541L835.113 69.541C815.905 69.541 800.343 53.979 800.343 34.7706Z" fill="#DDD0BC"/>
<path d="M800.343 34.7706C800.343 53.979 815.905 69.541 835.113 69.541C835.113 50.3326 819.551 34.7706 800.343 34.7706Z" fill="#8C7544"/>
<path d="M800.343 34.7706C781.134 34.7706 765.572 50.3326 765.572 69.541C784.781 69.541 800.343 53.979 800.343 34.7706Z" fill="#A3A274"/>
<path d="M730.801 34.7706C750.009 34.7706 765.571 50.3326 765.571 69.541L765.571 9.00329e-05C765.571 19.2085 750.009 34.7706 730.801 34.7706Z" fill="#555B1F"/>
<path d="M730.801 34.7706C711.592 34.7706 696.03 19.2085 696.03 9.15527e-05L696.03 69.541C696.03 50.3326 711.592 34.7706 730.801 34.7706Z" fill="#555B1F"/>
<path d="M730.801 34.7705C730.801 15.5621 746.363 3.59469e-05 765.571 3.51072e-05L696.03 3.8147e-05C715.239 3.73073e-05 730.801 15.5621 730.801 34.7705Z" fill="#898949"/>
<path d="M765.571 3.66271e-05C746.363 3.74667e-05 730.801 15.5621 730.801 34.7705C750.009 34.7705 765.571 19.2084 765.571 3.66271e-05Z" fill="#513F1E"/>
<path d="M730.801 34.7705C730.801 15.5621 715.239 3.73073e-05 696.03 3.8147e-05C696.03 19.2084 711.592 34.7705 730.801 34.7705Z" fill="#A3A274"/>
<path d="M730.801 34.7706C730.801 53.979 715.239 69.541 696.03 69.541L765.571 69.541C746.363 69.541 730.801 53.979 730.801 34.7706Z" fill="#DDD0BC"/>
<path d="M730.801 34.7706C730.801 53.979 746.363 69.541 765.571 69.541C765.571 50.3326 750.009 34.7706 730.801 34.7706Z" fill="#A3A274"/>
<path d="M730.801 34.7706C711.592 34.7706 696.03 50.3326 696.03 69.541C715.239 69.541 730.801 53.979 730.801 34.7706Z" fill="#898949"/>
<path d="M591.72 34.7706C610.928 34.7706 626.49 50.3326 626.49 69.541L626.49 0.000105292C626.49 19.2085 610.928 34.7706 591.72 34.7706Z" fill="#A3A274"/>
<path d="M591.72 34.7706C572.511 34.7706 556.949 19.2085 556.949 0.000106812L556.949 69.541C556.949 50.3326 572.511 34.7706 591.72 34.7706Z" fill="#8C7544"/>
<path d="M591.72 34.7705C591.72 15.5621 607.282 4.35763e-05 626.49 4.27366e-05L556.949 4.57764e-05C576.158 4.49367e-05 591.72 15.5621 591.72 34.7705Z" fill="#898949"/>
<path d="M626.49 4.42565e-05C607.282 4.50961e-05 591.72 15.5621 591.72 34.7705C610.928 34.7705 626.49 19.2084 626.49 4.42565e-05Z" fill="#8C7544"/>
<path d="M591.72 34.7705C591.72 15.5621 576.158 4.49367e-05 556.949 4.57764e-05C556.949 19.2084 572.511 34.7705 591.72 34.7705Z" fill="#DDD0BC"/>
<path d="M591.72 34.7706C591.72 53.979 576.158 69.541 556.949 69.541L626.49 69.541C607.282 69.541 591.72 53.979 591.72 34.7706Z" fill="#513F1E"/>
<path d="M591.72 34.7706C591.72 53.979 607.282 69.541 626.49 69.541C626.49 50.3326 610.928 34.7706 591.72 34.7706Z" fill="#DDD0BC"/>
<path d="M591.72 34.7706C572.511 34.7706 556.949 50.3326 556.949 69.541C576.158 69.541 591.72 53.979 591.72 34.7706Z" fill="#898949"/>
<path d="M869.883 34.7706C889.091 34.7706 904.653 50.3326 904.653 69.541L904.653 9.00329e-05C904.653 19.2085 889.091 34.7706 869.883 34.7706Z" fill="#A3A274"/>
<path d="M869.883 34.7706C850.674 34.7706 835.112 19.2085 835.112 9.15527e-05L835.112 69.541C835.112 50.3326 850.674 34.7706 869.883 34.7706Z" fill="#DDD0BC"/>
<path d="M869.883 34.7705C869.883 15.5621 885.445 3.59469e-05 904.653 3.51072e-05L835.112 3.8147e-05C854.321 3.73073e-05 869.883 15.5621 869.883 34.7705Z" fill="#513F1E"/>
<path d="M904.653 3.66271e-05C885.445 3.74667e-05 869.883 15.5621 869.883 34.7705C889.091 34.7705 904.653 19.2084 904.653 3.66271e-05Z" fill="#DDD0BC"/>
<path d="M869.883 34.7705C869.883 15.5621 854.321 3.73073e-05 835.112 3.8147e-05C835.112 19.2084 850.674 34.7705 869.883 34.7705Z" fill="#555B1F"/>
<path d="M869.883 34.7706C869.883 53.979 854.321 69.541 835.112 69.541L904.653 69.541C885.445 69.541 869.883 53.979 869.883 34.7706Z" fill="#513F1E"/>
<path d="M869.883 34.7706C869.883 53.979 885.445 69.541 904.653 69.541C904.653 50.3326 889.091 34.7706 869.883 34.7706Z" fill="#555B1F"/>
<path d="M869.883 34.7706C850.674 34.7706 835.112 50.3326 835.112 69.541C854.321 69.541 869.883 53.979 869.883 34.7706Z" fill="#898949"/>
<path d="M104.932 34.7706C124.14 34.7706 139.702 50.3326 139.702 69.541L139.702 9.00329e-05C139.702 19.2085 124.14 34.7706 104.932 34.7706Z" fill="#A3A274"/>
<path d="M104.933 34.7706C85.7242 34.7706 70.1621 19.2085 70.1621 9.15527e-05L70.1621 69.541C70.1621 50.3326 85.7242 34.7706 104.933 34.7706Z" fill="#8C7544"/>
<path d="M104.933 34.7705C104.933 15.5621 120.495 3.59469e-05 139.703 3.51072e-05L70.1621 3.8147e-05C89.3705 3.73073e-05 104.933 15.5621 104.933 34.7705Z" fill="#8C7544"/>
<path d="M139.702 3.66271e-05C120.494 3.74667e-05 104.932 15.5621 104.932 34.7705C124.14 34.7705 139.702 19.2084 139.702 3.66271e-05Z" fill="#DDD0BC"/>
<path d="M104.933 34.7705C104.933 15.5621 89.3705 3.73073e-05 70.1621 3.8147e-05C70.1621 19.2084 85.7242 34.7705 104.933 34.7705Z" fill="#513F1E"/>
<path d="M104.933 34.7706C104.933 53.979 89.3705 69.541 70.1621 69.541L139.703 69.541C120.495 69.541 104.933 53.979 104.933 34.7706Z" fill="#DDD0BC"/>
<path d="M104.932 34.7706C104.932 53.979 120.494 69.541 139.702 69.541C139.702 50.3326 124.14 34.7706 104.932 34.7706Z" fill="#898949"/>
<path d="M104.933 34.7706C85.7242 34.7706 70.1621 50.3326 70.1621 69.541C89.3705 69.541 104.933 53.979 104.933 34.7706Z" fill="#555B1F"/>
<path d="M244.014 34.7706C263.222 34.7706 278.784 50.3326 278.784 69.541L278.784 9.00329e-05C278.784 19.2085 263.222 34.7706 244.014 34.7706Z" fill="#555B1F"/>
<path d="M244.015 34.7706C224.806 34.7706 209.244 19.2085 209.244 9.15527e-05L209.244 69.541C209.244 50.3326 224.806 34.7706 244.015 34.7706Z" fill="#DDD0BC"/>
<path d="M244.015 34.7705C244.015 15.5621 259.577 3.59469e-05 278.785 3.51072e-05L209.244 3.8147e-05C228.453 3.73073e-05 244.015 15.5621 244.015 34.7705Z" fill="#8C7544"/>
<path d="M278.784 3.66271e-05C259.576 3.74667e-05 244.014 15.5621 244.014 34.7705C263.222 34.7705 278.784 19.2084 278.784 3.66271e-05Z" fill="#DDD0BC"/>
<path d="M244.015 34.7705C244.015 15.5621 228.453 3.73073e-05 209.244 3.8147e-05C209.244 19.2084 224.806 34.7705 244.015 34.7705Z" fill="#555B1F"/>
<path d="M244.015 34.7706C244.015 53.979 228.453 69.541 209.244 69.541L278.785 69.541C259.577 69.541 244.015 53.979 244.015 34.7706Z" fill="#DDD0BC"/>
<path d="M244.014 34.7706C244.014 53.979 259.576 69.541 278.784 69.541C278.784 50.3326 263.222 34.7706 244.014 34.7706Z" fill="#8C7544"/>
<path d="M244.015 34.7706C224.806 34.7706 209.244 50.3326 209.244 69.541C228.453 69.541 244.015 53.979 244.015 34.7706Z" fill="#A3A274"/>
<path d="M174.473 34.7706C193.681 34.7706 209.243 50.3326 209.243 69.541L209.243 9.00329e-05C209.243 19.2085 193.681 34.7706 174.473 34.7706Z" fill="#555B1F"/>
<path d="M174.474 34.7706C155.265 34.7706 139.703 19.2085 139.703 9.15527e-05L139.703 69.541C139.703 50.3326 155.265 34.7706 174.474 34.7706Z" fill="#555B1F"/>
<path d="M174.474 34.7705C174.474 15.5621 190.036 3.59469e-05 209.244 3.51072e-05L139.703 3.8147e-05C158.912 3.73073e-05 174.474 15.5621 174.474 34.7705Z" fill="#898949"/>
<path d="M209.243 3.66271e-05C190.035 3.74667e-05 174.473 15.5621 174.473 34.7705C193.681 34.7705 209.243 19.2084 209.243 3.66271e-05Z" fill="#513F1E"/>
<path d="M174.474 34.7705C174.474 15.5621 158.912 3.73073e-05 139.703 3.8147e-05C139.703 19.2084 155.265 34.7705 174.474 34.7705Z" fill="#A3A274"/>
<path d="M174.474 34.7706C174.474 53.979 158.912 69.541 139.703 69.541L209.244 69.541C190.036 69.541 174.474 53.979 174.474 34.7706Z" fill="#DDD0BC"/>
<path d="M174.473 34.7706C174.473 53.979 190.035 69.541 209.243 69.541C209.243 50.3326 193.681 34.7706 174.473 34.7706Z" fill="#A3A274"/>
<path d="M174.474 34.7706C155.265 34.7706 139.703 50.3326 139.703 69.541C158.912 69.541 174.474 53.979 174.474 34.7706Z" fill="#898949"/>
<path d="M35.3906 34.7706C54.599 34.7706 70.1611 50.3326 70.1611 69.541L70.1611 0.000105292C70.1611 19.2085 54.599 34.7706 35.3906 34.7706Z" fill="#A3A274"/>
<path d="M35.3915 34.7706C16.1831 34.7706 0.621092 19.2085 0.621091 0.000106812L0.621094 69.541C0.621093 50.3326 16.1831 34.7706 35.3915 34.7706Z" fill="#8C7544"/>
<path d="M35.3915 34.7705C35.3915 15.5621 50.9536 4.35763e-05 70.162 4.27366e-05L0.621092 4.57764e-05C19.8295 4.49367e-05 35.3915 15.5621 35.3915 34.7705Z" fill="#898949"/>
<path d="M70.1611 4.42565e-05C50.9527 4.50961e-05 35.3906 15.5621 35.3906 34.7705C54.599 34.7705 70.1611 19.2084 70.1611 4.42565e-05Z" fill="#8C7544"/>
<path d="M35.3915 34.7705C35.3915 15.5621 19.8295 4.49367e-05 0.621092 4.57764e-05C0.621093 19.2084 16.1831 34.7705 35.3915 34.7705Z" fill="#DDD0BC"/>
<path d="M35.3915 34.7706C35.3915 53.979 19.8295 69.541 0.621094 69.541L70.162 69.541C50.9536 69.541 35.3915 53.979 35.3915 34.7706Z" fill="#513F1E"/>
<path d="M35.3906 34.7706C35.3906 53.979 50.9527 69.541 70.1611 69.541C70.1611 50.3326 54.599 34.7706 35.3906 34.7706Z" fill="#DDD0BC"/>
<path d="M35.3915 34.7706C16.1831 34.7706 0.621093 50.3326 0.621094 69.541C19.8295 69.541 35.3915 53.979 35.3915 34.7706Z" fill="#898949"/>
<path d="M313.555 34.7706C332.763 34.7706 348.325 50.3326 348.325 69.541L348.325 9.00329e-05C348.325 19.2085 332.763 34.7706 313.555 34.7706Z" fill="#A3A274"/>
<path d="M313.556 34.7706C294.347 34.7706 278.785 19.2085 278.785 9.15527e-05L278.785 69.541C278.785 50.3326 294.347 34.7706 313.556 34.7706Z" fill="#DDD0BC"/>
<path d="M313.556 34.7705C313.556 15.5621 329.118 3.59469e-05 348.326 3.51072e-05L278.785 3.8147e-05C297.994 3.73073e-05 313.556 15.5621 313.556 34.7705Z" fill="#513F1E"/>
<path d="M348.325 3.66271e-05C329.117 3.74667e-05 313.555 15.5621 313.555 34.7705C332.763 34.7705 348.325 19.2084 348.325 3.66271e-05Z" fill="#DDD0BC"/>
<path d="M313.556 34.7705C313.556 15.5621 297.994 3.73073e-05 278.785 3.8147e-05C278.785 19.2084 294.347 34.7705 313.556 34.7705Z" fill="#555B1F"/>
<path d="M313.556 34.7706C313.556 53.979 297.994 69.541 278.785 69.541L348.326 69.541C329.118 69.541 313.556 53.979 313.556 34.7706Z" fill="#513F1E"/>
<path d="M313.555 34.7706C313.555 53.979 329.117 69.541 348.325 69.541C348.325 50.3326 332.763 34.7706 313.555 34.7706Z" fill="#555B1F"/>
<path d="M313.556 34.7706C294.347 34.7706 278.785 50.3326 278.785 69.541C297.994 69.541 313.556 53.979 313.556 34.7706Z" fill="#898949"/>
<path d="M175.82 104.731C156.612 104.731 141.05 89.1693 141.05 69.9609L141.05 139.502C141.05 120.293 156.612 104.731 175.82 104.731Z" fill="#898949"/>
<path d="M175.819 104.731C195.028 104.731 210.59 120.293 210.59 139.502L210.59 69.9609C210.59 89.1693 195.028 104.731 175.819 104.731Z" fill="#8C7544"/>
<path d="M175.819 104.731C175.819 123.94 160.257 139.502 141.049 139.502L210.59 139.502C191.381 139.502 175.819 123.94 175.819 104.731Z" fill="#513F1E"/>
<path d="M141.05 139.502C160.258 139.502 175.82 123.94 175.82 104.731C156.612 104.731 141.05 120.294 141.05 139.502Z" fill="#8C7544"/>
<path d="M175.819 104.731C175.819 123.94 191.381 139.502 210.59 139.502C210.59 120.294 195.028 104.731 175.819 104.731Z" fill="#DDD0BC"/>
<path d="M175.819 104.731C175.819 85.523 191.381 69.9609 210.59 69.9609L141.049 69.9609C160.257 69.9609 175.819 85.523 175.819 104.731Z" fill="#898949"/>
<path d="M175.82 104.731C175.82 85.523 160.258 69.9609 141.05 69.9609C141.05 89.1693 156.612 104.731 175.82 104.731Z" fill="#8C7544"/>
<path d="M175.819 104.731C195.028 104.731 210.59 89.1693 210.59 69.9609C191.381 69.9609 175.819 85.523 175.819 104.731Z" fill="#555B1F"/>
<path d="M245.361 104.731C226.153 104.731 210.591 89.1693 210.591 69.9609L210.591 139.502C210.591 120.293 226.153 104.731 245.361 104.731Z" fill="#DDD0BC"/>
<path d="M245.36 104.731C264.569 104.731 280.131 120.293 280.131 139.502L280.131 69.9609C280.131 89.1693 264.569 104.731 245.36 104.731Z" fill="#A3A274"/>
<path d="M245.36 104.731C245.36 123.94 229.798 139.502 210.59 139.502L280.131 139.502C260.922 139.502 245.36 123.94 245.36 104.731Z" fill="#555B1F"/>
<path d="M210.591 139.502C229.799 139.502 245.361 123.94 245.361 104.731C226.153 104.731 210.591 120.294 210.591 139.502Z" fill="#8C7544"/>
<path d="M245.36 104.731C245.36 123.94 260.922 139.502 280.131 139.502C280.131 120.294 264.569 104.731 245.36 104.731Z" fill="#513F1E"/>
<path d="M245.36 104.731C245.36 85.523 260.922 69.9609 280.131 69.9609L210.59 69.9609C229.798 69.9609 245.36 85.523 245.36 104.731Z" fill="#A3A274"/>
<path d="M245.361 104.731C245.361 85.523 229.799 69.9609 210.591 69.9609C210.591 89.1693 226.153 104.731 245.361 104.731Z" fill="#8C7544"/>
<path d="M245.36 104.731C264.569 104.731 280.131 89.1693 280.131 69.9609C260.922 69.9609 245.36 85.523 245.36 104.731Z" fill="#DDD0BC"/>
<path d="M314.902 104.731C295.694 104.731 280.132 89.1693 280.132 69.9609L280.132 139.502C280.132 120.293 295.694 104.731 314.902 104.731Z" fill="#8C7544"/>
<path d="M314.901 104.731C334.11 104.731 349.672 120.293 349.672 139.502L349.672 69.9609C349.672 89.1693 334.11 104.731 314.901 104.731Z" fill="#A3A274"/>
<path d="M314.901 104.731C314.901 123.94 299.339 139.502 280.131 139.502L349.672 139.502C330.463 139.502 314.901 123.94 314.901 104.731Z" fill="#898949"/>
<path d="M280.132 139.502C299.34 139.502 314.902 123.94 314.902 104.731C295.694 104.731 280.132 120.294 280.132 139.502Z" fill="#A3A274"/>
<path d="M314.901 104.731C314.901 123.94 330.463 139.502 349.672 139.502C349.672 120.294 334.11 104.731 314.901 104.731Z" fill="#DDD0BC"/>
<path d="M314.901 104.731C314.901 85.523 330.463 69.9609 349.672 69.9609L280.131 69.9609C299.339 69.9609 314.901 85.523 314.901 104.731Z" fill="#DDD0BC"/>
<path d="M314.902 104.731C314.902 85.523 299.34 69.9609 280.132 69.9609C280.132 89.1693 295.694 104.731 314.902 104.731Z" fill="#555B1F"/>
<path d="M314.901 104.731C334.11 104.731 349.672 89.1693 349.672 69.9609C330.463 69.9609 314.901 85.523 314.901 104.731Z" fill="#513F1E"/>
<path d="M36.7383 104.731C17.5299 104.731 1.96783 89.1693 1.96783 69.9609L1.96784 139.502C1.96783 120.293 17.5299 104.731 36.7383 104.731Z" fill="#A3A274"/>
<path d="M36.7374 104.731C55.9458 104.731 71.5078 120.293 71.5078 139.502L71.5078 69.9609C71.5078 89.1693 55.9458 104.731 36.7374 104.731Z" fill="#8C7544"/>
<path d="M36.7374 104.731C36.7374 123.94 21.1753 139.502 1.96691 139.502L71.5078 139.502C52.2994 139.502 36.7374 123.94 36.7374 104.731Z" fill="#8C7544"/>
<path d="M1.96783 139.502C21.1762 139.502 36.7383 123.94 36.7383 104.731C17.5299 104.731 1.96783 120.294 1.96783 139.502Z" fill="#DDD0BC"/>
<path d="M36.7374 104.731C36.7374 123.94 52.2994 139.502 71.5078 139.502C71.5078 120.294 55.9458 104.731 36.7374 104.731Z" fill="#513F1E"/>
<path d="M36.7374 104.731C36.7374 85.523 52.2994 69.9609 71.5078 69.9609L1.9669 69.9609C21.1753 69.9609 36.7374 85.523 36.7374 104.731Z" fill="#DDD0BC"/>
<path d="M36.7383 104.731C36.7383 85.523 21.1762 69.9609 1.96783 69.9609C1.96783 89.1693 17.5299 104.731 36.7383 104.731Z" fill="#898949"/>
<path d="M36.7374 104.731C55.9458 104.731 71.5078 89.1693 71.5078 69.9609C52.2994 69.9609 36.7374 85.523 36.7374 104.731Z" fill="#555B1F"/>
<path d="M106.279 104.731C87.0709 104.731 71.5088 89.1693 71.5088 69.9609L71.5088 139.502C71.5088 120.293 87.0709 104.731 106.279 104.731Z" fill="#A3A274"/>
<path d="M106.278 104.731C125.487 104.731 141.049 120.293 141.049 139.502L141.049 69.9609C141.049 89.1693 125.487 104.731 106.278 104.731Z" fill="#8C7544"/>
<path d="M106.278 104.731C106.278 123.94 90.7163 139.502 71.5079 139.502L141.049 139.502C121.84 139.502 106.278 123.94 106.278 104.731Z" fill="#898949"/>
<path d="M71.5088 139.502C90.7172 139.502 106.279 123.94 106.279 104.731C87.0709 104.731 71.5088 120.294 71.5088 139.502Z" fill="#8C7544"/>
<path d="M106.278 104.731C106.278 123.94 121.84 139.502 141.049 139.502C141.049 120.294 125.487 104.731 106.278 104.731Z" fill="#DDD0BC"/>
<path d="M106.278 104.731C106.278 85.523 121.84 69.9609 141.049 69.9609L71.5079 69.9609C90.7163 69.9609 106.278 85.523 106.278 104.731Z" fill="#513F1E"/>
<path d="M106.279 104.731C106.279 85.523 90.7172 69.9609 71.5088 69.9609C71.5088 89.1693 87.0709 104.731 106.279 104.731Z" fill="#DDD0BC"/>
<path d="M106.278 104.731C125.487 104.731 141.049 89.1693 141.049 69.9609C121.84 69.9609 106.278 85.523 106.278 104.731Z" fill="#898949"/>
<path d="M732.146 104.731C712.938 104.731 697.376 89.1693 697.376 69.9609L697.376 139.502C697.376 120.293 712.938 104.731 732.146 104.731Z" fill="#898949"/>
<path d="M732.147 104.731C751.355 104.731 766.917 120.293 766.917 139.502L766.917 69.9609C766.917 89.1693 751.355 104.731 732.147 104.731Z" fill="#8C7544"/>
<path d="M732.147 104.731C732.147 123.94 716.584 139.502 697.376 139.502L766.917 139.502C747.709 139.502 732.147 123.94 732.147 104.731Z" fill="#513F1E"/>
<path d="M697.376 139.502C716.584 139.502 732.146 123.94 732.146 104.731C712.938 104.731 697.376 120.294 697.376 139.502Z" fill="#8C7544"/>
<path d="M732.147 104.731C732.147 123.94 747.709 139.502 766.917 139.502C766.917 120.294 751.355 104.731 732.147 104.731Z" fill="#DDD0BC"/>
<path d="M732.147 104.731C732.147 85.523 747.709 69.9609 766.917 69.9609L697.376 69.9609C716.584 69.9609 732.147 85.523 732.147 104.731Z" fill="#898949"/>
<path d="M732.146 104.731C732.146 85.523 716.584 69.9609 697.376 69.9609C697.376 89.1693 712.938 104.731 732.146 104.731Z" fill="#8C7544"/>
<path d="M732.147 104.731C751.355 104.731 766.917 89.1693 766.917 69.9609C747.709 69.9609 732.147 85.523 732.147 104.731Z" fill="#555B1F"/>
<path d="M801.688 104.731C782.479 104.731 766.917 89.1693 766.917 69.9609L766.917 139.502C766.917 120.293 782.479 104.731 801.688 104.731Z" fill="#DDD0BC"/>
<path d="M801.688 104.731C820.896 104.731 836.458 120.293 836.458 139.502L836.458 69.9609C836.458 89.1693 820.896 104.731 801.688 104.731Z" fill="#A3A274"/>
<path d="M801.688 104.731C801.688 123.94 786.125 139.502 766.917 139.502L836.458 139.502C817.25 139.502 801.688 123.94 801.688 104.731Z" fill="#555B1F"/>
<path d="M766.917 139.502C786.125 139.502 801.688 123.94 801.688 104.731C782.479 104.731 766.917 120.294 766.917 139.502Z" fill="#8C7544"/>
<path d="M801.688 104.731C801.688 123.94 817.25 139.502 836.458 139.502C836.458 120.294 820.896 104.731 801.688 104.731Z" fill="#513F1E"/>
<path d="M801.688 104.731C801.688 85.523 817.25 69.9609 836.458 69.9609L766.917 69.9609C786.125 69.9609 801.688 85.523 801.688 104.731Z" fill="#A3A274"/>
<path d="M801.688 104.731C801.688 85.523 786.125 69.9609 766.917 69.9609C766.917 89.1693 782.479 104.731 801.688 104.731Z" fill="#8C7544"/>
<path d="M801.688 104.731C820.896 104.731 836.458 89.1693 836.458 69.9609C817.25 69.9609 801.688 85.523 801.688 104.731Z" fill="#DDD0BC"/>
<path d="M871.229 104.731C852.02 104.731 836.458 89.1693 836.458 69.9609L836.458 139.502C836.458 120.293 852.02 104.731 871.229 104.731Z" fill="#8C7544"/>
<path d="M871.229 104.731C890.437 104.731 905.999 120.293 905.999 139.502L905.999 69.9609C905.999 89.1693 890.437 104.731 871.229 104.731Z" fill="#A3A274"/>
<path d="M871.229 104.731C871.229 123.94 855.667 139.502 836.458 139.502L905.999 139.502C886.791 139.502 871.229 123.94 871.229 104.731Z" fill="#898949"/>
<path d="M836.458 139.502C855.666 139.502 871.229 123.94 871.229 104.731C852.02 104.731 836.458 120.294 836.458 139.502Z" fill="#A3A274"/>
<path d="M871.229 104.731C871.229 123.94 886.791 139.502 905.999 139.502C905.999 120.294 890.437 104.731 871.229 104.731Z" fill="#DDD0BC"/>
<path d="M871.229 104.731C871.229 85.523 886.791 69.9609 905.999 69.9609L836.458 69.9609C855.667 69.9609 871.229 85.523 871.229 104.731Z" fill="#DDD0BC"/>
<path d="M871.229 104.731C871.229 85.523 855.666 69.9609 836.458 69.9609C836.458 89.1693 852.02 104.731 871.229 104.731Z" fill="#555B1F"/>
<path d="M871.229 104.731C890.437 104.731 905.999 89.1693 905.999 69.9609C886.791 69.9609 871.229 85.523 871.229 104.731Z" fill="#513F1E"/>
<path d="M593.065 104.731C573.857 104.731 558.295 89.1693 558.295 69.9609L558.295 139.502C558.295 120.293 573.857 104.731 593.065 104.731Z" fill="#A3A274"/>
<path d="M593.065 104.731C612.274 104.731 627.836 120.293 627.836 139.502L627.836 69.9609C627.836 89.1693 612.274 104.731 593.065 104.731Z" fill="#8C7544"/>
<path d="M593.065 104.731C593.065 123.94 577.503 139.502 558.295 139.502L627.836 139.502C608.628 139.502 593.065 123.94 593.065 104.731Z" fill="#8C7544"/>
<path d="M558.295 139.502C577.503 139.502 593.065 123.94 593.065 104.731C573.857 104.731 558.295 120.294 558.295 139.502Z" fill="#DDD0BC"/>
<path d="M593.065 104.731C593.065 123.94 608.628 139.502 627.836 139.502C627.836 120.294 612.274 104.731 593.065 104.731Z" fill="#513F1E"/>
<path d="M593.065 104.731C593.065 85.523 608.628 69.9609 627.836 69.9609L558.295 69.9609C577.503 69.9609 593.065 85.523 593.065 104.731Z" fill="#DDD0BC"/>
<path d="M593.065 104.731C593.065 85.523 577.503 69.9609 558.295 69.9609C558.295 89.1693 573.857 104.731 593.065 104.731Z" fill="#898949"/>
<path d="M593.065 104.731C612.274 104.731 627.836 89.1693 627.836 69.9609C608.628 69.9609 593.065 85.523 593.065 104.731Z" fill="#555B1F"/>
<path d="M453.984 104.731C434.776 104.731 419.214 89.1693 419.214 69.9609L419.214 139.502C419.214 120.293 434.776 104.731 453.984 104.731Z" fill="#555B1F"/>
<path d="M453.983 104.731C473.192 104.731 488.754 120.293 488.754 139.502L488.754 69.9609C488.754 89.1693 473.192 104.731 453.983 104.731Z" fill="#DDD0BC"/>
<path d="M453.983 104.731C453.983 123.94 438.421 139.502 419.213 139.502L488.754 139.502C469.546 139.502 453.983 123.94 453.983 104.731Z" fill="#8C7544"/>
<path d="M419.214 139.502C438.422 139.502 453.984 123.94 453.984 104.731C434.776 104.731 419.214 120.294 419.214 139.502Z" fill="#DDD0BC"/>
<path d="M453.983 104.731C453.983 123.94 469.546 139.502 488.754 139.502C488.754 120.294 473.192 104.731 453.983 104.731Z" fill="#555B1F"/>
<path d="M453.983 104.731C453.983 85.523 469.546 69.9609 488.754 69.9609L419.213 69.9609C438.421 69.9609 453.983 85.523 453.983 104.731Z" fill="#DDD0BC"/>
<path d="M453.984 104.731C453.984 85.523 438.422 69.9609 419.214 69.9609C419.214 89.1693 434.776 104.731 453.984 104.731Z" fill="#8C7544"/>
<path d="M453.983 104.731C473.192 104.731 488.754 89.1693 488.754 69.9609C469.546 69.9609 453.983 85.523 453.983 104.731Z" fill="#A3A274"/>
<path d="M523.525 104.731C504.317 104.731 488.755 89.1693 488.755 69.9609L488.755 139.502C488.755 120.293 504.317 104.731 523.525 104.731Z" fill="#555B1F"/>
<path d="M523.524 104.731C542.733 104.731 558.295 120.293 558.295 139.502L558.295 69.9609C558.295 89.1693 542.733 104.731 523.524 104.731Z" fill="#555B1F"/>
<path d="M523.524 104.731C523.524 123.94 507.962 139.502 488.754 139.502L558.295 139.502C539.087 139.502 523.524 123.94 523.524 104.731Z" fill="#898949"/>
<path d="M488.755 139.502C507.963 139.502 523.525 123.94 523.525 104.731C504.317 104.731 488.755 120.294 488.755 139.502Z" fill="#513F1E"/>
<path d="M523.524 104.731C523.524 123.94 539.087 139.502 558.295 139.502C558.295 120.294 542.733 104.731 523.524 104.731Z" fill="#A3A274"/>
<path d="M523.524 104.731C523.524 85.523 539.087 69.9609 558.295 69.9609L488.754 69.9609C507.962 69.9609 523.524 85.523 523.524 104.731Z" fill="#DDD0BC"/>
<path d="M523.525 104.731C523.525 85.523 507.963 69.9609 488.755 69.9609C488.755 89.1693 504.317 104.731 523.525 104.731Z" fill="#A3A274"/>
<path d="M523.524 104.731C542.733 104.731 558.295 89.1693 558.295 69.9609C539.087 69.9609 523.524 85.523 523.524 104.731Z" fill="#898949"/>
<path d="M662.606 104.731C643.398 104.731 627.836 89.1693 627.836 69.9609L627.836 139.502C627.836 120.293 643.398 104.731 662.606 104.731Z" fill="#A3A274"/>
<path d="M662.607 104.731C681.815 104.731 697.377 120.293 697.377 139.502L697.377 69.9609C697.377 89.1693 681.815 104.731 662.607 104.731Z" fill="#8C7544"/>
<path d="M662.607 104.731C662.607 123.94 647.044 139.502 627.836 139.502L697.377 139.502C678.169 139.502 662.607 123.94 662.607 104.731Z" fill="#898949"/>
<path d="M627.836 139.502C647.044 139.502 662.606 123.94 662.606 104.731C643.398 104.731 627.836 120.294 627.836 139.502Z" fill="#8C7544"/>
<path d="M662.606 104.731C662.607 123.94 678.169 139.502 697.377 139.502C697.377 120.294 681.815 104.731 662.606 104.731Z" fill="#DDD0BC"/>
<path d="M662.607 104.731C662.607 85.523 678.169 69.9609 697.377 69.9609L627.836 69.9609C647.044 69.9609 662.607 85.523 662.607 104.731Z" fill="#513F1E"/>
<path d="M662.606 104.731C662.606 85.523 647.044 69.9609 627.836 69.9609C627.836 89.1693 643.398 104.731 662.606 104.731Z" fill="#DDD0BC"/>
<path d="M662.607 104.731C681.815 104.731 697.377 89.1693 697.377 69.9609C678.169 69.9609 662.607 85.523 662.607 104.731Z" fill="#898949"/>
<path d="M384.443 104.731C365.235 104.731 349.673 89.1693 349.673 69.9609L349.673 139.502C349.673 120.293 365.235 104.731 384.443 104.731Z" fill="#A3A274"/>
<path d="M384.442 104.731C403.651 104.731 419.213 120.293 419.213 139.502L419.213 69.9609C419.213 89.1693 403.651 104.731 384.442 104.731Z" fill="#DDD0BC"/>
<path d="M384.442 104.731C384.442 123.94 368.88 139.502 349.672 139.502L419.213 139.502C400.004 139.502 384.442 123.94 384.442 104.731Z" fill="#513F1E"/>
<path d="M349.673 139.502C368.881 139.502 384.443 123.94 384.443 104.731C365.235 104.731 349.673 120.294 349.673 139.502Z" fill="#DDD0BC"/>
<path d="M384.442 104.731C384.442 123.94 400.004 139.502 419.213 139.502C419.213 120.294 403.651 104.731 384.442 104.731Z" fill="#555B1F"/>
<path d="M384.442 104.731C384.442 85.523 400.004 69.9609 419.213 69.9609L349.672 69.9609C368.88 69.9609 384.442 85.523 384.442 104.731Z" fill="#513F1E"/>
<path d="M384.443 104.731C384.443 85.523 368.881 69.9609 349.673 69.9609C349.673 89.1693 365.235 104.731 384.443 104.731Z" fill="#555B1F"/>
<path d="M384.442 104.731C403.651 104.731 419.213 89.1693 419.213 69.9609C400.004 69.9609 384.442 85.523 384.442 104.731Z" fill="#898949"/>
<rect x="208" y="54" width="697" height="219" fill="#BDC694"/>
<path d="M359.902 177.031C365.461 182.434 372.195 185.096 380.103 185.096C388.011 185.096 394.745 182.434 400.226 177.031C405.785 171.629 408.526 164.817 408.526 156.752C408.526 148.687 405.785 141.953 400.226 136.55C394.745 131.148 388.011 128.407 380.103 128.407C372.195 128.407 365.461 131.148 359.902 136.55C354.421 141.953 351.68 148.687 351.68 156.752C351.68 164.817 354.421 171.629 359.902 177.031ZM364.052 140.544C368.358 136.237 373.682 134.045 380.103 134.045C386.524 134.045 391.848 136.237 396.076 140.544C400.304 144.85 402.419 150.253 402.419 156.752C402.419 163.25 400.304 168.732 396.076 173.038C391.848 177.345 386.524 179.459 380.103 179.459C373.682 179.459 368.358 177.345 364.052 173.038C359.823 168.732 357.709 163.25 357.709 156.752C357.709 150.253 359.823 144.85 364.052 140.544ZM455.439 184V162.624H466.793C471.412 162.624 475.406 161.058 478.616 157.926C481.826 154.716 483.471 150.801 483.471 146.025C483.471 141.248 481.826 137.333 478.616 134.201C475.406 130.991 471.412 129.425 466.793 129.425H449.332V184H455.439ZM455.439 135.063H466.558C469.612 135.063 472.195 136.08 474.231 138.194C476.345 140.309 477.363 142.892 477.363 146.025C477.363 149.157 476.345 151.74 474.231 153.855C472.195 155.969 469.612 156.986 466.558 156.986H455.439V135.063ZM500.324 184V162.389H512.617H512.695L524.989 184H531.957L518.803 161.215C525.067 158.787 529.217 152.915 529.217 145.711C529.217 141.092 527.651 137.177 524.44 134.123C521.23 130.991 517.393 129.425 512.852 129.425H494.217V184H500.324ZM500.324 135.063H512.617C518.646 135.063 523.109 139.682 523.109 145.711C523.109 148.922 522.091 151.506 519.977 153.62C517.942 155.734 515.358 156.752 512.226 156.752H500.324V135.063ZM546.399 177.031C551.959 182.434 558.692 185.096 566.601 185.096C574.509 185.096 581.243 182.434 586.724 177.031C592.283 171.629 595.024 164.817 595.024 156.752C595.024 148.687 592.283 141.953 586.724 136.55C581.243 131.148 574.509 128.407 566.601 128.407C558.692 128.407 551.959 131.148 546.399 136.55C540.918 141.953 538.178 148.687 538.178 156.752C538.178 164.817 540.918 171.629 546.399 177.031ZM550.549 140.544C554.856 136.237 560.18 134.045 566.601 134.045C573.021 134.045 578.346 136.237 582.574 140.544C586.802 144.85 588.916 150.253 588.916 156.752C588.916 163.25 586.802 168.732 582.574 173.038C578.346 177.345 573.021 179.459 566.601 179.459C560.18 179.459 554.856 177.345 550.549 173.038C546.321 168.732 544.207 163.25 544.207 156.752C544.207 150.253 546.321 144.85 550.549 140.544ZM597.836 184.392C599.324 184.861 600.812 185.096 602.378 185.096C608.877 184.783 611.93 182.434 613.183 178.049C614.123 174.917 614.201 172.725 614.201 168.966V129.425H608.094V169.201C608.172 175.074 607.154 179.067 601.986 179.38C600.499 179.38 599.167 179.145 597.836 178.597V184.392ZM659.581 184V178.362H634.29V158.004H657.546V152.367H634.29V135.063H659.033V129.425H628.183V184H659.581ZM687.286 184V135.063H702.163V129.425H666.302V135.063H681.179V184H687.286ZM713.628 177.031C719.187 182.434 725.921 185.096 733.829 185.096C741.738 185.096 748.471 182.434 753.952 177.031C759.512 171.629 762.252 164.817 762.252 156.752C762.252 148.687 759.512 141.953 753.952 136.55C748.471 131.148 741.738 128.407 733.829 128.407C725.921 128.407 719.187 131.148 713.628 136.55C708.147 141.953 705.406 148.687 705.406 156.752C705.406 164.817 708.147 171.629 713.628 177.031ZM717.778 140.544C722.084 136.237 727.409 134.045 733.829 134.045C740.25 134.045 745.574 136.237 749.803 140.544C754.031 144.85 756.145 150.253 756.145 156.752C756.145 163.25 754.031 168.732 749.803 173.038C745.574 177.345 740.25 179.459 733.829 179.459C727.409 179.459 722.084 177.345 717.778 173.038C713.55 168.732 711.436 163.25 711.436 156.752C711.436 150.253 713.55 144.85 717.778 140.544Z" fill="#555B1F"/>
</svg>
