<svg width="272" height="70" viewBox="0 0 272 70" fill="none" xmlns="http://www.w3.org/2000/svg">
<path d="M120.634 36.124C119.692 38.3219 118.005 38.9891 115.65 38.9891C78.6391 38.9498 41.5892 38.9498 4.57855 38.9498C2.26293 38.9498 0.928501 38.2041 0.261289 36.5557C-0.641411 34.2401 0.889253 31.689 3.40111 31.4535C3.91133 31.4142 4.42156 31.4143 4.93178 31.4143C41.8247 31.4143 78.7569 31.4142 115.65 31.375C117.965 31.375 119.692 32.0422 120.634 34.2401C120.634 34.8681 120.634 35.496 120.634 36.124Z" fill="white"/>
<path d="M120.634 9.74898C119.692 11.9469 118.005 12.6141 115.65 12.6141C78.6391 12.5748 41.5892 12.5748 4.57855 12.5748C2.26293 12.5748 0.928501 11.8291 0.261289 10.1807C-0.641411 7.86509 0.889253 5.31398 3.40111 5.0785C3.91133 5.03925 4.42156 5.03925 4.93178 5.03925C41.8247 5.03925 78.7569 5.03925 115.65 5C117.965 5 119.692 5.66721 120.634 7.86509C120.634 8.49305 120.634 9.12102 120.634 9.74898Z" fill="white"/>
<path d="M120.635 62.498C119.693 64.6959 118.005 65.3631 115.65 65.3631C91.2383 65.3239 66.8262 65.3238 42.3748 65.3238C41.7076 65.3238 41.0404 65.3238 40.4124 65.1276C38.6463 64.6566 37.5473 62.969 37.7043 61.2028C37.8613 59.4367 39.2742 57.9845 41.0796 57.8275C41.5506 57.7883 42.0216 57.7883 42.4925 57.7883C66.8654 57.7883 91.2383 57.7883 115.65 57.749C117.966 57.749 119.693 58.4162 120.635 60.6141C120.635 61.2421 120.635 61.87 120.635 62.498Z" fill="white"/>
<path d="M141.73 27L144.355 20.98H155.345L157.97 27H160.945L149.885 1.73L138.86 27H141.73ZM149.85 8.1L154.26 18.46H145.44L149.85 8.1ZM175.466 2.15C171.931 2.15 168.921 3.375 166.436 5.79C163.986 8.205 162.761 11.215 162.761 14.82C162.761 18.425 163.986 21.47 166.436 23.885C168.921 26.3 171.931 27.49 175.466 27.49C178.546 27.49 181.101 26.615 183.131 24.9V21.75C181.101 23.885 178.546 24.97 175.466 24.97C172.596 24.97 170.216 24.025 168.326 22.1C166.436 20.175 165.491 17.725 165.491 14.82C165.491 11.915 166.436 9.5 168.326 7.575C170.216 5.65 172.596 4.67 175.466 4.67C178.511 4.67 181.066 5.755 183.131 7.89V4.74C181.101 3.025 178.546 2.15 175.466 2.15ZM202.912 27V24.48H191.607V15.38H202.002V12.86H191.607V5.125H202.667V2.605H188.877V27H202.912ZM206.305 24.585C208.3 26.51 210.855 27.49 213.935 27.49C216.28 27.49 218.135 26.86 219.57 25.6C221.005 24.305 221.74 22.835 221.74 21.12C221.74 19.055 221.11 17.445 219.71 16.15C218.345 14.785 217.12 14.015 214.775 12.86C213.06 11.985 211.835 11.215 211.1 10.585C210.4 9.955 210.05 9.15 210.05 8.135C210.05 6.035 211.765 4.67 214.6 4.67C216.42 4.67 218.065 5.405 219.57 6.91V3.83C218.275 2.71 216.63 2.15 214.635 2.15C210.155 2.15 207.32 4.6 207.32 8.135C207.32 9.92 207.88 11.25 209.175 12.405C209.84 12.965 210.47 13.42 211.065 13.805C211.66 14.19 212.5 14.645 213.585 15.205C215.685 16.29 217.12 17.235 217.855 17.97C218.625 18.705 219.01 19.755 219.01 21.12C219.01 23.08 217.12 24.97 213.725 24.97C210.89 24.97 208.405 23.71 206.305 21.225V24.585ZM225.173 24.585C227.168 26.51 229.723 27.49 232.802 27.49C235.148 27.49 237.003 26.86 238.438 25.6C239.873 24.305 240.608 22.835 240.608 21.12C240.608 19.055 239.978 17.445 238.578 16.15C237.213 14.785 235.988 14.015 233.643 12.86C231.928 11.985 230.703 11.215 229.968 10.585C229.268 9.955 228.918 9.15 228.918 8.135C228.918 6.035 230.633 4.67 233.468 4.67C235.288 4.67 236.933 5.405 238.438 6.91V3.83C237.143 2.71 235.498 2.15 233.503 2.15C229.023 2.15 226.188 4.6 226.188 8.135C226.188 9.92 226.748 11.25 228.043 12.405C228.707 12.965 229.338 13.42 229.933 13.805C230.528 14.19 231.368 14.645 232.453 15.205C234.553 16.29 235.988 17.235 236.723 17.97C237.493 18.705 237.878 19.755 237.878 21.12C237.878 23.08 235.988 24.97 232.593 24.97C229.758 24.97 227.273 23.71 225.173 21.225V24.585ZM247.75 23.885C250.235 26.3 253.245 27.49 256.78 27.49C260.315 27.49 263.325 26.3 265.775 23.885C268.26 21.47 269.485 18.425 269.485 14.82C269.485 11.215 268.26 8.205 265.775 5.79C263.325 3.375 260.315 2.15 256.78 2.15C253.245 2.15 250.235 3.375 247.75 5.79C245.3 8.205 244.075 11.215 244.075 14.82C244.075 18.425 245.3 21.47 247.75 23.885ZM249.605 7.575C251.53 5.65 253.91 4.67 256.78 4.67C259.65 4.67 262.03 5.65 263.92 7.575C265.81 9.5 266.755 11.915 266.755 14.82C266.755 17.725 265.81 20.175 263.92 22.1C262.03 24.025 259.65 24.97 256.78 24.97C253.91 24.97 251.53 24.025 249.605 22.1C247.715 20.175 246.77 17.725 246.77 14.82C246.77 11.915 247.715 9.5 249.605 7.575ZM143.585 62V52.34H149.08H149.115L154.61 62H157.725L151.845 51.815C154.645 50.73 156.5 48.105 156.5 44.885C156.5 42.82 155.8 41.07 154.365 39.705C152.93 38.305 151.215 37.605 149.185 37.605H140.855V62H143.585ZM143.585 40.125H149.08C151.775 40.125 153.77 42.19 153.77 44.885C153.77 46.32 153.315 47.475 152.37 48.42C151.46 49.365 150.305 49.82 148.905 49.82H143.585V40.125ZM162.272 62L164.897 55.98H175.887L178.512 62H181.487L170.427 36.73L159.402 62H162.272ZM170.392 43.1L174.802 53.46H165.982L170.392 43.1ZM171.477 35.925L174.732 30.85H171.267L169.412 35.925H171.477ZM188.668 62V52.445H193.743C195.808 52.445 197.593 51.745 199.028 50.345C200.463 48.91 201.198 47.16 201.198 45.025C201.198 42.89 200.463 41.14 199.028 39.74C197.593 38.305 195.808 37.605 193.743 37.605H185.938V62H188.668ZM188.668 40.125H193.638C195.003 40.125 196.158 40.58 197.068 41.525C198.013 42.47 198.468 43.625 198.468 45.025C198.468 46.425 198.013 47.58 197.068 48.525C196.158 49.47 195.003 49.925 193.638 49.925H188.668V40.125ZM208.871 62V37.605H206.141V62H208.871ZM223.31 62C227.195 62 230.275 60.88 232.515 58.675C234.755 56.435 235.875 53.495 235.875 49.82C235.875 46.145 234.755 43.205 232.48 40.965C230.24 38.725 227.16 37.605 223.275 37.605H215.435V62H223.31ZM218.165 40.125H223.065C229.68 40.125 233.145 43.905 233.145 49.82C233.145 55.7 229.68 59.48 223.1 59.48H218.165V40.125ZM242.93 58.885C245.415 61.3 248.425 62.49 251.96 62.49C255.495 62.49 258.505 61.3 260.955 58.885C263.44 56.47 264.665 53.425 264.665 49.82C264.665 46.215 263.44 43.205 260.955 40.79C258.505 38.375 255.495 37.15 251.96 37.15C248.425 37.15 245.415 38.375 242.93 40.79C240.48 43.205 239.255 46.215 239.255 49.82C239.255 53.425 240.48 56.47 242.93 58.885ZM244.785 42.575C246.71 40.65 249.09 39.67 251.96 39.67C254.83 39.67 257.21 40.65 259.1 42.575C260.99 44.5 261.935 46.915 261.935 49.82C261.935 52.725 260.99 55.175 259.1 57.1C257.21 59.025 254.83 59.97 251.96 59.97C249.09 59.97 246.71 59.025 244.785 57.1C242.895 55.175 241.95 52.725 241.95 49.82C241.95 46.915 242.895 44.5 244.785 42.575Z" fill="white"/>
</svg>
