<svg width="97" height="91" viewBox="0 0 97 91" fill="none" xmlns="http://www.w3.org/2000/svg">
<path d="M55.3206 78.5814C57.6273 80.6541 58.608 83.0239 57.4447 85.8735C55.7573 90.0046 50.0599 91.3757 46.2921 88.5834C45.7561 88.1897 45.2797 87.7314 44.7874 87.2911L44.7692 87.2748L44.7331 87.2422L31.967 75.7348C22.5786 67.272 13.1903 58.8086 3.80199 50.3436C-0.180216 46.753 -0.172275 43.2913 3.83375 39.6792C8.02231 35.9015 12.212 32.1251 16.4015 28.3488L16.4055 28.3452C25.9828 19.7125 35.5595 11.0805 45.1209 2.43452C47.2331 0.522885 49.5954 -0.483051 52.6049 0.229338C57.6432 1.42501 59.5926 6.85205 56.2973 10.4927C55.9228 10.9071 55.4988 11.2872 55.0777 11.6647L54.9413 11.7871L54.868 11.8531C45.8307 20.0016 36.7934 28.1481 27.7561 36.294H87.4138C92.247 36.294 96.1651 40.2021 96.1651 45.023C96.1651 49.8439 92.247 53.7519 87.4138 53.7519H27.7616C36.945 62.0296 46.1256 70.312 55.3206 78.5814Z" fill="white"/>
</svg>
