<svg width="487" height="278" viewBox="0 0 487 278" fill="none" xmlns="http://www.w3.org/2000/svg">
<path d="M452.016 34.7706C471.224 34.7706 486.786 50.3326 486.786 69.541L486.786 0.000105292C486.786 19.2085 471.224 34.7706 452.016 34.7706Z" fill="#DDD0BC"/>
<path d="M452.017 34.7706C432.808 34.7706 417.246 19.2085 417.246 0.000106812L417.246 69.541C417.246 50.3326 432.808 34.7706 452.017 34.7706Z" fill="#A3A274"/>
<path d="M452.017 34.7705C452.017 15.5621 467.579 4.35763e-05 486.787 4.27366e-05L417.246 4.57764e-05C436.454 4.49367e-05 452.017 15.5621 452.017 34.7705Z" fill="#555B1F"/>
<path d="M486.786 4.42565e-05C467.578 4.50961e-05 452.016 15.5621 452.016 34.7705C471.224 34.7705 486.786 19.2084 486.786 4.42565e-05Z" fill="#8C7544"/>
<path d="M452.017 34.7705C452.017 15.5621 436.454 4.49367e-05 417.246 4.57764e-05C417.246 19.2084 432.808 34.7705 452.017 34.7705Z" fill="#513F1E"/>
<path d="M452.017 34.7706C452.017 53.979 436.454 69.541 417.246 69.541L486.787 69.541C467.579 69.541 452.017 53.979 452.017 34.7706Z" fill="#A3A274"/>
<path d="M452.016 34.7706C452.016 53.979 467.578 69.541 486.786 69.541C486.786 50.3326 471.224 34.7706 452.016 34.7706Z" fill="#8C7544"/>
<path d="M452.017 34.7706C432.808 34.7706 417.246 50.3326 417.246 69.541C436.454 69.541 452.017 53.979 452.017 34.7706Z" fill="#DDD0BC"/>
<path d="M382.475 34.7706C401.683 34.7706 417.245 50.3326 417.245 69.541L417.245 0.000105292C417.245 19.2085 401.683 34.7706 382.475 34.7706Z" fill="#8C7544"/>
<path d="M382.476 34.7706C363.267 34.7706 347.705 19.2085 347.705 0.000106812L347.705 69.541C347.705 50.3326 363.267 34.7706 382.476 34.7706Z" fill="#A3A274"/>
<path d="M382.476 34.7705C382.476 15.5621 398.038 4.35763e-05 417.246 4.27366e-05L347.705 4.57764e-05C366.913 4.49367e-05 382.476 15.5621 382.476 34.7705Z" fill="#898949"/>
<path d="M417.245 4.42565e-05C398.037 4.50961e-05 382.475 15.5621 382.475 34.7705C401.683 34.7705 417.245 19.2084 417.245 4.42565e-05Z" fill="#A3A274"/>
<path d="M382.476 34.7705C382.476 15.5621 366.913 4.49367e-05 347.705 4.57764e-05C347.705 19.2084 363.267 34.7705 382.476 34.7705Z" fill="#DDD0BC"/>
<path d="M382.476 34.7706C382.476 53.979 366.913 69.541 347.705 69.541L417.246 69.541C398.038 69.541 382.476 53.979 382.476 34.7706Z" fill="#DDD0BC"/>
<path d="M382.475 34.7706C382.475 53.979 398.037 69.541 417.245 69.541C417.245 50.3326 401.683 34.7706 382.475 34.7706Z" fill="#555B1F"/>
<path d="M382.476 34.7706C363.267 34.7706 347.705 50.3326 347.705 69.541C366.913 69.541 382.476 53.979 382.476 34.7706Z" fill="#513F1E"/>
<path d="M104.311 34.7706C123.519 34.7706 139.081 50.3326 139.081 69.541L139.081 9.00329e-05C139.081 19.2085 123.519 34.7706 104.311 34.7706Z" fill="#A3A274"/>
<path d="M104.311 34.7706C85.1031 34.7706 69.541 19.2085 69.541 9.15527e-05L69.541 69.541C69.541 50.3326 85.1031 34.7706 104.311 34.7706Z" fill="#8C7544"/>
<path d="M104.311 34.7705C104.311 15.5621 119.874 3.59469e-05 139.082 3.51072e-05L69.541 3.8147e-05C88.7494 3.73073e-05 104.311 15.5621 104.311 34.7705Z" fill="#8C7544"/>
<path d="M139.081 3.66271e-05C119.873 3.74667e-05 104.311 15.5621 104.311 34.7705C123.519 34.7705 139.081 19.2084 139.081 3.66271e-05Z" fill="#DDD0BC"/>
<path d="M104.311 34.7705C104.311 15.5621 88.7494 3.73073e-05 69.541 3.8147e-05C69.541 19.2084 85.1031 34.7705 104.311 34.7705Z" fill="#513F1E"/>
<path d="M104.311 34.7706C104.311 53.979 88.7494 69.541 69.541 69.541L139.082 69.541C119.874 69.541 104.311 53.979 104.311 34.7706Z" fill="#DDD0BC"/>
<path d="M104.311 34.7706C104.311 53.979 119.873 69.541 139.081 69.541C139.081 50.3326 123.519 34.7706 104.311 34.7706Z" fill="#898949"/>
<path d="M104.311 34.7706C85.1031 34.7706 69.541 50.3326 69.541 69.541C88.7494 69.541 104.311 53.979 104.311 34.7706Z" fill="#555B1F"/>
<path d="M243.393 34.7706C262.601 34.7706 278.163 50.3326 278.163 69.541L278.163 9.00329e-05C278.163 19.2085 262.601 34.7706 243.393 34.7706Z" fill="#555B1F"/>
<path d="M243.393 34.7706C224.185 34.7706 208.623 19.2085 208.623 9.15527e-05L208.623 69.541C208.623 50.3326 224.185 34.7706 243.393 34.7706Z" fill="#DDD0BC"/>
<path d="M243.393 34.7705C243.393 15.5621 258.956 3.59469e-05 278.164 3.51072e-05L208.623 3.8147e-05C227.831 3.73073e-05 243.393 15.5621 243.393 34.7705Z" fill="#8C7544"/>
<path d="M278.163 3.66271e-05C258.955 3.74667e-05 243.393 15.5621 243.393 34.7705C262.601 34.7705 278.163 19.2084 278.163 3.66271e-05Z" fill="#DDD0BC"/>
<path d="M243.394 34.7705C243.394 15.5621 227.831 3.73073e-05 208.623 3.8147e-05C208.623 19.2084 224.185 34.7705 243.394 34.7705Z" fill="#555B1F"/>
<path d="M243.393 34.7706C243.393 53.979 227.831 69.541 208.623 69.541L278.164 69.541C258.956 69.541 243.393 53.979 243.393 34.7706Z" fill="#DDD0BC"/>
<path d="M243.393 34.7706C243.393 53.979 258.955 69.541 278.163 69.541C278.163 50.3326 262.601 34.7706 243.393 34.7706Z" fill="#8C7544"/>
<path d="M243.393 34.7706C224.185 34.7706 208.623 50.3326 208.623 69.541C227.831 69.541 243.394 53.979 243.393 34.7706Z" fill="#A3A274"/>
<path d="M173.852 34.7706C193.06 34.7706 208.622 50.3326 208.622 69.541L208.622 9.00329e-05C208.622 19.2085 193.06 34.7706 173.852 34.7706Z" fill="#555B1F"/>
<path d="M173.852 34.7706C154.644 34.7706 139.082 19.2085 139.082 9.15527e-05L139.082 69.541C139.082 50.3326 154.644 34.7706 173.852 34.7706Z" fill="#555B1F"/>
<path d="M173.852 34.7705C173.852 15.5621 189.415 3.59469e-05 208.623 3.51072e-05L139.082 3.8147e-05C158.29 3.73073e-05 173.852 15.5621 173.852 34.7705Z" fill="#898949"/>
<path d="M208.622 3.66271e-05C189.414 3.74667e-05 173.852 15.5621 173.852 34.7705C193.06 34.7705 208.622 19.2084 208.622 3.66271e-05Z" fill="#513F1E"/>
<path d="M173.852 34.7705C173.852 15.5621 158.29 3.73073e-05 139.082 3.8147e-05C139.082 19.2084 154.644 34.7705 173.852 34.7705Z" fill="#A3A274"/>
<path d="M173.852 34.7706C173.852 53.979 158.29 69.541 139.082 69.541L208.623 69.541C189.415 69.541 173.852 53.979 173.852 34.7706Z" fill="#DDD0BC"/>
<path d="M173.852 34.7706C173.852 53.979 189.414 69.541 208.622 69.541C208.622 50.3326 193.06 34.7706 173.852 34.7706Z" fill="#A3A274"/>
<path d="M173.852 34.7706C154.644 34.7706 139.082 50.3326 139.082 69.541C158.29 69.541 173.852 53.979 173.852 34.7706Z" fill="#898949"/>
<path d="M34.7695 34.7706C53.9779 34.7706 69.54 50.3326 69.54 69.541L69.54 0.000105292C69.54 19.2085 53.9779 34.7706 34.7695 34.7706Z" fill="#A3A274"/>
<path d="M34.7705 34.7706C15.5621 34.7706 -2.2001e-06 19.2085 -3.03973e-06 0.000106812L0 69.541C-8.39626e-07 50.3326 15.5621 34.7706 34.7705 34.7706Z" fill="#8C7544"/>
<path d="M34.7705 34.7705C34.7704 15.5621 50.3325 4.35763e-05 69.5409 4.27366e-05L-1.51987e-06 4.57764e-05C19.2084 4.49367e-05 34.7704 15.5621 34.7705 34.7705Z" fill="#898949"/>
<path d="M69.54 4.42565e-05C50.3316 4.50961e-05 34.7695 15.5621 34.7695 34.7705C53.9779 34.7705 69.54 19.2084 69.54 4.42565e-05Z" fill="#8C7544"/>
<path d="M34.7705 34.7705C34.7705 15.5621 19.2084 4.49367e-05 -1.51987e-06 4.57764e-05C-6.80239e-07 19.2084 15.5621 34.7705 34.7705 34.7705Z" fill="#DDD0BC"/>
<path d="M34.7704 34.7706C34.7704 53.979 19.2084 69.541 0 69.541L69.5409 69.541C50.3325 69.541 34.7704 53.979 34.7704 34.7706Z" fill="#513F1E"/>
<path d="M34.7695 34.7706C34.7695 53.979 50.3316 69.541 69.54 69.541C69.54 50.3326 53.9779 34.7706 34.7695 34.7706Z" fill="#DDD0BC"/>
<path d="M34.7705 34.7706C15.5621 34.7706 -8.39626e-07 50.3326 0 69.541C19.2084 69.541 34.7705 53.979 34.7705 34.7706Z" fill="#898949"/>
<path d="M312.934 34.7706C332.142 34.7706 347.704 50.3326 347.704 69.541L347.704 9.00329e-05C347.704 19.2085 332.142 34.7706 312.934 34.7706Z" fill="#A3A274"/>
<path d="M312.935 34.7706C293.726 34.7706 278.164 19.2085 278.164 9.15527e-05L278.164 69.541C278.164 50.3326 293.726 34.7706 312.935 34.7706Z" fill="#DDD0BC"/>
<path d="M312.935 34.7705C312.935 15.5621 328.497 3.59469e-05 347.705 3.51072e-05L278.164 3.8147e-05C297.372 3.73073e-05 312.935 15.5621 312.935 34.7705Z" fill="#513F1E"/>
<path d="M347.704 3.66271e-05C328.496 3.74667e-05 312.934 15.5621 312.934 34.7705C332.142 34.7705 347.704 19.2084 347.704 3.66271e-05Z" fill="#DDD0BC"/>
<path d="M312.935 34.7705C312.935 15.5621 297.372 3.73073e-05 278.164 3.8147e-05C278.164 19.2084 293.726 34.7705 312.935 34.7705Z" fill="#555B1F"/>
<path d="M312.935 34.7706C312.935 53.979 297.372 69.541 278.164 69.541L347.705 69.541C328.497 69.541 312.935 53.979 312.935 34.7706Z" fill="#513F1E"/>
<path d="M312.934 34.7706C312.934 53.979 328.496 69.541 347.704 69.541C347.704 50.3326 332.142 34.7706 312.934 34.7706Z" fill="#555B1F"/>
<path d="M312.935 34.7706C293.726 34.7706 278.164 50.3326 278.164 69.541C297.372 69.541 312.935 53.979 312.935 34.7706Z" fill="#898949"/>
<path d="M174.066 104.731C154.858 104.731 139.296 89.1693 139.296 69.9609L139.296 139.502C139.296 120.293 154.858 104.731 174.066 104.731Z" fill="#898949"/>
<path d="M174.065 104.731C193.274 104.731 208.836 120.293 208.836 139.502L208.836 69.9609C208.836 89.1693 193.274 104.731 174.065 104.731Z" fill="#8C7544"/>
<path d="M174.065 104.731C174.065 123.94 158.503 139.502 139.295 139.502L208.836 139.502C189.628 139.502 174.065 123.94 174.065 104.731Z" fill="#513F1E"/>
<path d="M139.296 139.502C158.504 139.502 174.066 123.94 174.066 104.731C154.858 104.731 139.296 120.294 139.296 139.502Z" fill="#8C7544"/>
<path d="M174.065 104.731C174.065 123.94 189.628 139.502 208.836 139.502C208.836 120.294 193.274 104.731 174.065 104.731Z" fill="#DDD0BC"/>
<path d="M174.065 104.731C174.065 85.523 189.628 69.9609 208.836 69.9609L139.295 69.9609C158.503 69.9609 174.065 85.523 174.065 104.731Z" fill="#898949"/>
<path d="M174.066 104.731C174.066 85.523 158.504 69.9609 139.296 69.9609C139.296 89.1693 154.858 104.731 174.066 104.731Z" fill="#8C7544"/>
<path d="M174.065 104.731C193.274 104.731 208.836 89.1693 208.836 69.9609C189.628 69.9609 174.065 85.523 174.065 104.731Z" fill="#555B1F"/>
<path d="M243.607 104.731C224.399 104.731 208.837 89.1693 208.837 69.9609L208.837 139.502C208.837 120.293 224.399 104.731 243.607 104.731Z" fill="#DDD0BC"/>
<path d="M243.607 104.731C262.815 104.731 278.377 120.293 278.377 139.502L278.377 69.9609C278.377 89.1693 262.815 104.731 243.607 104.731Z" fill="#A3A274"/>
<path d="M243.607 104.731C243.607 123.94 228.044 139.502 208.836 139.502L278.377 139.502C259.169 139.502 243.607 123.94 243.607 104.731Z" fill="#555B1F"/>
<path d="M208.837 139.502C228.045 139.502 243.607 123.94 243.607 104.731C224.399 104.731 208.837 120.294 208.837 139.502Z" fill="#8C7544"/>
<path d="M243.607 104.731C243.607 123.94 259.169 139.502 278.377 139.502C278.377 120.294 262.815 104.731 243.607 104.731Z" fill="#513F1E"/>
<path d="M243.607 104.731C243.607 85.523 259.169 69.9609 278.377 69.9609L208.836 69.9609C228.044 69.9609 243.607 85.523 243.607 104.731Z" fill="#A3A274"/>
<path d="M243.607 104.731C243.607 85.523 228.045 69.9609 208.837 69.9609C208.837 89.1693 224.399 104.731 243.607 104.731Z" fill="#8C7544"/>
<path d="M243.607 104.731C262.815 104.731 278.377 89.1693 278.377 69.9609C259.169 69.9609 243.607 85.523 243.607 104.731Z" fill="#DDD0BC"/>
<path d="M313.148 104.731C293.94 104.731 278.378 89.1693 278.378 69.9609L278.378 139.502C278.378 120.293 293.94 104.731 313.148 104.731Z" fill="#8C7544"/>
<path d="M313.148 104.731C332.356 104.731 347.918 120.293 347.918 139.502L347.918 69.9609C347.918 89.1693 332.356 104.731 313.148 104.731Z" fill="#A3A274"/>
<path d="M313.148 104.731C313.148 123.94 297.585 139.502 278.377 139.502L347.918 139.502C328.71 139.502 313.148 123.94 313.148 104.731Z" fill="#898949"/>
<path d="M278.378 139.502C297.586 139.502 313.148 123.94 313.148 104.731C293.94 104.731 278.378 120.294 278.378 139.502Z" fill="#A3A274"/>
<path d="M313.148 104.731C313.148 123.94 328.71 139.502 347.918 139.502C347.918 120.294 332.356 104.731 313.148 104.731Z" fill="#DDD0BC"/>
<path d="M313.148 104.731C313.148 85.523 328.71 69.9609 347.918 69.9609L278.377 69.9609C297.585 69.9609 313.148 85.523 313.148 104.731Z" fill="#DDD0BC"/>
<path d="M313.148 104.731C313.148 85.523 297.586 69.9609 278.378 69.9609C278.378 89.1693 293.94 104.731 313.148 104.731Z" fill="#555B1F"/>
<path d="M313.148 104.731C332.356 104.731 347.918 89.1693 347.918 69.9609C328.71 69.9609 313.148 85.523 313.148 104.731Z" fill="#513F1E"/>
<path d="M34.9863 104.731C15.7779 104.731 0.215876 89.1693 0.215874 69.9609L0.215883 139.502C0.21588 120.293 15.7779 104.731 34.9863 104.731Z" fill="#A3A274"/>
<path d="M34.9854 104.731C54.1938 104.731 69.7559 120.293 69.7559 139.502L69.7559 69.9609C69.7559 89.1693 54.1938 104.731 34.9854 104.731Z" fill="#8C7544"/>
<path d="M34.9854 104.731C34.9854 123.94 19.4233 139.502 0.214955 139.502L69.7559 139.502C50.5475 139.502 34.9854 123.94 34.9854 104.731Z" fill="#8C7544"/>
<path d="M0.215878 139.502C19.4243 139.502 34.9863 123.94 34.9863 104.731C15.7779 104.731 0.215876 120.294 0.215878 139.502Z" fill="#DDD0BC"/>
<path d="M34.9854 104.731C34.9854 123.94 50.5475 139.502 69.7559 139.502C69.7559 120.294 54.1938 104.731 34.9854 104.731Z" fill="#513F1E"/>
<path d="M34.9854 104.731C34.9854 85.523 50.5475 69.9609 69.7559 69.9609L0.214951 69.9609C19.4233 69.9609 34.9854 85.523 34.9854 104.731Z" fill="#DDD0BC"/>
<path d="M34.9863 104.731C34.9863 85.523 19.4243 69.9609 0.215874 69.9609C0.215876 89.1693 15.7779 104.731 34.9863 104.731Z" fill="#898949"/>
<path d="M34.9854 104.731C54.1938 104.731 69.7559 89.1693 69.7559 69.9609C50.5475 69.9609 34.9854 85.523 34.9854 104.731Z" fill="#555B1F"/>
<path d="M104.525 104.731C85.317 104.731 69.7549 89.1693 69.7549 69.9609L69.7549 139.502C69.7549 120.293 85.317 104.731 104.525 104.731Z" fill="#A3A274"/>
<path d="M104.524 104.731C123.733 104.731 139.295 120.293 139.295 139.502L139.295 69.9609C139.295 89.1693 123.733 104.731 104.524 104.731Z" fill="#8C7544"/>
<path d="M104.524 104.731C104.524 123.94 88.9624 139.502 69.754 139.502L139.295 139.502C120.087 139.502 104.524 123.94 104.524 104.731Z" fill="#898949"/>
<path d="M69.7549 139.502C88.9633 139.502 104.525 123.94 104.525 104.731C85.317 104.731 69.7549 120.294 69.7549 139.502Z" fill="#8C7544"/>
<path d="M104.524 104.731C104.524 123.94 120.087 139.502 139.295 139.502C139.295 120.294 123.733 104.731 104.524 104.731Z" fill="#DDD0BC"/>
<path d="M104.524 104.731C104.524 85.523 120.087 69.9609 139.295 69.9609L69.754 69.9609C88.9624 69.9609 104.524 85.523 104.524 104.731Z" fill="#513F1E"/>
<path d="M104.525 104.731C104.525 85.523 88.9633 69.9609 69.7549 69.9609C69.7549 89.1693 85.317 104.731 104.525 104.731Z" fill="#DDD0BC"/>
<path d="M104.524 104.731C123.733 104.731 139.295 89.1693 139.295 69.9609C120.087 69.9609 104.524 85.523 104.524 104.731Z" fill="#898949"/>
<path d="M452.23 104.731C433.022 104.731 417.46 89.1693 417.46 69.9609L417.46 139.502C417.46 120.293 433.022 104.731 452.23 104.731Z" fill="#555B1F"/>
<path d="M452.23 104.731C471.438 104.731 487 120.293 487 139.502L487 69.9609C487 89.1693 471.438 104.731 452.23 104.731Z" fill="#DDD0BC"/>
<path d="M452.23 104.731C452.23 123.94 436.668 139.502 417.459 139.502L487 139.502C467.792 139.502 452.23 123.94 452.23 104.731Z" fill="#8C7544"/>
<path d="M417.46 139.502C436.668 139.502 452.23 123.94 452.23 104.731C433.022 104.731 417.46 120.294 417.46 139.502Z" fill="#DDD0BC"/>
<path d="M452.23 104.731C452.23 123.94 467.792 139.502 487 139.502C487 120.294 471.438 104.731 452.23 104.731Z" fill="#555B1F"/>
<path d="M452.23 104.731C452.23 85.523 467.792 69.9609 487 69.9609L417.459 69.9609C436.667 69.9609 452.23 85.523 452.23 104.731Z" fill="#DDD0BC"/>
<path d="M452.23 104.731C452.23 85.523 436.668 69.9609 417.46 69.9609C417.46 89.1693 433.022 104.731 452.23 104.731Z" fill="#8C7544"/>
<path d="M452.23 104.731C471.438 104.731 487 89.1693 487 69.9609C467.792 69.9609 452.23 85.523 452.23 104.731Z" fill="#A3A274"/>
<path d="M382.689 104.731C363.481 104.731 347.919 89.1693 347.919 69.9609L347.919 139.502C347.919 120.293 363.481 104.731 382.689 104.731Z" fill="#A3A274"/>
<path d="M382.689 104.731C401.897 104.731 417.459 120.293 417.459 139.502L417.459 69.9609C417.459 89.1693 401.897 104.731 382.689 104.731Z" fill="#DDD0BC"/>
<path d="M382.689 104.731C382.689 123.94 367.126 139.502 347.918 139.502L417.459 139.502C398.251 139.502 382.689 123.94 382.689 104.731Z" fill="#513F1E"/>
<path d="M347.919 139.502C367.127 139.502 382.689 123.94 382.689 104.731C363.481 104.731 347.919 120.294 347.919 139.502Z" fill="#DDD0BC"/>
<path d="M382.689 104.731C382.689 123.94 398.251 139.502 417.459 139.502C417.459 120.294 401.897 104.731 382.689 104.731Z" fill="#555B1F"/>
<path d="M382.689 104.731C382.689 85.523 398.251 69.9609 417.459 69.9609L347.918 69.9609C367.126 69.9609 382.689 85.523 382.689 104.731Z" fill="#513F1E"/>
<path d="M382.689 104.731C382.689 85.523 367.127 69.9609 347.919 69.9609C347.919 89.1693 363.481 104.731 382.689 104.731Z" fill="#555B1F"/>
<path d="M382.689 104.731C401.897 104.731 417.459 89.1693 417.459 69.9609C398.251 69.9609 382.689 85.523 382.689 104.731Z" fill="#898949"/>
<rect x="139" y="69" width="261" height="209" fill="#555B1F"/>
<path d="M197.581 148V139.32H201.851H201.921L207.136 148H212.071L206.156 138.27C208.816 137.15 210.601 134.525 210.601 131.34C210.601 129.135 209.831 127.315 208.291 125.845C206.751 124.34 204.896 123.605 202.691 123.605H193.206V148H197.581ZM197.581 127.56H202.586C204.686 127.56 206.261 129.17 206.261 131.41C206.261 133.755 204.616 135.4 202.236 135.4H197.581V127.56ZM231.242 148V144.045H219.832V137.325H230.297V133.37H219.832V127.56H230.997V123.605H215.457V148H231.242ZM244.686 148V127.56H251.301V123.605H233.696V127.56H240.311V148H244.686ZM265.323 148.49C268.928 148.49 272.008 147.265 274.493 144.85C276.978 142.435 278.238 139.425 278.238 135.855C278.238 132.285 276.978 129.275 274.458 126.86C271.973 124.41 268.928 123.185 265.323 123.185C261.718 123.185 258.673 124.41 256.188 126.86C253.703 129.275 252.443 132.285 252.443 135.855C252.443 139.425 253.703 142.435 256.188 144.85C258.673 147.265 261.718 148.49 265.323 148.49ZM256.748 135.855C256.748 133.405 257.553 131.34 259.198 129.66C260.843 127.98 262.908 127.14 265.323 127.14C267.738 127.14 269.768 127.98 271.413 129.66C273.058 131.34 273.898 133.405 273.898 135.855C273.898 138.305 273.058 140.37 271.413 142.05C269.768 143.695 267.738 144.535 265.323 144.535C262.908 144.535 260.843 143.695 259.198 142.05C257.553 140.405 256.748 138.34 256.748 135.855ZM286.687 148V139.32H290.957H291.027L296.242 148H301.177L295.262 138.27C297.922 137.15 299.707 134.525 299.707 131.34C299.707 129.135 298.937 127.315 297.397 125.845C295.857 124.34 294.002 123.605 291.797 123.605H282.312V148H286.687ZM286.687 127.56H291.692C293.792 127.56 295.367 129.17 295.367 131.41C295.367 133.755 293.722 135.4 291.342 135.4H286.687V127.56ZM308.938 148V132.67L325.563 148.91V123.605H321.188V139.005L304.563 122.695V148H308.938ZM346.735 148V144.045H335.325V137.325H345.79V133.37H335.325V127.56H346.49V123.605H330.95V148H346.735ZM191.114 183L193.284 178.275H203.784L205.954 183H210.609L198.569 157.415L186.494 183H191.114ZM198.534 166.55L202.139 174.495H194.929L198.534 166.55ZM224.102 183.49C227.707 183.49 230.787 182.265 233.272 179.85C235.757 177.435 237.017 174.425 237.017 170.855C237.017 167.285 235.757 164.275 233.237 161.86C230.752 159.41 227.707 158.185 224.102 158.185C220.497 158.185 217.452 159.41 214.967 161.86C212.482 164.275 211.222 167.285 211.222 170.855C211.222 174.425 212.482 177.435 214.967 179.85C217.452 182.265 220.497 183.49 224.102 183.49ZM215.527 170.855C215.527 168.405 216.332 166.34 217.977 164.66C219.622 162.98 221.687 162.14 224.102 162.14C226.517 162.14 228.547 162.98 230.192 164.66C231.837 166.34 232.677 168.405 232.677 170.855C232.677 173.305 231.837 175.37 230.192 177.05C228.547 178.695 226.517 179.535 224.102 179.535C221.687 179.535 219.622 178.695 217.977 177.05C216.332 175.405 215.527 173.34 215.527 170.855ZM258.453 183V169.175L266.608 179.115L274.763 169.175V183H279.068V157.8L266.608 172.885L254.148 157.8V183H258.453ZM300.285 183V179.045H288.875V172.325H299.34V168.37H288.875V162.56H300.04V158.605H284.5V183H300.285ZM309.109 183V167.67L325.734 183.91V158.605H321.359V174.005L304.734 157.695V183H309.109ZM330.911 173.655C330.911 176.77 331.821 179.185 333.676 180.865C335.531 182.545 337.911 183.385 340.816 183.385C343.721 183.385 346.066 182.545 347.921 180.865C349.776 179.185 350.686 176.77 350.686 173.655V158.605H346.311V173.2C346.311 177.4 344.211 179.43 340.816 179.43C337.351 179.43 335.286 177.4 335.286 173.2V158.605H330.911V173.655ZM214.623 218V193.605H210.248V218H214.623ZM224.566 218V202.67L241.191 218.91V193.605H236.816V209.005L220.191 192.695V218H224.566ZM251.092 218V193.605H246.717V218H251.092ZM268.315 193.185C264.71 193.185 261.63 194.375 259.11 196.79C256.625 199.205 255.365 202.215 255.365 205.82C255.365 209.425 256.625 212.435 259.11 214.85C261.63 217.23 264.71 218.42 268.315 218.42C271.325 218.42 273.845 217.58 275.91 215.865V211.21C273.775 213.38 271.255 214.465 268.315 214.465C265.865 214.465 263.8 213.66 262.155 212.015C260.51 210.37 259.705 208.305 259.705 205.82C259.705 203.335 260.51 201.27 262.155 199.625C263.8 197.98 265.865 197.14 268.315 197.14C271.255 197.14 273.775 198.225 275.91 200.395V195.74C273.81 194.025 271.29 193.185 268.315 193.185ZM285.34 218V193.605H280.965V218H285.34ZM293.533 218L295.703 213.275H306.203L308.373 218H313.028L300.988 192.415L288.913 218H293.533ZM300.953 201.55L304.558 209.495H297.348L300.953 201.55ZM330.476 218V214.045H320.781V193.605H316.406V218H330.476Z" fill="white"/>
<path d="M91.6449 278L35 221.498L91.6449 165L105 178.32L61.7056 221.498L105 264.68L91.6449 278Z" fill="#DDD0BC"/>
</svg>
